<svg width="18" height="18" viewBox="0 0 18 18" fill="none" xmlns="http://www.w3.org/2000/svg">
<path d="M17.5738 0.426167C17.8467 0.699038 18 1.06913 18 1.45503C18 1.84092 17.8467 2.21102 17.5738 2.48389L11.0577 9L17.5738 15.5161C17.8467 15.789 18 16.1591 18 16.545C18 16.9309 17.8467 17.301 17.5738 17.5738C17.301 17.8467 16.9309 18 16.545 18C16.1591 18 15.789 17.8467 15.5161 17.5738L9 11.0577L2.48389 17.5738C2.21102 17.8467 1.84092 18 1.45503 18C1.06913 18 0.699038 17.8467 0.426168 17.5738C0.153297 17.301 0 16.9309 0 16.545C0 16.1591 0.153297 15.789 0.426168 15.5161L6.94228 9L0.426168 2.48389C0.153297 2.21102 0 1.84092 0 1.45503C0 1.06913 0.153297 0.699038 0.426168 0.426167C0.699038 0.153297 1.06913 1.63535e-07 1.45503 1.63535e-07C1.84092 1.63535e-07 2.21102 0.153297 2.48389 0.426167L9 6.94228L15.5161 0.426167C15.789 0.153297 16.1591 0 16.545 0C16.9309 0 17.301 0.153297 17.5738 0.426167Z" fill="#140533"/>
</svg>
