<svg width="21" height="22" viewBox="0 0 21 22" fill="none" xmlns="http://www.w3.org/2000/svg">
<path d="M11.625 15.875C11.625 16.1717 11.537 16.4617 11.3722 16.7084C11.2074 16.955 10.9731 17.1473 10.699 17.2608C10.4249 17.3744 10.1233 17.4041 9.83237 17.3462C9.5414 17.2883 9.27412 17.1454 9.06434 16.9357C8.85457 16.7259 8.7117 16.4586 8.65383 16.1676C8.59595 15.8767 8.62565 15.5751 8.73919 15.301C8.85272 15.0269 9.04498 14.7926 9.29165 14.6278C9.53832 14.463 9.82833 14.375 10.125 14.375C10.5228 14.375 10.9044 14.533 11.1857 14.8143C11.467 15.0956 11.625 15.4772 11.625 15.875ZM20.25 11C20.25 13.0025 19.6562 14.9601 18.5436 16.6251C17.4311 18.2902 15.8498 19.5879 13.9997 20.3543C12.1496 21.1206 10.1138 21.3211 8.14971 20.9305C6.18566 20.5398 4.38156 19.5755 2.96555 18.1595C1.54954 16.7435 0.585229 14.9393 0.194554 12.9753C-0.196122 11.0112 0.00438702 8.97543 0.770724 7.12533C1.53706 5.27523 2.83481 3.69392 4.49986 2.58137C6.1649 1.46882 8.12247 0.875 10.125 0.875C12.8094 0.877978 15.383 1.94567 17.2812 3.84383C19.1793 5.74199 20.247 8.3156 20.25 11ZM18 11C18 9.44247 17.5381 7.91992 16.6728 6.62488C15.8075 5.32985 14.5776 4.32049 13.1386 3.72445C11.6997 3.12841 10.1163 2.97246 8.58867 3.27632C7.06107 3.58017 5.65788 4.3302 4.55654 5.43153C3.4552 6.53287 2.70518 7.93606 2.40132 9.46366C2.09746 10.9913 2.25341 12.5747 2.84945 14.0136C3.44549 15.4526 4.45485 16.6825 5.74989 17.5478C7.04493 18.4131 8.56748 18.875 10.125 18.875C12.2129 18.8728 14.2146 18.0424 15.691 16.566C17.1674 15.0896 17.9978 13.0879 18 11ZM10.125 5C7.85063 5 6 6.68188 6 8.75V9.125C6 9.42337 6.11853 9.70952 6.32951 9.9205C6.54049 10.1315 6.82664 10.25 7.125 10.25C7.42337 10.25 7.70952 10.1315 7.9205 9.9205C8.13148 9.70952 8.25 9.42337 8.25 9.125V8.75C8.25 7.92313 9.09375 7.25 10.125 7.25C11.1563 7.25 12 7.92313 12 8.75C12 9.57687 11.1563 10.25 10.125 10.25C9.82664 10.25 9.54049 10.3685 9.32951 10.5795C9.11853 10.7905 9 11.0766 9 11.375V12.125C8.99933 12.4029 9.10158 12.6713 9.28703 12.8783C9.47247 13.0854 9.72799 13.2164 10.0043 13.2462C10.2807 13.276 10.5583 13.2025 10.7836 13.0398C11.0089 12.8771 11.1661 12.6367 11.2247 12.365C12.9666 11.9262 14.25 10.4722 14.25 8.75C14.25 6.68188 12.3994 5 10.125 5Z" fill="#0057FF"/>
</svg>
