<svg width="24" height="18" viewBox="0 0 24 18" fill="none" xmlns="http://www.w3.org/2000/svg">
<path d="M22.9253 2.50128C22.3339 1.48243 20.7695 0.527324 16.7241 1.59116C15.3739 0.659443 13.7946 0.114818 12.1571 0.0162498C10.5196 -0.082318 8.88632 0.268928 7.43411 1.03196C5.9819 1.79499 4.76608 2.94073 3.91828 4.34515C3.07049 5.74956 2.62301 7.35913 2.62431 8.9996C2.62431 9.22455 2.63244 9.44763 2.64868 9.66883C-0.322565 12.642 -0.27195 14.4734 0.322299 15.4979C0.880931 16.4615 1.99632 16.8729 3.43789 16.8729C4.35551 16.8729 5.40622 16.7061 6.5263 16.4127C7.87678 17.3431 9.45599 17.8865 11.093 17.9841C12.7301 18.0816 14.3627 17.7297 15.8141 16.9663C17.2655 16.2029 18.4806 15.0571 19.3277 13.6529C20.1749 12.2487 20.622 10.6396 20.6205 8.9996C20.6205 8.77371 20.6121 8.55063 20.5952 8.32849C21.9365 6.98065 22.8316 5.68436 23.1259 4.57928C23.3902 3.60261 23.1625 2.90713 22.9253 2.50128ZM11.6224 2.25102C13.151 2.25309 14.6337 2.77322 15.8285 3.72652C17.0234 4.67982 17.8598 6.00999 18.2013 7.49991C16.8713 8.6931 15.0904 9.9922 12.9271 11.236C10.8894 12.4067 8.84518 13.3318 7.0137 13.9214C6.02741 12.9961 5.34187 11.7959 5.04595 10.4763C4.75004 9.15669 4.85741 7.77864 5.35413 6.52081C5.85086 5.26298 6.71403 4.1834 7.83172 3.42206C8.94941 2.66072 10.2701 2.25274 11.6224 2.25102ZM2.2672 14.3694C2.21003 14.2691 2.25127 13.5989 3.2673 12.3345C3.58289 13.1223 4.0086 13.8614 4.53172 14.5297C2.91675 14.7743 2.32906 14.4744 2.2672 14.3694ZM11.6224 15.7482C10.9038 15.7483 10.1899 15.6331 9.50786 15.407C11.0696 14.7713 12.5859 14.0294 14.0463 13.1865C15.5011 12.3568 16.897 11.4276 18.2238 10.4055C17.8999 11.9165 17.068 13.2708 15.8668 14.2429C14.6657 15.2151 13.1677 15.7463 11.6224 15.7482ZM20.9551 3.99909C20.8351 4.44712 20.5043 5.01794 19.9813 5.66749C19.6657 4.87862 19.2396 4.13857 18.7159 3.46951C20.1997 3.24737 20.8876 3.46951 20.9795 3.62979C20.9954 3.65698 21.0151 3.77695 20.9551 3.99909Z" fill="#0057FF"/>
</svg>
