<svg width="17" height="22" viewBox="0 0 17 22" fill="none" xmlns="http://www.w3.org/2000/svg">
<path d="M16.2917 10.0582C16.254 9.88951 16.1757 9.73255 16.0637 9.6009C15.9517 9.46925 15.8093 9.36688 15.6488 9.30262L11.11 7.4873L12.0492 1.22546C12.0836 1.0006 12.0452 0.770615 11.9394 0.569233C11.8336 0.367851 11.666 0.205672 11.4613 0.106485C11.2566 0.00729803 11.0254 -0.0236769 10.8018 0.0181037C10.5782 0.0598843 10.3739 0.172221 10.2188 0.338637L0.286379 10.9805C0.168315 11.1069 0.0828537 11.2602 0.0373971 11.4272C-0.00805945 11.5941 -0.0121409 11.7695 0.0255061 11.9384C0.063153 12.1072 0.141393 12.2643 0.253451 12.3961C0.365509 12.5279 0.508005 12.6304 0.668599 12.6947L5.20735 14.51L4.26821 20.7745C4.23373 20.9994 4.27222 21.2294 4.37802 21.4308C4.48382 21.6322 4.65137 21.7943 4.8561 21.8935C5.06082 21.9927 5.29194 22.0237 5.51555 21.9819C5.73917 21.9401 5.94351 21.8278 6.0986 21.6614L16.031 11.0195C16.1496 10.8927 16.2353 10.7388 16.2808 10.5712C16.3262 10.4037 16.33 10.2275 16.2917 10.0582ZM6.88167 17.6999L7.4377 13.9957C7.47324 13.7586 7.42768 13.5165 7.30841 13.3085C7.18914 13.1006 7.00315 12.939 6.78057 12.8499L2.90339 11.2989L9.43571 4.30007L8.87967 8.00432C8.84414 8.2414 8.8897 8.48354 9.00897 8.69149C9.12824 8.89945 9.31423 9.06104 9.53681 9.15009L13.414 10.7011L6.88167 17.6999Z" fill="#0057FF"/>
</svg>
