<svg width="19" height="22" viewBox="0 0 19 22" fill="none" xmlns="http://www.w3.org/2000/svg">
<path d="M11.9314 20.8814C11.9314 21.1781 11.8136 21.4626 11.6038 21.6724C11.394 21.8821 11.1095 22 10.8128 22H7.82992C7.53326 22 7.24874 21.8821 7.03896 21.6724C6.82918 21.4626 6.71133 21.1781 6.71133 20.8814C6.71133 20.5847 6.82918 20.3002 7.03896 20.0904C7.24874 19.8807 7.53326 19.7628 7.82992 19.7628H10.8128C11.1095 19.7628 11.394 19.8807 11.6038 20.0904C11.8136 20.3002 11.9314 20.5847 11.9314 20.8814ZM9.32138 10.4412C9.61637 10.4412 9.90473 10.3537 10.15 10.1898C10.3953 10.026 10.5864 9.79302 10.6993 9.52049C10.8122 9.24797 10.8417 8.94808 10.7842 8.65877C10.7266 8.36945 10.5846 8.1037 10.376 7.89512C10.1674 7.68653 9.90167 7.54449 9.61235 7.48694C9.32304 7.42939 9.02316 7.45893 8.75063 7.57181C8.4781 7.6847 8.24516 7.87586 8.08128 8.12113C7.9174 8.3664 7.82992 8.65476 7.82992 8.94974C7.82992 9.3453 7.98706 9.72466 8.26676 10.0044C8.54647 10.2841 8.92582 10.4412 9.32138 10.4412ZM18.5992 14.2351L17.447 19.4207C17.3792 19.7302 17.2333 20.0172 17.0231 20.2543C16.813 20.4914 16.5455 20.6707 16.2464 20.7751C16.046 20.8455 15.8352 20.8815 15.6228 20.8814C15.2071 20.8811 14.8036 20.7409 14.4772 20.4834L12.0405 18.6442H6.60227L4.1656 20.4843C3.83909 20.7415 3.43558 20.8813 3.01997 20.8814C2.80753 20.8812 2.59667 20.8449 2.39635 20.7742C2.09722 20.6698 1.82982 20.4905 1.61964 20.2534C1.40947 20.0163 1.26353 19.7293 1.19573 19.4198L0.0435789 14.2351C-0.0175094 13.9568 -0.0143349 13.6683 0.0528609 13.3914C0.120057 13.1146 0.249504 12.8567 0.431358 12.6374L3.02556 9.52395C3.12481 8.35743 3.39654 7.21207 3.83188 6.12529C5.06886 3.02585 7.28088 1.08229 8.17949 0.390631C8.50628 0.137413 8.90797 0 9.32138 0C9.7348 0 10.1365 0.137413 10.4633 0.390631C11.3582 1.08229 13.5739 3.02585 14.8109 6.12529C15.2462 7.21207 15.518 8.35743 15.6172 9.52395L18.2114 12.6374C18.3933 12.8567 18.5227 13.1146 18.5899 13.3914C18.6571 13.6683 18.6603 13.9568 18.5992 14.2351ZM6.87819 16.407H11.7646C13.5832 13.0792 13.9086 9.90241 12.7331 6.95491C11.7823 4.56858 10.0858 2.97458 9.32138 2.34258C8.55701 2.97458 6.86048 4.56858 5.90967 6.95491C4.73328 9.90241 5.05954 13.0792 6.87819 16.407ZM4.77616 17.2199C4.03242 15.8375 3.50074 14.3512 3.19895 12.8108L2.26678 13.9293L3.25301 18.3702L4.77616 17.2199ZM16.375 13.9284L15.4429 12.8098C15.1411 14.3503 14.6094 15.8366 13.8657 17.2189L15.3879 18.3683L16.375 13.9284Z" fill="#0057FF"/>
</svg>
