<svg width="41" height="51" viewBox="0 0 41 51" fill="none" xmlns="http://www.w3.org/2000/svg">
<path d="M40.8099 42.9122C40.8389 40.3622 38.32 36.8917 36.7627 34.7593C34.5601 31.7416 31.4426 31.3205 29.3032 32.6749C27.3441 33.9142 26.4075 35.8271 25.6868 37.7086C25.5762 37.9966 25.2372 38.1372 24.9411 37.9783C14.4596 32.333 10.3537 20.6047 11.8741 18.6808C12.9674 17.2975 15.8282 17.7499 17.165 16.6001C18.0114 15.8723 18.5094 14.799 18.6222 13.6906C18.7226 13.2928 18.7674 12.8382 18.7549 12.3225C18.7849 12.3652 18.8091 12.4118 18.8397 12.454L18.7543 12.2982C18.7065 10.5769 18.0904 8.79257 17.3237 7.25064C15.8885 4.3598 14.612 1.70032 11.7177 0.24876C9.62385 -0.796441 6.61143 1.70007 4.76945 3.14037C3.53508 4.08281 1.98945 5.61725 1.24826 7.72474C-0.879334 12.1236 0.0642043 16.9691 1.47768 21.6588C5.35139 34.5109 15.969 49.5643 29.4779 50.1812C34.6946 51.3439 40.7629 47.0436 40.8099 42.9122ZM11.1505 1.38166C13.7231 2.67146 14.8845 5.18539 16.19 7.81461C16.7362 8.91371 17.1027 9.92622 17.3101 10.9115C17.9532 13.9668 16.9 14.6829 14.9579 15.5734C12.4837 10.7629 9.6544 6.22451 7.09873 2.95156C8.0696 2.24168 10.0891 0.845672 11.1505 1.38166ZM31.5781 49.1036C30.4712 49.1778 29.3012 48.9304 28.1081 48.3912C18.6635 44.13 10.8615 36.2278 6.70255 26.7086C5.10627 23.0552 4.01253 19.1304 2.95467 15.3351C2.37544 13.2557 1.7187 10.8983 2.26083 8.71912C2.78564 6.60668 4.33245 5.06729 5.53791 4.14794C6.2751 3.57408 6.03198 3.76348 6.09065 3.71754C8.57546 6.89712 11.3307 11.3114 13.7552 16.0065C12.911 16.2343 12.0484 16.3295 11.2737 16.3814C10.2133 16.4526 9.4518 17.4189 9.62426 18.4691C11.035 27.0623 16.674 34.9646 24.3404 39.093C25.3059 39.6144 26.4866 39.1624 26.8692 38.1621C27.248 37.1727 27.6941 36.181 28.3294 35.3171C32.888 40.2047 36.0241 46.63 36.4961 47.4038C34.9867 48.412 33.2957 49.0018 31.5781 49.1036ZM29.1797 34.3697C29.4253 34.1452 29.6854 33.9317 29.9802 33.7451C31.5559 32.7464 33.9443 33.0462 35.7399 35.5063C37.0357 37.2806 39.5681 40.7417 39.5434 42.8974C39.5285 44.2265 38.5671 45.6369 37.5008 46.6193C34.7091 41.3671 31.9836 37.357 29.1797 34.3697Z" fill="black"/>
</svg>
