<svg width="53" height="41" viewBox="0 0 53 41" fill="none" xmlns="http://www.w3.org/2000/svg">
<path d="M1.9949 40.0804L51.2153 39.6302C51.7991 39.6247 52.4708 39.5771 52.8183 39.1081C53.2349 38.546 52.8836 37.6857 52.2863 37.3213C51.7155 36.9729 51.014 36.9526 50.3422 36.9547C50.5074 35.5338 49.5934 10.9097 49.4854 0.760267C49.481 0.388523 49.1799 0.090068 48.8082 0.089185C46.1359 0.0840784 4.93434 0.00536703 2.12558 0C1.81005 0 1.51879 0.206154 1.46708 0.589956C0.768132 1.58444 0.162282 3.1691 0.228066 4.2564C0.915097 15.6122 0.732095 26.5299 0.00411407 37.9669C-0.0690648 39.1161 0.843353 40.0909 1.9949 40.0804ZM47.5026 1.44338C40.3959 7.67192 33.7973 15.253 26.9018 21.223C18.4987 15.4306 10.5959 8.03179 3.84087 1.36004L47.5026 1.44338ZM2.95919 3.89757C8.29396 10.2166 14.333 15.883 20.9143 20.7448C22.3589 21.8119 24.3767 23.0038 26.1388 23.1507C27.6391 23.2757 33.4648 17.5484 35.9371 14.5412C39.8621 10.6178 43.9243 6.41102 48.1572 2.6766C48.328 14.43 48.8544 24.7121 48.9936 36.2181C33.5834 36.6092 18.3926 36.3534 2.94059 36.7426C3.24793 26.5282 3.43491 15.5033 2.93734 3.69228L2.95919 3.89757Z" fill="black"/>
</svg>
