<svg width="31" height="45" viewBox="0 0 31 45" fill="none" xmlns="http://www.w3.org/2000/svg">
<path d="M30.4933 18.8504C31.2436 14.7642 31.0846 11.4204 30.0071 8.62669C28.2265 4.00751 23.3777 0.222579 17.3111 0.100293C12.43 -0.591611 5.54942 2.38409 2.87804 6.32417C0.048952 10.4969 -0.522041 15.903 0.419069 20.8557C1.36018 25.8083 3.68338 30.3887 6.2721 34.7146C7.74665 37.1787 9.3188 39.5893 11.0972 41.8438C11.8783 42.834 13.3016 44.0537 14.4745 44.5174C14.7194 44.6142 14.9897 44.6605 15.2663 44.6777C18.3426 45.2834 25.2043 44.982 25.2043 44.2177C25.2043 43.7844 22.7448 43.433 19.711 43.433C19.2097 43.433 18.7265 43.4434 18.2651 43.4614C21.2799 40.5568 23.4997 36.3636 25.459 32.639C25.6663 32.1759 29.1548 26.139 30.4933 18.8504ZM17.2527 42.985C16.2156 43.9344 15.4108 43.3014 14.5183 42.2989C9.84299 37.0499 6.12941 29.6494 3.99453 23.0499C3.09694 20.2747 2.14407 16.6397 2.74704 13.1339C3.29678 9.93839 4.32211 7.48049 5.79382 5.83022C8.81998 2.43539 13.8771 0.751926 18.5314 1.22348C23.1951 1.69803 27.4115 4.8255 29.0229 9.00577C31.5721 15.6173 28.0587 25.4373 24.7218 31.7744C22.7231 35.5741 20.4013 40.0976 17.2527 42.985Z" fill="black"/>
<path d="M9.68742 10.8227C7.9568 13.5018 8.34378 17.3895 10.5678 19.6743C11.9053 21.0478 13.8388 21.773 15.7604 21.773C21.0093 21.773 23.8013 16.4878 22.4525 12.4394C20.6212 6.94325 12.8264 5.9645 9.68742 10.8227ZM18.0614 18.5032C16.8739 19.7472 15.1156 20.3866 13.4034 20.2907C9.60472 18.8242 8.74474 14.2265 10.5733 11.3955C11.7694 9.54366 13.9774 8.47533 16.4754 8.80403C17.6016 9.9291 18.8009 11.0636 19.3024 12.3806C20.0839 14.4333 19.5781 16.9144 18.0614 18.5032Z" fill="black"/>
</svg>
