<svg width="26" height="20" viewBox="0 0 26 20" fill="none" xmlns="http://www.w3.org/2000/svg">
<path d="M25.485 7.23354L22.9528 2.17508C22.8368 1.94164 22.6759 1.73335 22.4794 1.56212C22.2828 1.3909 22.0544 1.2601 21.8073 1.17719C21.5601 1.09429 21.2991 1.06091 21.039 1.07896C20.779 1.09702 20.525 1.16615 20.2917 1.28241L17.9926 2.43197L13.3666 0.932287C13.1279 0.855904 12.8713 0.855904 12.6326 0.932287L8.00659 2.43197L5.70747 1.28241C5.47415 1.16615 5.2202 1.09702 4.96015 1.07896C4.70009 1.06091 4.43903 1.09429 4.19188 1.17719C3.94473 1.2601 3.71635 1.3909 3.51979 1.56212C3.32323 1.73335 3.16234 1.94164 3.04632 2.17508L0.514121 7.23354C0.39786 7.46686 0.328726 7.7208 0.310672 7.98086C0.292617 8.24091 0.325996 8.50198 0.408901 8.74913C0.491805 8.99627 0.622609 9.22466 0.793834 9.42122C0.965059 9.61778 1.17335 9.77867 1.40679 9.89468L4.05207 11.2178L9.12838 14.9283C9.24863 15.0163 9.38416 15.0812 9.52809 15.1198L15.6776 16.7067C15.7748 16.7315 15.8748 16.7442 15.9751 16.7444C16.2907 16.7441 16.5932 16.6186 16.8162 16.3953L22.0354 11.1762L24.5973 9.89468C25.0679 9.6595 25.4258 9.24701 25.5923 8.74795C25.7588 8.2489 25.7202 7.70415 25.485 7.23354ZM19.7204 10.1248L16.9908 7.54597C16.7651 7.33249 16.465 7.2157 16.1544 7.22051C15.8438 7.22533 15.5474 7.35139 15.3285 7.57176C14.3703 8.53782 12.8429 9.23907 11.2807 8.51898L15.0686 4.84912H17.3221L19.8821 9.97006L19.7204 10.1248ZM4.9973 3.58946L6.31349 4.24706L4.13141 8.6013L2.81522 7.9437L4.9973 3.58946ZM15.6101 14.2321L10.3444 12.8762L6.1786 9.83517L8.75147 4.6934L12.9996 3.31571L13.1672 3.37027L9.23054 7.19089L9.21764 7.20279C9.00785 7.4128 8.84787 7.66722 8.74949 7.94729C8.65111 8.22735 8.61684 8.52593 8.6492 8.821C8.68157 9.11608 8.77974 9.40012 8.93648 9.65221C9.09323 9.90429 9.30455 10.118 9.55487 10.2775C11.6328 11.6056 14.1174 11.4747 16.1338 10.0068L18.0382 11.807L15.6101 14.2321ZM21.8588 8.6013L19.6767 4.24706L20.9929 3.58946L23.1701 7.9437L21.8588 8.6013ZM12.0623 18.2322C12.0232 18.3836 11.9547 18.5258 11.8607 18.6506C11.7667 18.7755 11.649 18.8807 11.5143 18.9601C11.3797 19.0394 11.2307 19.0915 11.0759 19.1134C10.9211 19.1352 10.7635 19.1263 10.6122 19.0872L7.97386 18.4058C7.82807 18.3681 7.69075 18.3032 7.56918 18.2144L5.156 16.4469C4.90918 16.2577 4.74621 15.9794 4.70196 15.6716C4.6577 15.3638 4.73568 15.0509 4.91921 14.7998C5.10274 14.5488 5.37723 14.3795 5.68397 14.3283C5.9907 14.277 6.3053 14.3479 6.56046 14.5256L8.78916 16.1543L11.2073 16.7781C11.3591 16.8172 11.5017 16.8858 11.6269 16.9801C11.7521 17.0744 11.8574 17.1925 11.9368 17.3276C12.0163 17.4627 12.0683 17.6121 12.0898 17.7674C12.1113 17.9226 12.102 18.0806 12.0623 18.2322Z" fill="#0057FF"/>
</svg>
