<svg width="80" height="80" viewBox="0 0 80 80" fill="none" xmlns="http://www.w3.org/2000/svg">
<path d="M16.9036 79.2944V65.1572C16.7783 65.0576 14.1752 62.9871 14.3361 63.1151L14.3346 63.2022C13.9608 63.0895 15.0231 63.178 0.932861 63.1488C0.417844 63.1488 0 63.5666 0 64.0816V78.9819C0 79.4969 0.417844 79.9148 0.932861 79.9148H14.0373L14.037 79.9303L16.9036 79.2944ZM13.1366 78.0491H1.86572V65.0145H13.1366V78.0491Z" fill="black"/>
<path d="M37.3828 79.0636V51.3483L35.3044 49.2342L35.3005 49.4465C34.7816 48.9992 35.1354 49.3056 21.5443 49.2117C21.0293 49.2117 20.6115 49.6296 20.6115 50.1446V78.9904C20.6115 79.5054 21.0293 79.9233 21.5443 79.9233C24.1269 79.9216 34.319 79.9304 34.7433 79.9142L34.7417 79.9986L37.3828 79.0636ZM33.7651 78.0576H22.4772V51.0775H33.7651V78.0576Z" fill="black"/>
<path d="M56.438 35.1731C56.2668 34.9672 56.0187 34.8281 55.7301 34.8281H42.5765C42.0615 34.8281 41.6436 35.246 41.6436 35.761V78.9738C41.6436 79.4889 42.0615 79.9067 42.5765 79.9067H55.7301C56.0248 79.9067 56.2765 79.7612 56.4475 79.5478L58.8878 78.6356L58.916 37.6401L56.4381 35.1622L56.438 35.1731ZM54.7972 78.041H43.5093V36.6938H54.7972V78.041Z" fill="black"/>
<path d="M76.7625 20.3037L76.7585 20.5664C76.5992 20.2798 76.3049 20.0781 75.9541 20.0781H62.8005C62.2855 20.0781 61.8676 20.496 61.8676 21.011V78.9796C61.8676 79.4946 62.2855 79.9124 62.8005 79.9124H75.8528L75.8526 79.9279L75.896 79.9124H75.9541C76.1878 79.9124 76.3951 79.8183 76.5589 79.6762L79.7122 78.5514L79.6949 23.2362L76.7625 20.3037ZM75.0212 78.0467H63.7333V21.9438H75.0212V78.0467Z" fill="black"/>
<path d="M71.1085 11.1978C73.1719 9.83738 74.27 6.97229 73.6038 4.49134C73.0963 2.60163 71.5669 1.09363 69.7986 0.581344C67.2885 -0.763584 64.0332 0.334129 62.4537 2.75286L62.5335 2.5992C62.0559 3.08186 61.9635 3.65571 61.91 3.79959L61.8461 3.92258C61.8381 3.9657 61.8384 4.01034 61.8312 4.05376C61.3705 5.48904 61.4763 7.22582 62.5014 8.71928C58.7473 12.3065 55.4361 15.0139 52.2088 18.1111C48.7749 15.1887 42.6476 18.3176 43.2106 23.2977C43.1979 23.2998 43.1852 23.3025 43.1725 23.305C43.1404 23.1746 34.0282 25.1389 27.369 26.9927C26.8428 26.1042 26.092 25.3693 25.2142 24.8868C21.2172 21.2665 13.3123 26.1407 17.0777 32.7945C12.6192 39.8775 12.596 40.0595 8.68456 45.7586C6.55106 44.7902 3.94656 45.4809 2.28602 47.2016C-0.167104 49.7435 0.609094 54.593 2.98825 56.5084C4.92374 58.0668 7.76802 58.263 9.83143 56.9029C12.5998 55.0781 13.7462 50.4476 10.7474 47.5934C10.5799 47.3277 10.3968 47.0802 10.1934 46.8579C14.1596 41.0803 14.2576 40.7765 18.2988 34.3572C20.3635 36.2964 23.3901 36.4333 25.4709 35.0617C27.4283 33.7711 28.4975 31.1298 28.0356 28.7436C33.0688 27.348 38.1987 26.1482 43.3261 25.1761C44.7749 29.4871 49.3081 30.6978 52.3007 28.7248C55.0592 26.9061 56.1403 22.401 53.389 19.5671C56.7572 16.3248 59.6443 14.0175 63.6384 10.213C65.6853 12.4055 68.9212 12.6399 71.1085 11.1978ZM9.74527 49.982C10.4281 52.7912 7.57695 55.781 4.51857 54.1738C3.6598 53.7232 3.0221 52.9932 2.76824 52.1708C1.39588 47.7239 8.45457 44.6817 9.74527 49.982ZM25.0889 28.327C25.5371 30.166 24.3698 32.2686 22.5915 32.8261C20.8307 33.382 18.65 32.2621 18.1131 30.517C16.741 26.0775 23.7965 23.0199 25.0889 28.327ZM52.1892 21.6536C52.8721 24.4629 50.0189 27.453 46.9613 25.8442C46.1038 25.3936 45.4661 24.6636 45.2122 23.8412C43.8417 19.4003 50.8974 16.3488 52.1892 21.6536ZM64.4756 3.17981C65.5032 2.11577 67.0519 1.63719 68.3175 1.97608C69.452 2.28339 70.2391 3.21382 70.5926 4.66535C71.2738 7.46025 68.4288 10.4667 65.3659 8.85715C63.1337 7.6858 62.8137 4.90247 64.4756 3.17981Z" fill="black"/>
</svg>
