<svg width="72" height="80" viewBox="0 0 72 80" fill="none" xmlns="http://www.w3.org/2000/svg">
<path d="M0.130852 16.9852C2.3 20.6535 -0.71505 34.3536 1.6802 42.8664C6.00861 58.2458 19.2162 69.6739 33.6659 79.3023C35.0748 80.2411 36.9111 80.2341 38.3038 79.2715C54.6526 67.9702 64.9015 61.7974 68.5822 51.8732C71.7772 43.2589 69.8304 32.9832 71.6665 23.9667C71.2589 23.1874 66.7338 14.874 66.5011 14.786C66.4741 14.7758 66.4463 14.7803 66.4189 14.7726C56.1609 7.57471 46.165 3.01516 34.0418 0.0129886C33.9379 -0.0128038 33.6007 0.00346596 33.5167 0.0300074C21.8664 3.72023 12.0019 10.4564 0.551281 15.519C-0.110142 15.8114 -0.0726873 16.6412 0.130852 16.9852ZM33.8413 1.96409C45.4798 4.87659 55.1298 9.27312 64.9998 16.1514C62.2597 24.7974 66.8354 36.1679 63.8512 45.1885C59.4771 58.404 45.5415 67.2445 33.6739 74.1808C18.6462 67.8992 7.39789 56.0334 3.5447 42.342C1.33592 34.4966 4.07442 21.9735 2.20597 16.8886C13.5289 11.7665 22.7659 5.52493 33.8413 1.96409Z" fill="black"/>
<path d="M13.0936 24.4258C14.3031 26.4734 12.5463 34.8982 13.9949 40.0478C16.4879 48.9046 23.7701 56.5567 33.4752 60.5183C33.9594 60.7171 34.2715 60.4736 34.536 60.3185C42.1491 55.8706 50.7719 50.3383 53.582 41.8436C55.5679 35.8432 52.6006 28.5686 54.4109 23.7898C54.6006 23.29 54.3485 22.7309 53.8486 22.5418C53.8193 22.5306 53.7892 22.5352 53.7596 22.5271C47.5974 19.6242 41.4631 16.7566 34.2537 13.6119C34.1244 13.556 33.8124 13.4996 33.5742 13.5766C26.9406 15.6775 20.5327 18.6892 13.4081 23.0542C12.9233 23.3508 12.8305 23.9806 13.0936 24.4258ZM51.744 41.2347C49.1427 49.0968 40.8037 54.4055 33.7575 58.5289C24.8291 54.7414 18.1524 47.672 15.8595 39.5234C14.5642 34.9237 16.1361 27.6313 15.1121 24.2923C21.699 20.3136 27.6767 17.514 33.8194 15.5362C40.6196 18.5078 46.4768 21.2388 52.3221 23.9914C50.8914 29.2576 53.4682 36.0244 51.744 41.2347Z" fill="black"/>
<path d="M43.7298 28.0984L31.7473 41.0119C30.6277 42.2202 30.3531 42.1558 29.4555 41.0958L24.0567 34.7055C23.7119 34.2971 23.1018 34.2454 22.6927 34.5908C22.2842 34.9356 22.2325 35.5464 22.578 35.9548L27.9767 42.3451C29.7252 44.419 31.3513 44.2866 33.1668 42.3293L45.1493 29.4158C45.513 29.0237 45.4903 28.4111 45.0983 28.0474C44.7062 27.6843 44.0942 27.7064 43.7298 28.0984Z" fill="black"/>
</svg>
