<svg width="81" height="80" viewBox="0 0 81 80" fill="none" xmlns="http://www.w3.org/2000/svg">
<path d="M2.55295 72.2788C2.75603 72.6278 3.15027 72.8623 3.65846 72.8285C4.58014 72.7602 5.02706 71.7562 4.47636 71.0592C4.21915 70.7233 1.87252 71.1308 2.55295 72.2788Z" fill="black"/>
<path d="M49.2364 21.9672H57.4446C57.9591 21.9672 58.3765 21.5497 58.3765 21.0352V14.4398C58.3765 13.9253 57.9591 13.5078 57.4446 13.5078H49.2364C48.7219 13.5078 48.3044 13.9253 48.3044 14.4398V21.0352C48.3044 21.5497 48.7219 21.9672 49.2364 21.9672ZM50.1684 15.3718H56.5126V20.1032H50.1684V15.3718Z" fill="black"/>
<path d="M49.2777 33.1949H57.4858C58.0004 33.1949 58.4178 32.7775 58.4178 32.263V25.6663C58.4178 25.1518 58.0004 24.7344 57.4858 24.7344H49.2777C48.7631 24.7344 48.3457 25.1518 48.3457 25.6663V32.263C48.3457 32.7775 48.7631 33.1949 49.2777 33.1949ZM50.2096 26.5983H56.5539V31.331H50.2096V26.5983Z" fill="black"/>
<path d="M57.6401 43.9449C58.1546 43.9449 58.5721 43.5275 58.5721 43.013V36.4163C58.5721 35.9018 58.1546 35.4844 57.6401 35.4844H49.432C48.9174 35.4844 48.5 35.9018 48.5 36.4163V43.013C48.5 43.5275 48.9174 43.9449 49.432 43.9449H57.6401ZM50.3639 37.3483H56.7082V42.081H50.3639V37.3483Z" fill="black"/>
<path d="M41.9043 13.1953H13.6515C13.137 13.1953 12.7195 13.6128 12.7195 14.1273V34.1246C12.7195 34.6392 13.137 35.0566 13.6515 35.0566H41.9043C42.4188 35.0566 42.8363 34.6392 42.8363 34.1246V14.1273C42.8363 13.6128 42.4188 13.1953 41.9043 13.1953ZM40.9724 33.1927H14.5835V15.0593H40.9724V33.1927Z" fill="black"/>
<path d="M24.9228 29.3046C27.7858 28.3492 30.0548 27.0745 32.2439 26.0379C32.8719 25.7394 32.967 24.8787 32.4089 24.4542C29.9007 22.5441 27.9037 20.9906 25.1922 18.9267C24.5808 18.4582 23.6959 18.8996 23.6959 19.6682C23.832 28.4628 23.3889 28.6762 24.083 29.176C24.2432 29.2913 24.6251 29.4014 24.9228 29.3046Z" fill="black"/>
<path d="M61.4781 18.2936H65.8212C67.0539 18.2936 67.0547 16.4297 65.8212 16.4297H61.4781C60.9636 16.4297 60.5461 16.8471 60.5461 17.3617C60.5461 17.8762 60.9636 18.2936 61.4781 18.2936Z" fill="black"/>
<path d="M61.171 28.1139H65.1901C66.4229 28.1139 66.4236 26.25 65.1901 26.25H61.171C60.6565 26.25 60.239 26.6674 60.239 27.182C60.239 27.6965 60.6565 28.1139 61.171 28.1139Z" fill="black"/>
<path d="M65.4841 38.2422H61.9394C61.4249 38.2422 61.0074 38.6596 61.0074 39.1742C61.0074 39.6887 61.4249 40.1061 61.9394 40.1061H65.4841C65.9986 40.1061 66.416 39.6887 66.416 39.1742C66.416 38.6596 65.9986 38.2422 65.4841 38.2422Z" fill="black"/>
<path d="M14.2644 5.35668C14.537 4.30098 13.7914 3.32648 12.7002 3.32648C12.7026 3.32648 12.6795 3.32648 12.6686 3.32648C11.6179 2.55821 10.3333 4.33468 11.0401 5.67947C11.75 7.03873 13.8544 6.95323 14.2644 5.35668Z" fill="black"/>
<path d="M18.3722 6.62837C20.5312 6.62837 20.629 3.32036 18.4329 3.32036C18.4329 3.32036 18.4123 3.32036 18.4013 3.32036C18.0628 3.0728 17.5883 3.07766 17.2546 3.35555C15.9424 4.44821 16.6152 6.62837 18.3722 6.62837Z" fill="black"/>
<path d="M24.8425 6.46623C26.3684 5.72232 25.9669 3.32689 24.1654 3.32689C24.1544 3.32689 24.1423 3.32689 24.1326 3.32689C23.0864 2.55817 21.7987 4.33147 22.5041 5.67988C22.9389 6.51245 24.0119 6.8729 24.8425 6.46623Z" fill="black"/>
<path d="M60.1531 57.5381C60.5122 58.1122 60.8603 58.7998 61.2295 59.4627C57.6011 61.9407 54.8853 66.6199 54.5103 71.1827C54.4171 72.2844 56.0014 72.5963 56.3293 71.5346C57.7055 67.0896 62.1772 65.1443 64.5812 64.4041C66.1459 66.5811 66.3357 67.199 67.1041 67.0847C67.4353 67.0398 67.7169 66.8226 67.8431 66.5132C71.478 57.5995 72.2881 58.022 71.8294 57.1206C71.6899 56.8464 71.4229 56.6583 71.1183 56.6182C67.5118 56.151 64.944 55.9423 60.9055 56.1146C60.1938 56.1433 59.776 56.9332 60.1531 57.5381Z" fill="black"/>
<path d="M72.0947 48.3388C72.2817 35.1286 72.1437 21.7793 72.3669 8.58457C72.3969 6.80723 72.42 4.97803 71.8962 3.31757C71.1967 1.10044 69.6761 0 68.246 0H9.05238C7.46512 0 6.16545 1.23778 6.09507 2.81291C5.21528 19.8918 5.1995 34.7172 6.04531 48.1325C6.14073 49.7202 7.33701 50.9877 8.895 51.2376C8.08544 53.1478 7.29629 55.0668 6.55984 56.985C5.90895 58.6806 5.2692 60.8251 5.45775 63.2071C3.70254 63.0408 2.12059 64.2714 2.40002 66.0805C2.33483 66.2068 0.277079 70.3243 0.0845742 70.7789C-0.397832 71.9152 1.31969 72.6392 1.80047 71.507C2.16803 70.6392 2.80676 69.4685 3.45402 68.1803C5.80798 71.2575 9.87246 73.1348 13.4974 74.5153C14.0826 74.7379 14.5954 74.9038 15.0524 75.027C14.3349 76.2962 13.5805 77.5579 13.0072 78.6267C12.4242 79.7169 14.075 80.5833 14.6503 79.5077C15.3207 78.2554 16.3262 76.6005 17.0749 75.2244C18.4529 75.0461 19.3003 73.9275 18.7831 72.2725C35.1975 64.4332 35.3642 64.5138 36.6977 63.207C37.2025 62.7086 37.9084 61.8879 38.1494 61.227C38.2034 61.0791 38.2459 60.9227 38.2817 60.7658C38.8836 59.7607 38.78 58.6973 38.2554 57.6549C36.7279 54.6192 33.1589 55.9156 30.1625 57.0117C29.237 57.3283 28.2525 57.7557 27.3356 58.2019C28.1775 56.185 28.1145 56.3671 29.9919 51.8256C35.0805 51.9256 40.0855 52.029 45.0534 52.029C46.7914 52.029 48.5513 52.0106 50.3336 51.9817C47.8957 55.014 46.4947 58.9039 46.7813 63.2709C46.7479 65.8501 47.2022 68.3585 48.7854 71.3575C54.9384 83.0138 73.734 82.6844 79.2894 69.3102C82.2376 62.2129 79.8869 52.6767 72.0947 48.3388ZM77.539 62.1958C77.539 70.177 71.0467 76.6693 63.0655 76.6693C55.0843 76.6693 48.5908 70.177 48.5908 62.1958C48.5908 54.2146 55.0843 47.7223 63.0655 47.7223C71.0467 47.7223 77.539 54.2146 77.539 62.1958ZM9.05238 1.86394H68.246C68.8442 1.86394 69.3405 2.34813 69.3539 2.94154C69.3866 4.55649 69.4137 6.15353 69.44 7.74793C69.1088 7.61182 71.8708 7.7042 7.73815 7.67664C7.73785 7.67664 7.73846 7.67664 7.73815 7.67664C7.80596 6.09855 7.87323 4.5197 7.95658 2.90149C7.98328 2.32022 8.46383 1.86394 9.05238 1.86394ZM31.3991 58.5468C33.7193 57.6949 35.8636 57.0517 36.5905 58.4922C37.2288 59.7609 36.4688 60.2687 35.1743 61.0551C30.9365 63.5978 22.6418 67.8085 16.1174 70.0969C15.0908 70.4553 15.408 72.0053 16.5163 71.8931C16.7822 72.1764 17.1295 72.9781 17.1173 73.1938C16.8286 73.7668 14.7535 72.9988 14.16 72.7727C10.8497 71.5119 6.79621 69.6873 4.74322 66.8205C4.30601 66.2078 3.95629 65.5575 4.53693 65.2016C4.84114 65.0126 5.28027 65.0093 5.80428 65.1773C5.81505 65.2158 5.81922 65.2529 5.83052 65.2914C5.94945 65.698 6.32199 65.9613 6.72488 65.9613C7.34298 65.9613 7.79433 65.3661 7.61923 64.7672C6.9967 62.6484 7.20057 60.5199 8.30001 57.6524C9.41158 54.757 10.619 51.8422 11.8883 48.9916C12.2208 48.2478 12.5339 47.5439 12.9878 46.9408C13.4356 46.3438 14.1552 45.9118 14.6369 45.9482C14.9609 45.9688 15.3201 46.4372 15.3226 46.8425C15.323 46.905 15.3471 46.9595 15.3592 47.0184C15.1271 47.552 14.9595 47.876 14.7255 48.6786C14.3801 49.8599 16.1686 50.3854 16.5142 49.2004C16.772 48.319 16.924 48.1521 17.2581 47.3061C17.711 46.144 18.4363 44.7068 19.6875 44.7068H19.6997C20.0424 44.7107 20.3778 44.9101 20.5296 45.1611C20.0952 46.117 19.8279 47.0316 19.5298 47.8218C19.1122 48.9357 19.0205 49.1784 18.8466 49.6251C18.6046 50.2416 19.0659 50.8956 19.7142 50.8956C20.5083 50.8956 20.6328 50.192 21.0042 49.1943C21.2666 48.4863 21.2882 48.4664 21.5867 47.6022C22.1339 46.0316 22.3101 45.1963 23.4154 44.9931C23.7871 44.9257 24.3209 45.1669 24.5586 45.4554C24.2426 46.2573 23.0287 49.6547 22.9215 49.9831C22.5431 51.1592 24.3134 51.7283 24.6957 50.5583C26.1941 45.935 27.5247 43.2579 28.9611 40.1828C29.4166 39.3986 30.4271 38.1083 31.1952 38.5919C32.1366 39.1858 31.4791 40.8588 31.0569 42.0237C27.0305 53.1555 26.8622 50.8184 24.6848 59.2458C24.6442 59.4134 24.6688 59.4532 24.6532 59.8282C24.6122 60.9611 25.4801 61.3785 26.448 60.7893C27.636 60.0576 31.0718 58.6782 31.3991 58.5468ZM30.7578 49.9769C33.6638 42.8377 34.7259 40.7459 33.1623 38.0288C32.1391 36.0941 29.3302 35.8046 27.3096 39.3212C26.4509 41.1631 25.8686 42.393 25.3077 43.6666C24.174 42.9459 22.9108 42.9303 21.7469 43.7077C20.3701 42.3138 17.8885 42.5462 16.3754 44.8865C14.8799 43.3285 12.6456 44.2859 11.4964 45.822C10.9175 46.5938 10.5462 47.4262 10.1858 48.2332C10.0073 48.634 9.84063 49.0429 9.66475 49.4459C9.56258 49.4415 9.45815 49.4336 9.35576 49.4297C8.58761 49.3921 7.95173 48.7732 7.90562 48.0184C7.17577 36.4356 7.0934 23.7855 7.65655 9.52412C7.78294 9.53564 69.1695 9.58985 69.4681 9.45488C69.6699 22.8153 69.6413 35.4162 69.3857 47.0321C63.621 44.7597 56.9494 45.7389 52.1364 50.0864C44.8744 50.251 38.3142 50.1242 30.7578 49.9769Z" fill="black"/>
</svg>
