<svg width="73" height="80" viewBox="0 0 73 80" fill="none" xmlns="http://www.w3.org/2000/svg">
<path d="M51.335 71.0272C52.0113 75.267 56.5541 77.7379 60.4821 75.9952C64.6269 77.2801 68.5942 78.7176 72.739 80.0024C72.3975 78.6488 72.0561 77.2948 71.7147 75.9412C67.3662 74.6791 62.9434 73.4584 58.5917 72.1983C60.1027 66.8912 58.146 56.0876 56.8232 52.8653C60.075 54.683 61.3652 55.1907 66.1616 56.0402C66.6614 56.1281 67.1272 55.7933 67.2131 55.3053C67.3005 54.8115 66.9715 54.3413 66.4782 54.2538C61.1436 53.3091 60.5106 52.8752 55.7051 50.1483C55.4582 50.0083 55.1782 50.0092 54.9326 50.1049C54.191 49.3712 53.3333 48.8431 52.5081 48.9408C50.7973 49.1265 50.4867 51.8311 50.2693 53.7464C48.7998 53.4125 47.5233 53.1036 46.2104 52.7877C41.334 51.6161 39.5626 53.1265 33.9073 49.45C33.1695 48.9705 26.2097 42.0389 22.4839 45.068C19.5208 47.4824 23.3961 52.2396 26.9344 54.9036C28.4113 56.0142 30.0602 57.2854 31.5397 59.0248C31.1275 59.3719 29.4208 59.9201 26.1151 58.9986C23.6791 58.3202 21.079 57.8718 18.7174 57.0787L4.7396 52.3919C1.34395 51.2517 -0.2261 53.0372 0.0261959 54.9249C0.169016 55.9871 0.914551 57.0054 1.65225 57.8076C11.4659 71.1884 30.6253 77.6967 51.335 71.0272ZM57.5092 68.2434C57.4618 68.9063 56.8928 71.9327 56.6326 72.3714C56.046 72.0673 54.9043 70.8062 54.6799 68.8466C55.6292 68.6552 56.5726 68.4543 57.5092 68.2434ZM52.7751 50.7579C53.3145 50.9029 54.7679 52.1945 55.536 54.8008C54.4651 54.6301 53.2886 54.4021 52.0835 54.1457C52.0474 53.8971 52.4247 51.2295 52.7751 50.7579ZM4.16305 54.1121L18.1402 58.7989C20.6258 59.6336 23.1495 60.0577 25.6283 60.7471C31.4904 62.3768 37.8722 60.8632 28.0255 53.4528C25.6659 51.6782 22.0134 47.7967 23.5832 46.507C27.0016 44.8742 30.9658 49.703 32.9184 50.9718C39.0019 54.9273 41.17 53.4407 45.7857 54.5527C48.7918 55.2762 52.9455 56.282 55.9834 56.7077C56.0034 56.7107 56.0216 56.703 56.0414 56.7042C56.7719 59.8332 57.1029 63.0577 57.4019 66.4086C38.0319 70.8221 16.7263 71.2747 3.02177 56.6608C2.33721 55.9309 1.90183 55.2568 1.82496 54.6839C1.67264 53.5469 3.0499 53.74 4.16305 54.1121Z" fill="black"/>
<path d="M17.7852 0.342212C17.5244 0.0246373 17.0311 -0.0245467 16.8235 0.00904191C12.3174 0.781712 6.87271 4.05906 5.65936 8.60884C5.62697 8.73015 5.25997 10.971 5.25176 11.092C5.22761 11.346 5.59054 11.9027 5.73571 12.0962C9.9081 17.2913 13.6197 22.5642 17.891 27.7531C17.1221 28.6363 20.2143 25.0369 12.6305 33.938C12.489 34.1043 12.4305 34.3072 12.4267 34.5098C12.4256 34.5219 12.4185 34.5317 12.4179 34.5441C12.3742 35.4148 11.3451 43.0352 10.7491 45.4926C10.664 45.8447 10.7957 46.2133 11.0852 46.4319C11.3798 46.6528 11.7734 46.6712 12.08 46.4945C13.8843 45.4673 19.9923 42.6161 21.7638 41.7368C21.9132 41.663 22.0202 41.546 22.1056 41.416C22.1086 41.4128 22.1129 41.4119 22.1158 41.4084C23.1921 40.1534 24.433 38.7008 25.7764 37.099C29.0623 40.9204 32.3517 44.7495 35.3398 48.5358C36.0557 49.4026 37.6704 49.4753 38.7968 49.4753C42.1224 49.4753 47.914 46.1345 50.2002 40.7834C50.6684 39.6942 50.1625 39.6181 50.0383 39.3325C48.1062 36.9739 37.181 23.7787 37.0778 23.6541C48.2242 10.4465 44.3798 15.0018 45.2115 14.0164C47.1658 11.7325 45.8571 7.74532 43.4405 6.14787C41.6814 4.93558 37.9689 4.16979 36.4167 5.94112C36.3105 6.06614 28.8419 14.8529 29.311 14.3011C24.7308 8.76714 20.9487 4.20047 17.7852 0.342212ZM16.7051 1.88489C17.9313 3.37943 19.1828 4.88785 20.4219 6.38889C20.4134 6.39539 20.4027 6.39716 20.3944 6.40425L17.7102 8.72344C17.3303 9.0507 17.2884 9.62371 17.6157 10.003C17.9439 10.383 18.5185 10.4236 18.8952 10.0963L21.5735 7.78419C22.5539 8.97037 23.5222 10.1495 24.5069 11.3386L21.8411 13.6265C21.4607 13.9526 21.417 14.5256 21.7431 14.906C22.0685 15.2849 22.6398 15.3314 23.0226 15.004L25.6635 12.7386L28.1172 15.7044C28.1017 15.7247 28.0842 15.7433 28.0704 15.7649L20.4959 24.6973C11.3527 13.429 8.42824 9.88623 7.51483 8.76775C8.53568 5.68445 12.4414 2.75828 16.7051 1.88489ZM17.1844 41.9264C17.0173 41.5232 14.5713 39.562 13.6133 39.4991C13.7938 38.2539 13.9529 37.0774 14.0647 36.1775C14.5999 36.1716 15.1323 36.1881 15.5458 36.3765C15.8677 36.523 16.1135 36.8444 16.0727 37.0641C15.9629 37.6565 16.4519 38.1798 17.0137 38.1369C18.2583 38.0612 19.4925 38.8037 19.8395 40.6546C18.8933 41.1098 18.2088 41.4356 17.1844 41.9264ZM41.158 31.4339L38.6621 33.4583C38.2728 33.7738 38.2137 34.3456 38.5292 34.7343C38.843 35.1204 39.4145 35.1851 39.8057 34.8666L42.3139 32.8322C43.6247 34.4171 44.9389 36.0041 46.245 37.5881L42.9921 40.1253C42.5969 40.4337 42.5266 41.0043 42.835 41.3989C43.1454 41.7964 43.7142 41.8632 44.1086 41.5572L47.402 38.9881C47.751 39.4082 48.0969 39.8282 48.441 40.2482C46.7601 44.004 43.1546 46.82 39.1119 47.5735C35.3851 43.031 32.7595 39.8133 28.2176 34.208C28.8604 33.4452 31.4853 30.3003 35.9118 25.0916L37.0515 26.468C36.7211 26.6264 37.2565 26.2741 33.7307 29.198C33.3467 29.5194 33.2965 30.0924 33.6185 30.4764C33.9416 30.8611 34.5155 30.9089 34.8968 30.5874C38.4198 27.5929 37.9378 28.0923 38.1525 27.798C39.1578 29.0122 40.1549 30.2218 41.158 31.4339ZM21.4144 39.4377C21.0422 38.2834 20.2652 37.3199 19.0822 36.7596C20.2344 35.4184 19.5528 36.2024 38.9453 13.5461C40.4635 14.5359 40.8055 14.514 41.8704 15.1559C39.342 18.1226 24.6715 35.6302 21.4144 39.4377ZM35.2873 10.0614C36.0315 10.9895 36.7173 11.7657 37.4961 12.4483C34.3983 16.0638 17.6251 35.6723 17.5193 35.7953C16.8722 34.7728 15.8441 34.4284 14.6419 34.3749C21.531 26.2938 25.8556 21.1827 35.2873 10.0614Z" fill="black"/>
</svg>
