<svg width="84" height="80" viewBox="0 0 84 80" fill="none" xmlns="http://www.w3.org/2000/svg">
<path d="M22.9365 45.5933C23.9912 46.3811 25.3706 45.6031 26.0231 45.4991C26.8465 45.3707 27.5141 46.179 29.4402 46.179C30.6548 46.179 31.4727 45.813 31.7036 45.7475C33.1426 46.0985 34.3329 45.9812 35.4784 45.5313C37.0408 46.0121 38.7599 45.3037 39.3561 45.2942C39.7975 45.2942 40.3863 45.5 40.9861 45.5657C41.9765 45.6637 43.0183 45.2389 43.5399 44.5138C44.3153 43.4355 44.2424 41.8721 44.1896 40.7309C44.1553 40.2488 44.2074 38.6495 43.5587 34.7826C42.9693 31.2549 42.1612 26.4214 37.8229 24.9334C35.4576 24.119 32.7191 24.6757 30.8377 26.3095C28.793 25.9275 26.7734 27.051 25.6134 28.4398C23.8853 30.5109 23.4329 33.1664 23.2331 35.2489C22.5244 42.5831 21.2304 44.3238 22.9365 45.5933ZM28.5844 41.348C27.7469 40.1499 27.2332 38.6104 26.9868 36.7104C30.0697 36.0869 34.0555 33.5656 36.1916 30.9596C36.667 32.6707 37.4542 34.2616 38.892 35.2997C38.7657 37.04 38.5684 38.8484 37.8882 40.4406C37.0726 42.3444 35.6606 43.505 34.4233 43.8653C32.1875 44.515 29.7934 43.0886 28.5844 41.348ZM27.0964 29.6764C27.917 28.6911 29.4377 27.8365 30.8126 28.2927C31.1658 28.4046 31.5491 28.3128 31.8067 28.0476C33.154 26.6602 35.3671 26.1336 37.197 26.7582C40.447 27.8742 41.1168 31.882 41.656 35.1019C41.8949 36.5294 42.7284 42.336 41.9727 43.3865C41.8659 43.5335 41.4964 43.6667 41.1935 43.6466C40.3462 43.5525 39.7917 43.1455 38.2239 43.5352C40.239 41.1802 40.6325 38.1775 40.8416 35.1345C40.8439 35.1017 40.8303 35.073 40.8293 35.0408C40.9306 34.6295 40.7678 34.1876 40.3804 33.9708C38.5442 32.9415 37.9523 30.5712 37.5853 28.1633C37.4312 27.1474 35.998 27.0477 35.7052 28.0351C34.9612 30.5601 29.2024 34.9542 25.2096 34.9227C25.4084 33.2098 25.8339 31.1888 27.0964 29.6764ZM24.0789 42.9918C24.3973 41.1798 24.74 39.0636 25.0021 36.8004C25.0217 36.8048 25.038 36.8159 25.0581 36.8191C25.4101 39.6979 26.3398 42.3016 28.5818 44.1528C27.3113 43.8944 26.9483 43.156 24.8719 43.8163C24.6243 43.8929 24.1656 44.0375 24.0902 44.0463C24.0889 44.045 23.9193 43.9068 24.0789 42.9918Z" fill="black"/>
<path d="M43.6629 50.8892C42.1787 49.4351 40.2156 48.3091 37.8303 47.5449C30.6021 45.2227 22.4886 49.2575 18.471 55.7692C18.2875 56.0671 18.28 56.4403 18.4497 56.7457C18.6206 57.0511 18.9436 57.2409 19.293 57.2409H46.3071C47.0026 57.2409 47.466 56.5285 47.1944 55.8974C46.4215 54.0852 45.2992 52.4941 43.6629 50.8892ZM36.6923 49.2397C34.7808 50.7745 32.1418 50.8749 30.1017 49.3199C32.2223 48.7222 34.1728 48.5524 36.6923 49.2397ZM21.1304 55.3105C22.7944 53.1511 25.1864 51.1386 28.015 50.024C31.0077 53.2436 35.9094 53.0813 38.735 49.9407C41.4139 51.097 43.4096 53.0326 44.7425 55.3105H21.1304Z" fill="black"/>
<path d="M33.2203 52.6172C32.6874 52.6172 32.2551 53.0495 32.2551 53.5824V53.6239C32.2551 54.1567 32.6874 54.5677 33.2203 54.5677C33.7532 54.5677 34.1855 54.1153 34.1855 53.5824C34.1855 53.0495 33.7532 52.6172 33.2203 52.6172Z" fill="black"/>
<path d="M60.5876 10.9648C64.0829 10.5132 64.2392 8.78523 68.7277 11.3582C70.7885 12.5412 73.1644 13.6367 75.386 12.4566C75.856 12.2065 76.0345 11.6221 75.7844 11.1508C75.5343 10.682 74.9499 10.501 74.4786 10.7524C73.2847 11.3871 71.6358 10.7612 70.467 10.124C63.9098 6.54448 64.4084 8.52481 60.34 9.04948C58.4574 9.29958 56.4415 8.40979 55.3431 6.84763C55.039 6.41404 54.4395 6.3047 53.9984 6.61387C53.5623 6.91926 53.458 7.52125 53.7646 7.95861C55.2627 10.0888 58.01 11.2941 60.5876 10.9648Z" fill="black"/>
<path d="M63.1138 18.297C67.0839 17.413 66.1596 17.2869 69.8387 18.8562C71.2954 19.479 72.9052 19.8185 74.3405 19.1315C74.8218 18.9015 75.0254 18.3259 74.7954 17.8445C74.5667 17.3644 73.9936 17.1571 73.5085 17.3896C72.6678 17.7892 71.6949 17.5175 70.646 17.087C66.2559 15.2852 66.9442 15.4756 62.6965 16.4118C59.6451 17.088 56.3273 16.3678 53.825 14.4915C53.3977 14.1685 52.7932 14.2577 52.474 14.6838C52.1535 15.1098 52.2403 15.7156 52.6663 16.0348C55.6109 18.2454 59.5132 19.0912 63.1138 18.297Z" fill="black"/>
<path d="M77.9161 2.9857C75.6067 1.82071 75.5465 2.38134 54.9336 0.0420375C50.5864 -0.404114 46.6226 2.75163 46.1098 7.10255L45.1054 15.9853C30.4416 15.795 16.0536 15.8955 1.15781 16.3033C0.64631 16.3172 0.234091 16.7281 0.219009 17.2396C-0.166818 30.354 -0.0436554 46.4167 0.594782 66.3477C0.61112 66.8605 1.02711 67.2715 1.54113 67.2815C10.6766 67.4595 20.1334 67.5515 30.1538 67.5668L30.2311 75.6604H26.7569C26.224 75.6604 25.7917 76.0927 25.7917 76.6256V79.0348C25.7917 79.5677 26.224 80 26.7569 80H43.6214C44.1543 80 44.5866 79.5677 44.5866 79.0348V76.6256C44.5866 76.0927 44.1543 75.6604 43.6214 75.6604H40.3351L40.2561 67.5587C49.2277 67.526 58.7024 67.4345 68.8849 67.2815C69.1698 67.2774 69.4162 67.1429 69.5902 66.9426C70.4393 66.5208 71.2692 65.8653 72.0327 65.3701C71.9822 53.1307 71.9561 40.696 71.9188 28.3745C72.8044 28.3755 77.4773 29.4576 80.2522 26.3333C81.3187 25.1326 81.8176 23.5399 82.1946 21.9789C83.2296 17.6927 84.2172 10.1701 81.9514 6.17773C81.0844 4.64997 79.5812 3.417 77.9161 2.9857ZM54.7325 1.96238L74.94 4.08757C78.3075 4.43584 80.7232 7.46511 80.3668 10.8125L79.2394 21.0916C78.8712 24.4308 75.8487 26.8539 72.5095 26.497C71.1621 26.3326 60.9799 25.2263 60.6971 25.3847C58.074 26.8614 55.5201 28.0701 53.0321 29.713C53.0623 28.2848 53.0617 26.7433 53.1263 24.965C53.1452 24.4623 52.7745 24.0299 52.2743 23.9709C48.9833 23.5853 46.511 20.6069 46.9154 17.1856C47.0863 15.6707 48.0813 6.84778 48.0276 7.32374C48.4172 4.02096 51.4373 1.61551 54.7325 1.96238ZM63.3137 61.386C46.7558 61.895 28.7853 61.8938 6.92888 61.3797C6.52169 48.3119 6.41361 35.2453 6.60589 22.513C18.8402 22.1914 31.8411 22.1359 46.2874 22.337C47.4157 24.0492 49.167 25.2723 51.1708 25.7354C51.1132 27.8458 51.133 29.496 51.0426 31.5756C51.0073 32.3864 51.9296 32.8776 52.5798 32.3922C53.2593 32.3907 53.9546 32.3868 54.5862 32.3922C57.0008 30.454 59.8127 28.6709 62.6616 27.359L63.4229 27.4421C63.9191 38.986 63.8882 50.3995 63.3137 61.386ZM38.4046 75.6604H32.1617L32.0843 67.5711C32.2152 67.5712 33.5945 67.5777 38.3256 67.5649L38.4046 75.6604ZM67.9235 65.365C42.8121 65.7357 21.9686 65.737 2.49501 65.3687C1.89805 46.3589 1.77614 30.9107 2.12301 18.2086C16.6211 17.8228 30.6478 17.7247 44.9398 17.9095C44.9367 18.7616 45.0857 19.5951 45.3492 20.3947C30.9008 20.2026 17.8847 20.2713 5.62939 20.6078C5.11285 20.6228 4.69938 21.0401 4.69058 21.5566C4.47316 34.9085 4.58627 48.6336 5.0274 62.355C5.04499 62.8665 5.45721 63.2762 5.96997 63.2888C25.3258 63.7518 44.7503 63.9093 64.26 63.2888C64.7615 63.2724 65.1662 62.8766 65.1938 62.3764C65.8114 51.1489 65.8597 39.4706 65.3604 27.6537L68.0618 27.9485C68.2535 65.2459 67.9433 60.3154 67.9235 65.365Z" fill="black"/>
</svg>
