<svg width="72" height="80" viewBox="0 0 72 80" fill="none" xmlns="http://www.w3.org/2000/svg">
<path d="M25.4232 49.0217C18.5704 49.2781 13.1747 54.2922 13.396 60.2402C13.4154 60.7385 13.8255 61.1329 14.3245 61.1329H14.3311C38.3888 60.8646 37.527 61.2169 38.0394 60.6938C38.213 60.5184 38.3085 60.2801 38.3061 60.0333C38.2301 53.0965 32.112 48.7287 25.4232 49.0217ZM15.2698 59.2676C15.62 54.7676 20.0099 51.083 25.4921 50.8773C30.5398 50.7152 35.7543 53.6672 36.3755 59.12L15.2698 59.2676Z" fill="black"/>
<path d="M25.6051 47.1681C28.6847 47.206 31.2118 44.7403 31.2498 41.6607C31.2877 38.5812 28.8219 36.0539 25.7424 36.0161C22.6628 35.9781 20.1356 38.4439 20.0977 41.5234C20.0598 44.603 22.5255 47.1302 25.6051 47.1681Z" fill="black"/>
<path d="M19.3139 8.27766C19.4381 8.27766 28.431 8.16693 28.3071 8.16274C28.82 8.15669 29.2307 7.73452 29.2241 7.22162C29.2174 6.71235 28.8031 6.30469 28.2951 6.30469C28.1708 6.30469 19.1779 6.41541 19.3018 6.41961C18.7889 6.42565 18.3782 6.84783 18.3848 7.36073C18.3915 7.87 18.8058 8.27766 19.3139 8.27766Z" fill="black"/>
<path d="M31.4491 8.03066C31.7875 8.03066 32.1311 7.84981 32.3044 7.4609C32.7435 6.46345 31.3781 5.75966 30.7929 6.44478C30.5528 6.68399 30.444 7.05028 30.5824 7.4609C30.632 7.57219 31.0512 8.03066 31.4491 8.03066Z" fill="black"/>
<path d="M26.7497 68.9298C25.482 68.9462 24.4723 70.3573 24.4945 72.0817C24.5167 73.8061 25.5625 75.1908 26.8302 75.1744C28.098 75.158 29.1076 73.7469 29.0853 72.0225C29.0631 70.2981 28.0174 68.9135 26.7497 68.9298Z" fill="black"/>
<path d="M68.3369 48.2077C69.7667 48.2004 70.9346 47.0319 70.9413 45.6033L71.0175 29.8304C71.0234 28.4531 69.9846 27.2601 68.3859 27.2006L51.3679 27.2886C51.2265 19.2979 51.398 13.5183 51.0392 5.81367C50.9261 3.1524 48.6175 0 45.8993 0C45.7697 0 7.25545 0.716844 6.27099 0.966903C4.06683 1.32784 2.20991 2.93655 1.34031 5.01854C0.45332 7.14226 0.422851 9.51162 0.405689 11.8131C0.271038 29.8064 0.136462 47.7996 0.00188607 65.7929C-0.0367224 70.9557 0.473734 75.6518 5.62851 77.3854C6.12394 77.7036 6.66618 77.9284 7.24326 78.047C11.6612 80.0891 16.3992 80.0432 21.2966 79.979C41.0931 79.7199 49.5065 80.0067 58.1277 77.626C59.1044 77.3563 60.3009 76.6862 60.0711 75.6994C59.8885 74.9155 58.9213 74.6451 58.1191 74.5788C55.8538 74.3919 53.6063 74.6708 51.3685 75.0995C52.3341 73.8036 52.8871 72.1671 52.809 70.4281L52.6729 67.3555C51.8577 49.0084 52.2191 49.6252 52.0101 49.0326L52.8096 48.2887L68.3369 48.2077ZM4.37204 6.00721C4.35934 4.20239 5.69663 2.70845 7.3575 2.677C11.5959 2.57495 45.6951 1.85805 45.8987 1.85805C47.5082 1.85805 49.1074 4.11166 49.183 5.89592C49.2643 7.64344 49.3175 9.28851 49.3539 10.8829L4.52627 11.4604C4.49089 11.4609 4.4611 11.4776 4.42685 11.4819C4.40886 9.63508 4.39064 7.80334 4.37204 6.00721ZM4.44439 13.2996C4.47683 13.303 4.5051 13.3184 4.53837 13.3184H4.55047L49.3901 12.7408C49.468 17.7494 49.4077 21.4394 49.5095 27.2982L38.6716 27.3542C37.917 27.3581 37.2411 27.6913 36.7645 28.2104C35.1213 29.0058 35.0658 31.0031 35.0792 32.8068C35.1787 46.0882 35.0077 46.3497 35.7297 47.5147C36.0802 48.0805 36.736 48.4851 37.3768 48.5309C38.2347 48.9921 38.5969 48.7819 42.107 49.0946C42.8121 50.8227 43.5065 52.6749 44.0054 54.4255C44.3876 54.5064 44.7699 54.5873 45.1521 54.6682C45.1876 54.6828 45.2128 54.7141 45.2504 54.7242C45.3308 54.746 45.4125 54.7568 45.4935 54.7568C45.5075 54.7568 45.5204 54.7497 45.5344 54.7491C45.5466 54.7517 45.5587 54.7543 45.5709 54.7568C45.5693 54.7524 45.568 54.7475 45.5663 54.7431C46.1914 54.6925 46.1219 54.4093 50.2419 50.6779C50.3645 56.7331 50.4993 60.2239 50.7111 65.0517C50.2947 64.9233 53.6698 64.9877 4.8984 65.5843C4.74645 48.8792 4.60744 30.3396 4.44439 13.2996ZM46.3887 75.995C31.4039 77.2192 19.1735 77.3135 7.89762 76.2926C6.33049 76.1498 4.98837 74.576 4.96659 72.8571C4.94935 71.0805 4.93234 69.269 4.91548 67.4424C53.3291 66.7901 50.4532 66.9188 50.7876 66.7838C50.7973 67.0012 50.8067 67.2139 50.8166 67.4378L50.9527 70.5116C51.0791 73.3204 49.0318 75.7797 46.3887 75.995ZM45.9538 52.1307L44.7187 48.0142C44.6074 47.644 44.2784 47.3815 43.8925 47.3549L38.5548 46.9884C38.1557 46.9605 37.8448 46.6255 37.8472 46.2263L37.9252 29.9695C37.9276 29.5546 38.2663 29.2147 38.6813 29.2123C70.4059 29.0483 68.6047 28.9491 68.9369 29.2812C69.3612 29.7038 69.0814 29.205 69.0832 45.5936C69.0814 46.0085 68.7421 46.3472 68.3272 46.3496L52.437 46.4331C51.7822 46.4365 52.0571 46.5678 45.9538 52.1307Z" fill="black"/>
<path d="M61.8913 33.6797H43.9193C43.4064 33.6797 42.9902 34.0958 42.9902 34.6087C42.9902 35.1216 43.4064 35.5377 43.9193 35.5377H61.8913C62.4042 35.5377 62.8203 35.1216 62.8203 34.6087C62.8203 34.0958 62.4042 33.6797 61.8913 33.6797Z" fill="black"/>
<path d="M54.2733 39.3594H45.984C45.4711 39.3594 45.055 39.7755 45.055 40.2884C45.055 40.8013 45.4711 41.2174 45.984 41.2174H54.2733C54.7862 41.2174 55.2023 40.8013 55.2023 40.2884C55.2023 39.7755 54.7862 39.3594 54.2733 39.3594Z" fill="black"/>
<path d="M60.981 38.8281H58.0615C57.5486 38.8281 57.1324 39.2443 57.1324 39.7572C57.1324 40.27 57.5486 40.6862 58.0615 40.6862H60.981C61.4939 40.6862 61.91 40.27 61.91 39.7572C61.91 39.2443 61.4939 38.8281 60.981 38.8281Z" fill="black"/>
</svg>
