<svg width="20" height="20" viewBox="0 0 20 20" fill="none" xmlns="http://www.w3.org/2000/svg">
<path d="M7.70466 4.08929C7.49474 3.87895 7.23517 3.72496 6.94995 3.64155C6.66473 3.55814 6.36309 3.548 6.07292 3.61209C5.78275 3.67618 5.51343 3.81241 5.28987 4.00819C5.06632 4.20397 4.89575 4.45296 4.79394 4.73214L0.106444 17.6259C0.00954183 17.8925 -0.0218427 18.1785 0.0149355 18.4598C0.0517137 18.7411 0.155577 19.0094 0.317769 19.2422C0.479962 19.4749 0.695731 19.6652 0.946888 19.7971C1.19805 19.929 1.47723 19.9986 1.76091 20C1.96928 19.9996 2.17597 19.9627 2.37162 19.8911L15.2654 15.2036C15.5448 15.1022 15.7942 14.9319 15.9903 14.7085C16.1865 14.4851 16.3231 14.2159 16.3876 13.9257C16.452 13.6354 16.4422 13.3337 16.3591 13.0483C16.2759 12.7628 16.1221 12.503 15.9118 12.2929L7.70466 4.08929ZM6.80019 16.0009L3.99662 13.1973L4.90287 10.7054L9.29216 15.0946L6.80019 16.0009ZM3.19127 15.4196L4.57787 16.8089L2.39484 17.6027L3.19127 15.4196ZM11.5154 14.2857L5.7118 8.48214L6.60466 6.01964L13.977 13.3929L11.5154 14.2857ZM8.92609 3.21429V1.07143C8.92609 0.787268 9.03897 0.514746 9.2399 0.313814C9.44083 0.112882 9.71336 0 9.99752 0C10.2817 0 10.5542 0.112882 10.7551 0.313814C10.9561 0.514746 11.0689 0.787268 11.0689 1.07143V3.21429C11.0689 3.49845 10.9561 3.77097 10.7551 3.9719C10.5542 4.17283 10.2817 4.28571 9.99752 4.28571C9.71336 4.28571 9.44083 4.17283 9.2399 3.9719C9.03897 3.77097 8.92609 3.49845 8.92609 3.21429ZM19.3261 10.6705C19.5274 10.8718 19.6404 11.1448 19.6404 11.4295C19.6404 11.7141 19.5274 11.9871 19.3261 12.1884C19.1248 12.3897 18.8518 12.5028 18.5672 12.5028C18.2825 12.5028 18.0095 12.3897 17.8082 12.1884L16.3797 10.7598C16.1784 10.5585 16.0653 10.2855 16.0653 10.0009C16.0653 9.71624 16.1784 9.44324 16.3797 9.24196C16.5809 9.04068 16.8539 8.92761 17.1386 8.92761C17.4232 8.92761 17.6962 9.04068 17.8975 9.24196L19.3261 10.6705ZM19.2645 7.0875L17.1216 7.80179C16.852 7.89165 16.5578 7.87074 16.3036 7.74365C16.0494 7.61656 15.8561 7.3937 15.7663 7.12411C15.6764 6.85451 15.6973 6.56026 15.8244 6.30608C15.9515 6.0519 16.1743 5.85862 16.4439 5.76875L18.5868 5.05446C18.8564 4.9646 19.1507 4.98551 19.4048 5.1126C19.659 5.23969 19.8523 5.46255 19.9422 5.73214C20.032 6.00174 20.0111 6.29599 19.884 6.55017C19.7569 6.80435 19.5341 6.99763 19.2645 7.0875ZM11.4797 5.52946C11.7681 3.88125 12.9788 2.85714 14.6404 2.85714C15.2163 2.85714 15.4163 2.63482 15.5332 2.41786C15.6373 2.21788 15.6981 1.99824 15.7118 1.77321V1.78571C15.7118 1.50155 15.8247 1.22903 16.0256 1.0281C16.2265 0.827168 16.4991 0.714286 16.7832 0.714286C17.0674 0.714286 17.3399 0.827168 17.5408 1.0281C17.7418 1.22903 17.8547 1.50155 17.8547 1.78571C17.8547 3.07768 16.9984 5 14.6404 5C14.1993 5 13.7288 5.10625 13.5904 5.89821C13.5471 6.14656 13.4176 6.37169 13.2248 6.53401C13.0319 6.69634 12.788 6.78547 12.5359 6.78571C12.4737 6.78561 12.4115 6.78023 12.3502 6.76964C12.0703 6.72062 11.8213 6.56242 11.6581 6.32984C11.4948 6.09727 11.4306 5.80936 11.4797 5.52946Z" fill="#0057FF"/>
</svg>
