<svg width="24" height="18" viewBox="0 0 24 18" fill="none" xmlns="http://www.w3.org/2000/svg">
<path d="M15.0362 13.2366C15.7282 12.559 16.2028 11.6905 16.3992 10.7421C16.5957 9.79369 16.5052 8.80824 16.1393 7.91147C15.7733 7.0147 15.1486 6.24725 14.3446 5.70703C13.5407 5.1668 12.5941 4.87829 11.6256 4.87829C10.657 4.87829 9.7104 5.1668 8.90649 5.70703C8.10259 6.24725 7.47782 7.0147 7.11189 7.91147C6.74596 8.80824 6.65545 9.79369 6.85191 10.7421C7.04837 11.6905 7.52289 12.559 8.21494 13.2366C7.04321 13.8594 6.06902 14.7976 5.40244 15.945C5.25969 16.203 5.2239 16.5066 5.30277 16.7907C5.38164 17.0748 5.56887 17.3165 5.82417 17.464C6.07948 17.6114 6.38245 17.6527 6.66791 17.579C6.95337 17.5054 7.19851 17.3226 7.35057 17.07C7.79017 16.3273 8.41566 15.7118 9.16544 15.2844C9.91522 14.8569 10.7634 14.632 11.6265 14.632C12.4896 14.632 13.3378 14.8569 14.0876 15.2844C14.8373 15.7118 15.4628 16.3273 15.9024 17.07C15.9748 17.2008 16.0725 17.3158 16.1898 17.4084C16.3072 17.501 16.4418 17.5693 16.5858 17.6093C16.7298 17.6493 16.8804 17.6601 17.0286 17.6413C17.1769 17.6225 17.3199 17.5742 17.4494 17.4995C17.5788 17.4248 17.692 17.325 17.7825 17.206C17.8729 17.087 17.9387 16.9511 17.9761 16.8064C18.0134 16.6617 18.0216 16.511 18 16.3631C17.9785 16.2152 17.9277 16.0731 17.8506 15.945C17.1835 14.7973 16.2086 13.8592 15.0362 13.2366ZM9.00057 9.75845C9.00057 9.23927 9.15452 8.73176 9.44296 8.30008C9.7314 7.8684 10.1414 7.53195 10.621 7.33327C11.1007 7.13459 11.6285 7.0826 12.1377 7.18389C12.6469 7.28517 13.1146 7.53518 13.4817 7.9023C13.8488 8.26941 14.0988 8.73714 14.2001 9.24634C14.3014 9.75554 14.2494 10.2833 14.0508 10.763C13.8521 11.2427 13.5156 11.6526 13.0839 11.9411C12.6523 12.2295 12.1447 12.3834 11.6256 12.3834C10.9294 12.3834 10.2617 12.1069 9.76941 11.6146C9.27713 11.1223 9.00057 10.4546 9.00057 9.75845ZM22.8015 10.6575C22.6833 10.7463 22.5488 10.811 22.4057 10.8478C22.2625 10.8847 22.1135 10.8929 21.9671 10.8721C21.8207 10.8513 21.6799 10.8018 21.5527 10.7266C21.4254 10.6513 21.3143 10.5517 21.2256 10.4334C20.4446 9.39376 19.3646 8.59689 18.4759 8.4047C18.2396 8.35359 18.026 8.2277 17.8668 8.04569C17.7077 7.86368 17.6114 7.63524 17.5922 7.39421C17.5731 7.15319 17.6321 6.91241 17.7605 6.70755C17.889 6.5027 18.08 6.34467 18.3053 6.25689C18.5857 6.1474 18.8357 5.97197 19.0341 5.74543C19.2325 5.5189 19.3733 5.24793 19.4448 4.95544C19.5163 4.66295 19.5163 4.35754 19.4448 4.06505C19.3733 3.77256 19.2325 3.50159 19.0341 3.27506C18.8357 3.04852 18.5857 2.87309 18.3053 2.7636C18.0248 2.65411 17.722 2.61378 17.4227 2.64603C17.1233 2.67827 16.8361 2.78214 16.5854 2.94884C16.3346 3.11555 16.1277 3.34019 15.9821 3.60376C15.9131 3.73733 15.818 3.85571 15.7024 3.9519C15.5869 4.04808 15.4532 4.12013 15.3093 4.16378C15.1654 4.20743 15.0143 4.22179 14.8647 4.20603C14.7152 4.19026 14.5704 4.14468 14.4388 4.07198C14.3072 3.99928 14.1915 3.90094 14.0985 3.78276C14.0055 3.66459 13.9372 3.52898 13.8976 3.38395C13.8579 3.23892 13.8477 3.08741 13.8676 2.93838C13.8875 2.78935 13.9371 2.64581 14.0134 2.51626C14.2918 2.02403 14.6684 1.59429 15.1198 1.25374C15.5713 0.913184 16.088 0.669097 16.6377 0.536635C17.1875 0.404174 17.7586 0.386167 18.3156 0.483733C18.8727 0.5813 19.4037 0.792356 19.8757 1.10379C20.3477 1.41523 20.7507 1.82039 21.0595 2.29411C21.3683 2.76783 21.5765 3.3 21.671 3.85755C21.7655 4.4151 21.7443 4.98612 21.6088 5.53515C21.4733 6.08418 21.2264 6.59949 20.8834 7.04908C21.7088 7.59894 22.4335 8.28679 23.0256 9.08251C23.2047 9.32109 23.2817 9.62105 23.2397 9.91641C23.1977 10.2118 23.0401 10.4784 22.8015 10.6575ZM4.77526 8.40751C3.88651 8.5997 2.80651 9.39658 2.02557 10.4372C1.84593 10.6758 1.57887 10.8332 1.28315 10.8749C0.987427 10.9165 0.687265 10.839 0.448694 10.6594C0.210124 10.4797 0.0526871 10.2127 0.0110189 9.91697C-0.0306494 9.62125 0.0468639 9.32108 0.226507 9.08251C0.818855 8.28703 1.54345 7.59921 2.36869 7.04908C2.02566 6.59949 1.77874 6.08418 1.64325 5.53515C1.50777 4.98612 1.48662 4.4151 1.58112 3.85755C1.67562 3.3 1.88375 2.76783 2.19259 2.29411C2.50142 1.82039 2.90436 1.41523 3.37638 1.10379C3.84839 0.792356 4.37941 0.5813 4.93643 0.483733C5.49345 0.386167 6.06458 0.404174 6.61435 0.536635C7.16412 0.669097 7.68078 0.913184 8.13224 1.25374C8.5837 1.59429 8.96032 2.02403 9.23869 2.51626C9.315 2.64581 9.36457 2.78935 9.38446 2.93838C9.40436 3.08741 9.39417 3.23892 9.35452 3.38395C9.31486 3.52898 9.24654 3.66459 9.15358 3.78276C9.06062 3.90094 8.94492 3.99928 8.81331 4.07198C8.6817 4.14468 8.53685 4.19026 8.38733 4.20603C8.2378 4.22179 8.08663 4.20743 7.94276 4.16378C7.79888 4.12013 7.66521 4.04808 7.54965 3.9519C7.43409 3.85571 7.33898 3.73733 7.26994 3.60376C7.12437 3.34019 6.91747 3.11555 6.66673 2.94884C6.41599 2.78214 6.12878 2.67827 5.82941 2.64603C5.53004 2.61378 5.22731 2.65411 4.94682 2.7636C4.66633 2.87309 4.41634 3.04852 4.21798 3.27506C4.01962 3.50159 3.87874 3.77256 3.80725 4.06505C3.73576 4.35754 3.73576 4.66295 3.80725 4.95544C3.87874 5.24793 4.01962 5.5189 4.21798 5.74543C4.41634 5.97197 4.66633 6.1474 4.94682 6.25689C5.17211 6.34467 5.36312 6.5027 5.49155 6.70755C5.61998 6.91241 5.67899 7.15319 5.65984 7.39421C5.6407 7.63524 5.54441 7.86368 5.38524 8.04569C5.22608 8.2277 5.01251 8.35359 4.77619 8.4047L4.77526 8.40751Z" fill="#0057FF"/>
</svg>
