<svg width="21" height="23" viewBox="0 0 21 23" fill="none" xmlns="http://www.w3.org/2000/svg">
<path d="M20.1017 15.4997C20.2505 15.7576 20.291 16.0639 20.2144 16.3515C20.1378 16.6392 19.9503 16.8848 19.693 17.0344L10.693 22.2844C10.5208 22.3849 10.3251 22.4379 10.1258 22.4379C9.92646 22.4379 9.73072 22.3849 9.55859 22.2844L0.558592 17.0344C0.300752 16.8841 0.11318 16.6376 0.0371402 16.349C-0.0388999 16.0604 0.00282059 15.7534 0.153124 15.4955C0.303427 15.2377 0.55 15.0501 0.838601 14.9741C1.1272 14.898 1.43419 14.9398 1.69203 15.0901L10.1295 20.0101L18.568 15.0901C18.8258 14.9417 19.132 14.9014 19.4194 14.9782C19.7069 15.055 19.9522 15.2425 20.1017 15.4997ZM18.568 10.5901L10.1305 15.5101L1.69765 10.5901C1.44054 10.452 1.13985 10.4193 0.859061 10.4988C0.57827 10.5783 0.339352 10.7637 0.192749 11.0161C0.0461457 11.2684 0.0033293 11.5678 0.0733391 11.8511C0.143349 12.1344 0.320706 12.3794 0.567967 12.5344L9.56797 17.7844C9.7401 17.8849 9.93584 17.9379 10.1352 17.9379C10.3345 17.9379 10.5302 17.8849 10.7023 17.7844L19.7023 12.5344C19.9602 12.384 20.1477 12.1373 20.2237 11.8486C20.2996 11.5599 20.2578 11.2529 20.1073 10.9951C19.9569 10.7372 19.7102 10.5497 19.4215 10.4737C19.1328 10.3978 18.8258 10.4396 18.568 10.5901ZM0.00546743 7.06225C0.00583402 6.86512 0.0579899 6.67156 0.156711 6.50093C0.255432 6.33031 0.397253 6.18862 0.567967 6.09006L9.56797 0.84006C9.74029 0.740129 9.93595 0.6875 10.1352 0.6875C10.3344 0.6875 10.53 0.740129 10.7023 0.84006L19.7023 6.09006C19.8724 6.18908 20.0135 6.33096 20.1116 6.50155C20.2096 6.67214 20.2612 6.86548 20.2612 7.06225C20.2612 7.25902 20.2096 7.45235 20.1116 7.62294C20.0135 7.79353 19.8724 7.93542 19.7023 8.03444L10.7023 13.2844C10.5302 13.3849 10.3345 13.4379 10.1352 13.4379C9.93584 13.4379 9.7401 13.3849 9.56797 13.2844L0.567967 8.03444C0.397253 7.93587 0.255432 7.79419 0.156711 7.62356C0.0579899 7.45294 0.00583402 7.25937 0.00546743 7.06225ZM3.36359 7.06225L10.1305 11.0101L16.8973 7.06225L10.1305 3.11443L3.36359 7.06225Z" fill="#0057FF"/>
</svg>
