<svg width="20" height="22" viewBox="0 0 20 22" fill="none" xmlns="http://www.w3.org/2000/svg">
<path d="M19.3101 20.3192C19.2413 20.552 19.099 20.7564 18.9046 20.9017C18.7101 21.047 18.4738 21.1255 18.231 21.1254C18.1231 21.1253 18.0158 21.1098 17.9123 21.0795L9.98103 18.7358L2.04978 21.0795C1.94624 21.1098 1.83891 21.1253 1.73103 21.1254C1.46046 21.1256 1.19891 21.0282 0.994313 20.8512C0.789716 20.6741 0.655781 20.4292 0.617055 20.1615C0.578328 19.8937 0.637406 19.6209 0.78346 19.3932C0.929513 19.1654 1.15276 18.9979 1.41227 18.9214L6.01071 17.5629L1.41227 16.2045C1.13612 16.1118 0.906677 15.9156 0.772224 15.6572C0.63777 15.3988 0.608789 15.0984 0.691376 14.819C0.773964 14.5397 0.961681 14.3033 1.21503 14.1595C1.46839 14.0158 1.76762 13.9759 2.04978 14.0483L9.98103 16.392L17.9123 14.0483C18.0556 14.0002 18.2071 13.9814 18.3579 13.9932C18.5086 14.005 18.6554 14.047 18.7895 14.1168C18.9236 14.1866 19.0423 14.2827 19.1384 14.3994C19.2345 14.516 19.3062 14.6509 19.3491 14.7958C19.3919 14.9408 19.4051 15.0929 19.3879 15.2431C19.3706 15.3933 19.3233 15.5385 19.2487 15.67C19.1741 15.8015 19.0737 15.9166 18.9537 16.0084C18.8336 16.1002 18.6962 16.1669 18.5498 16.2045L13.9513 17.5629L18.5498 18.9214C18.6915 18.9632 18.8236 19.0326 18.9385 19.1255C19.0534 19.2184 19.1489 19.333 19.2195 19.4628C19.2901 19.5926 19.3344 19.735 19.35 19.882C19.3655 20.0289 19.352 20.1775 19.3101 20.3192ZM3.98103 8.75045C3.98103 4.00764 9.22446 1.13045 9.44759 1.00951C9.61153 0.921219 9.79482 0.875 9.98103 0.875C10.1672 0.875 10.3505 0.921219 10.5145 1.00951C10.7376 1.13045 15.981 4.00764 15.981 8.75045C15.981 10.3417 15.3489 11.8679 14.2237 12.9931C13.0984 14.1183 11.5723 14.7504 9.98103 14.7504C8.38973 14.7504 6.8636 14.1183 5.73838 12.9931C4.61317 11.8679 3.98103 10.3417 3.98103 8.75045ZM9.98103 12.5004C10.2794 12.5004 10.5655 12.3819 10.7765 12.1709C10.9875 11.96 11.106 11.6738 11.106 11.3754C11.106 10.7689 10.852 10.1989 10.356 9.68139C10.2384 9.56181 10.1131 9.45001 9.98103 9.3467C9.8491 9.45025 9.72386 9.56204 9.60603 9.68139C9.10634 10.1989 8.85603 10.7689 8.85603 11.3754C8.85603 11.6738 8.97455 11.96 9.18553 12.1709C9.39651 12.3819 9.68266 12.5004 9.98103 12.5004ZM6.23103 8.75045C6.23032 9.37538 6.38667 9.99046 6.68571 10.5392C7.13665 8.19545 9.37259 7.04701 9.47759 6.99451C9.63388 6.9163 9.80625 6.87558 9.98103 6.87558C10.1558 6.87558 10.3282 6.9163 10.4845 6.99451C10.5895 7.04701 12.8282 8.19264 13.2763 10.5392C13.5754 9.99046 13.7317 9.37538 13.731 8.75045C13.731 6.09357 11.1304 4.08076 9.98103 3.32045C8.83259 4.07982 6.23103 6.09357 6.23103 8.75045Z" fill="#0057FF"/>
</svg>
