<svg width="21" height="23" viewBox="0 0 21 23" fill="none" xmlns="http://www.w3.org/2000/svg">
<path d="M18.8334 19.093L17.5416 19.4389L16.7381 16.4389C17.5091 15.9787 18.1092 15.2798 18.4475 14.448C18.7858 13.6163 18.844 12.697 18.6131 11.8292C17.4122 7.36671 14.9278 3.45546 14.8228 3.2914C14.6959 3.09331 14.51 2.94002 14.2914 2.85307C14.0728 2.76613 13.8324 2.74991 13.6041 2.80671L12.0197 3.20234C12.0197 2.70171 12.0028 2.39327 12.0009 2.3464C11.9898 2.10458 11.9009 1.87281 11.7476 1.6855C11.5942 1.4982 11.3846 1.36536 11.1497 1.30671L8.14969 0.556711C7.92137 0.499914 7.68099 0.516128 7.46237 0.603072C7.24375 0.690016 7.05789 0.843314 6.93094 1.0414C6.82219 1.20546 4.33781 5.11671 3.14156 9.57921C2.9103 10.4464 2.96773 11.3654 3.30518 12.1971C3.64263 13.0288 4.24173 13.728 5.01188 14.1889L4.20844 17.1889L2.91656 16.843C2.62839 16.7656 2.3213 16.806 2.06285 16.955C1.8044 17.1041 1.61576 17.3498 1.53844 17.638C1.46111 17.9261 1.50143 18.2332 1.65052 18.4917C1.79961 18.7501 2.04526 18.9388 2.33344 19.0161L6.83344 20.2217C7.12161 20.299 7.4287 20.2587 7.68715 20.1096C7.9456 19.9605 8.13424 19.7149 8.21156 19.4267C8.28889 19.1385 8.24857 18.8314 8.09948 18.573C7.95039 18.3146 7.70474 18.1259 7.41656 18.0486L6.38531 17.7673L7.18875 14.7673C7.82004 14.757 8.44062 14.6025 9.00311 14.3157C9.56561 14.0289 10.0551 13.6174 10.4344 13.1126C10.4969 13.3958 10.5666 13.677 10.6434 13.9564C10.8747 14.8245 11.3827 15.5934 12.0904 16.1468C12.798 16.7002 13.6668 17.0078 14.565 17.023L15.3684 20.023L14.3372 20.3042C14.1945 20.3425 14.0607 20.4085 13.9436 20.4985C13.8264 20.5885 13.7281 20.7007 13.6543 20.8286C13.5052 21.0871 13.4649 21.3942 13.5422 21.6823C13.5805 21.825 13.6465 21.9588 13.7365 22.076C13.8265 22.1931 13.9386 22.2914 14.0666 22.3653C14.325 22.5143 14.6321 22.5547 14.9203 22.4773L19.4203 21.2717C19.563 21.2334 19.6968 21.1674 19.8139 21.0774C19.9311 20.9874 20.0294 20.8753 20.1032 20.7473C20.1771 20.6193 20.2249 20.4781 20.2442 20.3316C20.2634 20.1851 20.2536 20.0363 20.2153 19.8936C20.177 19.7509 20.111 19.6171 20.021 19.5C19.931 19.3828 19.8189 19.2845 19.6909 19.2107C19.5629 19.1368 19.4217 19.089 19.2752 19.0697C19.1287 19.0505 18.9799 19.0603 18.8372 19.0986L18.8334 19.093ZM14.1178 6.61671L11.9784 7.15202C11.9588 6.50327 11.9606 5.94921 11.9691 5.53577L13.3397 5.19359C13.5469 5.5489 13.8169 6.03452 14.1178 6.61671ZM8.41125 2.94171L9.76688 3.28015C9.76688 3.65515 9.76688 4.14734 9.74438 4.71827C9.74438 4.80452 9.73406 4.92452 9.72844 5.0764L7.54781 4.53171C7.8825 3.87734 8.18437 3.33546 8.41125 2.94171ZM6.64031 12.4583C6.16012 12.3295 5.75071 12.0153 5.50212 11.5848C5.25353 11.1542 5.18611 10.6426 5.31469 10.1623C5.64795 8.94853 6.06777 7.76018 6.57094 6.6064L9.56531 7.3564C9.44034 8.63164 9.22955 9.89701 8.93438 11.1439C8.80318 11.6216 8.48828 12.028 8.05844 12.2742C7.6286 12.5205 7.11877 12.5867 6.64031 12.4583ZM12.8128 13.3826C12.4765 12.0856 12.2458 10.7635 12.1228 9.42921L15.1059 8.67921C15.6411 9.88597 16.0855 11.131 16.4353 12.4039C16.564 12.8843 16.4966 13.3961 16.2479 13.8267C15.9992 14.2574 15.5896 14.5716 15.1092 14.7003C14.6288 14.829 14.117 14.7616 13.6864 14.5129C13.2557 14.2642 12.9415 13.8546 12.8128 13.3742V13.3826ZM16.1878 3.12827C16.0937 2.84532 16.1158 2.53658 16.2492 2.26991C16.3827 2.00323 16.6165 1.80044 16.8994 1.70609L18.0244 1.33109C18.3045 1.2471 18.6064 1.27552 18.866 1.41033C19.1255 1.54513 19.3224 1.77573 19.4148 2.05323C19.5072 2.33072 19.4879 2.63331 19.361 2.89682C19.2341 3.16034 19.0096 3.36407 18.735 3.46484L17.61 3.83984C17.327 3.93393 17.0183 3.91183 16.7516 3.77841C16.485 3.64498 16.2822 3.41114 16.1878 3.12827ZM21 6.14796C21 6.44633 20.8815 6.73248 20.6705 6.94346C20.4595 7.15443 20.1734 7.27296 19.875 7.27296H18.75C18.4516 7.27296 18.1655 7.15443 17.9545 6.94346C17.7435 6.73248 17.625 6.44633 17.625 6.14796C17.625 5.84959 17.7435 5.56344 17.9545 5.35247C18.1655 5.14149 18.4516 5.02296 18.75 5.02296H19.875C20.1734 5.02296 20.4595 5.14149 20.6705 5.35247C20.8815 5.56344 21 5.84959 21 6.14796ZM1.55813 1.29265C1.65248 1.00978 1.85527 0.775938 2.12194 0.642512C2.38862 0.509087 2.69736 0.486993 2.98031 0.581086L4.10531 0.956086C4.24957 0.999332 4.38367 1.0711 4.49968 1.16714C4.61568 1.26318 4.71122 1.38153 4.78063 1.51518C4.85004 1.64882 4.89192 1.79505 4.90377 1.94518C4.91562 2.09531 4.8972 2.24629 4.84962 2.38918C4.80203 2.53206 4.72624 2.66393 4.62674 2.77698C4.52724 2.89003 4.40606 2.98195 4.27037 3.04729C4.13469 3.11263 3.98727 3.15007 3.83685 3.15738C3.68642 3.16469 3.53607 3.14172 3.39469 3.08984L2.26969 2.71484C1.98682 2.62049 1.75298 2.41769 1.61955 2.15102C1.48613 1.88434 1.46403 1.5756 1.55813 1.29265ZM2.25 6.52296H1.125C0.826631 6.52296 0.540483 6.40443 0.329505 6.19346C0.118526 5.98248 0 5.69633 0 5.39796C0 5.09959 0.118526 4.81344 0.329505 4.60247C0.540483 4.39149 0.826631 4.27296 1.125 4.27296H2.25C2.54837 4.27296 2.83452 4.39149 3.0455 4.60247C3.25647 4.81344 3.375 5.09959 3.375 5.39796C3.375 5.69633 3.25647 5.98248 3.0455 6.19346C2.83452 6.40443 2.54837 6.52296 2.25 6.52296Z" fill="#0057FF"/>
</svg>
