<svg width="32" height="20" viewBox="0 0 32 20" fill="none" xmlns="http://www.w3.org/2000/svg">
<path d="M12.4316 16.4044C10.6302 15.0123 9.56823 14.0084 7.06466 12.3735C7.08918 12.3292 11.0268 12.4749 11.05 12.4757C15.0767 12.5993 15.7181 12.6659 19.7455 12.728C22.4405 12.7695 25.4077 12.872 27.855 12.8257C30.1589 12.7822 31.1335 12.5172 31.5677 11.6901C32.7068 9.52014 28.7629 9.60052 27.7062 9.51934C25.8504 9.37681 23.9927 9.37921 22.1347 9.30306C19.6556 9.20147 17.1753 9.13258 14.6945 9.09644C14.1063 9.0879 10.7944 9.10339 8.4176 9.16423C10.0281 7.57062 11.5209 6.14564 12.174 5.47581C13.1703 4.45394 13.9878 3.86633 14.7542 2.58905C15.6019 1.17618 13.6104 -0.66204 12.7615 0.238755C11.5098 1.56718 10.2596 2.94557 8.80516 4.26059C6.94948 5.93847 4.94871 7.47873 2.69859 8.59248C-0.186199 10.0204 -0.819588 11.9316 2.27945 13.5819C4.67755 14.859 6.95416 16.3641 9.06839 18.0705C10.3679 19.1193 10.9477 19.6287 12.1229 19.9353C14.0313 20.4332 14.4221 17.9427 12.4316 16.4044Z" fill="black"/>
</svg>
