<svg width="146" height="25" viewBox="0 0 146 25" fill="none" xmlns="http://www.w3.org/2000/svg">
<path d="M25.345 9.20674H15.662L12.6813 0L9.68295 9.20674L0 9.1891L7.83102 14.886L4.83265 24.0927L12.6637 18.3958L20.4947 24.0927L17.514 14.886L25.345 9.20674Z" fill="#00B67A"/>
<path d="M18.1847 16.9718L17.5145 14.8906L12.6818 18.4005L18.1847 16.9718Z" fill="#005128"/>
<path d="M55.5086 9.20674H45.8256L42.8449 0L39.8465 9.20674L30.1636 9.1891L37.9946 14.886L34.9962 24.0927L42.8272 18.3958L50.6583 24.0927L47.6775 14.886L55.5086 9.20674Z" fill="#00B67A"/>
<path d="M48.3483 16.9718L47.6781 14.8906L42.8454 18.4005L48.3483 16.9718Z" fill="#005128"/>
<path d="M85.6721 9.20674H75.9892L73.0085 0L70.0101 9.20674L60.3271 9.1891L68.1582 14.886L65.1598 24.0927L72.9908 18.3958L80.8218 24.0927L77.8411 14.886L85.6721 9.20674Z" fill="#00B67A"/>
<path d="M78.5118 16.9718L77.8416 14.8906L73.009 18.4005L78.5118 16.9718Z" fill="#005128"/>
<path d="M115.837 9.20674H106.154L103.173 0L100.175 9.20674L90.4917 9.1891L98.3227 14.886L95.3244 24.0927L103.155 18.3958L110.986 24.0927L108.006 14.886L115.837 9.20674Z" fill="#00B67A"/>
<path d="M108.676 16.9718L108.005 14.8906L103.173 18.4005L108.676 16.9718Z" fill="#005128"/>
<path d="M146 9.20674H136.317L133.337 0L130.338 9.20674L120.655 9.1891L128.486 14.886L125.488 24.0927L133.319 18.3958L141.15 24.0927L138.169 14.886L146 9.20674Z" fill="#00B67A"/>
<path d="M138.84 16.9718L138.17 14.8906L133.337 18.4005L138.84 16.9718Z" fill="#005128"/>
</svg>
