<svg width="17" height="22" viewBox="0 0 17 22" fill="none" xmlns="http://www.w3.org/2000/svg">
<path d="M16.096 1.62467C15.7993 1.11089 15.3569 0.696634 14.8247 0.43427C14.2926 0.171906 13.6946 0.0732182 13.1064 0.150684C12.5182 0.22815 11.9661 0.478292 11.5201 0.869481C11.074 1.26067 10.7539 1.77534 10.6004 2.34842L9.7491 5.52842L8.89691 2.34935C8.68133 1.59173 8.17642 0.949289 7.49122 0.560754C6.80601 0.172219 5.99548 0.0687637 5.23465 0.272728C4.47381 0.476692 3.82372 0.971709 3.42475 1.65089C3.02577 2.33007 2.90993 3.13893 3.10223 3.90279L3.82598 6.60467L3.59254 6.55967C3.01184 6.44323 2.40966 6.50129 1.8619 6.72652C1.31414 6.95175 0.845298 7.33408 0.514461 7.82532C0.183624 8.31657 0.00559436 8.89474 0.00280539 9.487C1.64194e-05 10.0793 0.172593 10.6591 0.498789 11.1534C0.557852 11.2425 0.621602 11.3278 0.686289 11.4094C0.37237 11.7883 0.157499 12.2393 0.0609764 12.7219C0.0194065 12.9251 -0.0010149 13.1322 3.87792e-05 13.3397V13.9997C3.87792e-05 16.0882 0.829724 18.0913 2.30657 19.5681C3.78342 21.045 5.78646 21.8747 7.87504 21.8747H7.93504C12.2475 21.8428 15.75 18.2719 15.75 13.9153V13.6022C15.7492 12.42 15.3748 11.2683 14.6804 10.3115L16.396 3.90279C16.499 3.52207 16.5255 3.12473 16.474 2.73371C16.4225 2.34268 16.294 1.96574 16.096 1.62467ZM12.7735 2.93154C12.8249 2.73934 12.9507 2.57546 13.123 2.47595C13.2953 2.37644 13.5 2.34945 13.6922 2.40092C13.8844 2.45238 14.0483 2.5781 14.1478 2.75039C14.2473 2.92269 14.2743 3.12747 14.2229 3.31967L12.7932 8.65592C12.3505 8.41623 11.8775 8.23743 11.3869 8.12435L12.7735 2.93154ZM5.35035 2.74967C5.42459 2.62138 5.53517 2.51796 5.66814 2.45247C5.80112 2.38699 5.95051 2.36237 6.09746 2.38173C6.24441 2.40109 6.38233 2.46356 6.49381 2.56125C6.60528 2.65893 6.68531 2.78746 6.72379 2.9306L7.99973 7.69123C7.7417 7.74687 7.49208 7.83606 7.25723 7.95654C6.99871 7.64567 6.67977 7.39051 6.31973 7.20654L5.2791 3.32248C5.25255 3.22703 5.24518 3.12726 5.25741 3.02894C5.26964 2.93063 5.30123 2.83571 5.35035 2.74967ZM2.37379 13.7315C2.29267 13.6084 2.24963 13.4641 2.25005 13.3167C2.25047 13.1693 2.29434 13.0252 2.37617 12.9026C2.45799 12.78 2.57415 12.6842 2.71012 12.6272C2.84609 12.5702 2.99585 12.5545 3.14066 12.5822L4.0866 12.7697C4.28136 12.8094 4.45237 12.9249 4.56206 13.0906C4.67175 13.2564 4.71115 13.4589 4.6716 13.6537C4.65184 13.7507 4.61311 13.8427 4.55762 13.9246C4.50214 14.0065 4.431 14.0766 4.3483 14.1309C4.26561 14.1852 4.17299 14.2226 4.07579 14.2409C3.97858 14.2593 3.87871 14.2582 3.78191 14.2378L2.84441 14.0503C2.65179 14.0099 2.48277 13.8954 2.37379 13.7315ZM2.26504 9.3506C2.28472 9.25407 2.32322 9.16236 2.37836 9.08072C2.43349 8.99907 2.50416 8.92909 2.58635 8.87476C2.66853 8.82044 2.76061 8.78284 2.85733 8.76411C2.95405 8.74538 3.05352 8.74588 3.15004 8.7656H3.16223L5.10566 9.1406C5.20212 9.16067 5.29369 9.19954 5.37512 9.255C5.45656 9.31045 5.52628 9.3814 5.5803 9.4638C5.63432 9.5462 5.67158 9.63842 5.68995 9.73522C5.70832 9.83202 5.70745 9.93149 5.68738 10.0279C5.66732 10.1244 5.62844 10.216 5.57299 10.2974C5.51754 10.3788 5.44659 10.4486 5.36419 10.5026C5.28179 10.5566 5.18956 10.5939 5.09276 10.6122C4.99597 10.6306 4.8965 10.6297 4.80004 10.6097H4.78785L2.84535 10.2347C2.65146 10.1938 2.4816 10.078 2.37287 9.91232C2.26414 9.74667 2.22537 9.54473 2.26504 9.3506ZM13.4991 13.9153C13.4991 17.0409 10.996 19.6022 7.91816 19.6247C6.83077 19.6323 5.76441 19.325 4.84779 18.7399C3.93117 18.1549 3.20348 17.317 2.75254 16.3275L3.33754 16.4447C3.80826 16.541 4.29522 16.5228 4.75746 16.3917C5.21969 16.2606 5.64367 16.0204 5.99373 15.6913C6.34379 15.3621 6.60967 14.9538 6.76902 14.5005C6.92837 14.0472 6.97652 13.5623 6.90941 13.0865C7.24755 13.3218 7.6305 13.4848 8.03441 13.5656L8.27441 13.6134C8.25943 13.7417 8.25098 13.8706 8.2491 13.9997C8.24688 14.9816 8.63191 15.9248 9.32066 16.6247C9.52952 16.8378 9.81447 16.9591 10.1128 16.9621C10.4112 16.9651 10.6985 16.8495 10.9116 16.6406C11.1247 16.4317 11.2461 16.1468 11.2491 15.8484C11.2521 15.5501 11.1364 15.2628 10.9275 15.0497C10.7032 14.821 10.558 14.5266 10.5132 14.2094C10.4683 13.8923 10.5261 13.5691 10.6782 13.2872C10.7622 13.1323 10.8087 12.96 10.8139 12.7839C10.8191 12.6078 10.7829 12.433 10.7082 12.2735C10.6335 12.114 10.5224 11.9742 10.3838 11.8655C10.2452 11.7567 10.0831 11.6821 9.91035 11.6475L8.4741 11.3606C8.37764 11.3406 8.28607 11.3018 8.20461 11.2464C8.12314 11.191 8.05339 11.1201 7.99933 11.0377C7.94527 10.9554 7.90796 10.8632 7.88953 10.7664C7.8711 10.6696 7.87191 10.5702 7.89191 10.4737C7.91192 10.3773 7.95073 10.2857 8.00613 10.2042C8.06152 10.1228 8.13242 10.053 8.21478 9.99896C8.29713 9.9449 8.38933 9.90758 8.4861 9.88915C8.58287 9.87072 8.68233 9.87154 8.77879 9.89154L10.785 10.2928C11.5495 10.4471 12.2373 10.8608 12.7318 11.4638C13.2264 12.0669 13.4974 12.8223 13.4991 13.6022V13.9153Z" fill="#F5F4EF"/>
</svg>
