<svg width="23" height="24" viewBox="0 0 23 24" fill="none" xmlns="http://www.w3.org/2000/svg">
<path d="M17.7826 12.1228L13.1063 10.3988L11.3785 5.71875C11.2464 5.36042 11.0076 5.05121 10.6943 4.83281C10.381 4.6144 10.0083 4.49731 9.62635 4.49731C9.24443 4.49731 8.8717 4.6144 8.5584 4.83281C8.24509 5.05121 8.00628 5.36042 7.87416 5.71875L6.1501 10.3988L1.4701 12.1228C1.11176 12.2549 0.802555 12.4937 0.584153 12.807C0.365751 13.1204 0.248657 13.4931 0.248657 13.875C0.248657 14.2569 0.365751 14.6296 0.584153 14.943C0.802555 15.2563 1.11176 15.4951 1.4701 15.6272L6.14635 17.3512L7.87416 22.0312C8.00628 22.3896 8.24509 22.6988 8.5584 22.9172C8.8717 23.1356 9.24443 23.2527 9.62635 23.2527C10.0083 23.2527 10.381 23.1356 10.6943 22.9172C11.0076 22.6988 11.2464 22.3896 11.3785 22.0312L13.1026 17.355L17.7826 15.6272C18.1409 15.4951 18.4501 15.2563 18.6685 14.943C18.8869 14.6296 19.004 14.2569 19.004 13.875C19.004 13.4931 18.8869 13.1204 18.6685 12.807C18.4501 12.4937 18.1409 12.2549 17.7826 12.1228ZM11.8407 15.4191C11.688 15.4753 11.5493 15.5641 11.4343 15.6792C11.3192 15.7942 11.2304 15.9329 11.1742 16.0856L9.62635 20.2762L8.08228 16.0856C8.026 15.9329 7.93726 15.7942 7.82218 15.6792C7.7071 15.5641 7.56843 15.4753 7.41572 15.4191L3.2251 13.875L7.41572 12.3309C7.56843 12.2747 7.7071 12.1859 7.82218 12.0708C7.93726 11.9558 8.026 11.8171 8.08228 11.6644L9.62635 7.47375L11.1704 11.6644C11.2267 11.8171 11.3154 11.9558 11.4305 12.0708C11.5456 12.1859 11.6843 12.2747 11.837 12.3309L16.0276 13.875L11.8407 15.4191ZM12.2513 4.125C12.2513 3.82663 12.3699 3.54048 12.5809 3.3295C12.7918 3.11853 13.078 3 13.3763 3H14.5013V1.875C14.5013 1.57663 14.6199 1.29048 14.8309 1.0795C15.0418 0.868526 15.328 0.75 15.6263 0.75C15.9247 0.75 16.2109 0.868526 16.4218 1.0795C16.6328 1.29048 16.7513 1.57663 16.7513 1.875V3H17.8763C18.1747 3 18.4609 3.11853 18.6718 3.3295C18.8828 3.54048 19.0013 3.82663 19.0013 4.125C19.0013 4.42337 18.8828 4.70952 18.6718 4.9205C18.4609 5.13147 18.1747 5.25 17.8763 5.25H16.7513V6.375C16.7513 6.67337 16.6328 6.95952 16.4218 7.1705C16.2109 7.38147 15.9247 7.5 15.6263 7.5C15.328 7.5 15.0418 7.38147 14.8309 7.1705C14.6199 6.95952 14.5013 6.67337 14.5013 6.375V5.25H13.3763C13.078 5.25 12.7918 5.13147 12.5809 4.9205C12.3699 4.70952 12.2513 4.42337 12.2513 4.125ZM22.7513 8.625C22.7513 8.92337 22.6328 9.20952 22.4218 9.4205C22.2109 9.63147 21.9247 9.75 21.6263 9.75H21.2513V10.125C21.2513 10.4234 21.1328 10.7095 20.9218 10.9205C20.7109 11.1315 20.4247 11.25 20.1263 11.25C19.828 11.25 19.5418 11.1315 19.3309 10.9205C19.1199 10.7095 19.0013 10.4234 19.0013 10.125V9.75H18.6263C18.328 9.75 18.0418 9.63147 17.8309 9.4205C17.6199 9.20952 17.5013 8.92337 17.5013 8.625C17.5013 8.32663 17.6199 8.04048 17.8309 7.8295C18.0418 7.61853 18.328 7.5 18.6263 7.5H19.0013V7.125C19.0013 6.82663 19.1199 6.54048 19.3309 6.3295C19.5418 6.11853 19.828 6 20.1263 6C20.4247 6 20.7109 6.11853 20.9218 6.3295C21.1328 6.54048 21.2513 6.82663 21.2513 7.125V7.5H21.6263C21.9247 7.5 22.2109 7.61853 22.4218 7.8295C22.6328 8.04048 22.7513 8.32663 22.7513 8.625Z" fill="#0057FF"/>
</svg>
