<svg width="25" height="24" viewBox="0 0 25 24" fill="none" xmlns="http://www.w3.org/2000/svg">
<path d="M17.8333 12C17.8334 12.2156 17.7812 12.428 17.6811 12.619C17.5811 12.81 17.4362 12.9739 17.2589 13.0967L11.4811 17.0967C11.281 17.2352 11.0469 17.3163 10.804 17.3312C10.5611 17.3461 10.3188 17.2943 10.1032 17.1813C9.88769 17.0683 9.70719 16.8985 9.58127 16.6903C9.45535 16.4821 9.38882 16.2433 9.38889 16V8C9.38882 7.75665 9.45535 7.51793 9.58127 7.3097C9.70719 7.10147 9.88769 6.93166 10.1032 6.81869C10.3188 6.70572 10.5611 6.65388 10.804 6.6688C11.0469 6.68372 11.281 6.76483 11.4811 6.90333L17.2589 10.9033C17.4362 11.0261 17.5811 11.1899 17.6811 11.381C17.7812 11.572 17.8334 11.7844 17.8333 12ZM24.5 12C24.5 14.3734 23.7962 16.6934 22.4776 18.6668C21.1591 20.6402 19.2849 22.1783 17.0922 23.0865C14.8995 23.9948 12.4867 24.2324 10.1589 23.7694C7.83115 23.3064 5.69295 22.1635 4.01472 20.4853C2.33649 18.807 1.1936 16.6689 0.730582 14.3411C0.267559 12.0133 0.505199 9.60051 1.41345 7.4078C2.3217 5.21508 3.85977 3.34094 5.83316 2.02236C7.80655 0.703788 10.1266 0 12.5 0C15.6815 0.00352914 18.7317 1.26894 20.9814 3.51862C23.2311 5.76829 24.4965 8.81848 24.5 12ZM21.8333 12C21.8333 10.154 21.2859 8.34953 20.2604 6.81468C19.2348 5.27982 17.7772 4.08354 16.0717 3.37712C14.3663 2.67071 12.4896 2.48587 10.6792 2.846C8.86867 3.20613 7.20563 4.09505 5.90034 5.40034C4.59505 6.70563 3.70614 8.36867 3.34601 10.1792C2.98588 11.9896 3.17071 13.8663 3.87713 15.5717C4.58355 17.2772 5.77982 18.7348 7.31468 19.7604C8.84954 20.7859 10.654 21.3333 12.5 21.3333C14.9745 21.3307 17.347 20.3465 19.0967 18.5967C20.8465 16.847 21.8307 14.4745 21.8333 12Z" fill="black"/>
</svg>
