<svg width="22" height="20" viewBox="0 0 22 20" fill="none" xmlns="http://www.w3.org/2000/svg">
<path d="M13.2524 19.4591C14.5777 18.9895 15.7792 18.2144 16.7954 17.2363C19.5934 15.1063 21.316 11.4172 20.4157 7.65441C20.8317 7.36123 21.2598 7.06192 21.7102 6.7521C21.9781 6.56761 22.0455 6.20171 21.8618 5.93456C21.6781 5.66741 21.3129 5.60004 21.0442 5.78299C20.7 6.01991 20.3735 6.24822 20.0502 6.47499C18.9818 3.5985 16.6394 1.05882 14.0056 0.299079C12.8164 -0.0429004 11.5108 -0.0807918 10.2134 0.13029C6.50669 -0.0779212 2.74549 2.07538 1.03899 5.43413C-0.767738 8.99037 -0.168605 13.6449 2.45083 16.6352C5.07026 19.6258 9.52996 20.7786 13.2524 19.4591ZM4.2909 5.0045C6.21155 2.14902 10.512 0.515207 13.6795 1.42893C16.0733 2.11978 18.1977 4.50885 19.0698 7.16833C18.2159 7.77688 17.4129 8.3598 16.6328 8.9276C15.3965 9.82704 14.1212 10.7548 12.64 11.7821L9.47016 8.61222C9.24051 8.38257 8.86849 8.38257 8.63884 8.61222C8.4092 8.84186 8.4092 9.21389 8.63884 9.44353L12.1555 12.9602C12.3549 13.1609 12.6718 13.1892 12.9041 13.0291C14.5721 11.8808 15.9714 10.8627 17.3248 9.87833C17.9876 9.39588 18.6622 8.90501 19.3731 8.39539C20.0717 12.4342 17.3435 16.3989 13.7002 17.5569C10.4416 18.5933 6.58812 17.3586 4.53739 14.6228C2.48666 11.8862 2.38332 7.84138 4.2909 5.0045Z" fill="#242424"/>
</svg>
