<svg width="23" height="18" viewBox="0 0 23 18" fill="none" xmlns="http://www.w3.org/2000/svg">
<path d="M22.4803 5.81549C22.4809 5.38292 22.3824 4.95595 22.1924 4.56733C22.0024 4.17871 21.726 3.83875 21.3842 3.57352C21.0425 3.30828 20.6446 3.12482 20.221 3.03718C19.7974 2.94954 19.3593 2.96006 18.9404 3.06793C18.5215 3.1758 18.1329 3.37816 17.8043 3.65949C17.4757 3.94082 17.2158 4.29365 17.0447 4.69094C16.8736 5.08824 16.7957 5.51943 16.817 5.95149C16.8384 6.38354 16.9583 6.80497 17.1678 7.18347L15.3208 9.45548L13.5216 5.31965C13.913 4.9215 14.178 4.41658 14.2834 3.8683C14.3889 3.32001 14.3299 2.75281 14.1141 2.2379C13.8982 1.723 13.535 1.28334 13.0701 0.974149C12.6052 0.664954 12.0594 0.5 11.501 0.5C10.9427 0.5 10.3968 0.664954 9.93195 0.974149C9.46706 1.28334 9.10388 1.723 8.88801 2.2379C8.67215 2.75281 8.61322 3.32001 8.71863 3.8683C8.82405 4.41658 9.08909 4.9215 9.4805 5.31965L7.6822 9.45548L5.83432 7.18347C6.12145 6.66268 6.23743 6.06473 6.16583 5.47435C6.09423 4.88397 5.83868 4.33109 5.43538 3.89402C5.03207 3.45696 4.50147 3.15788 3.91873 3.03915C3.336 2.92043 2.73068 2.98807 2.18853 3.2325C1.64637 3.47694 1.19488 3.88577 0.898004 4.40107C0.601128 4.91638 0.473923 5.51204 0.534411 6.10366C0.594898 6.69528 0.840011 7.25287 1.23502 7.69744C1.63004 8.14201 2.15492 8.45101 2.73532 8.58068L3.97492 16.0236C4.04299 16.4383 4.25675 16.8151 4.57778 17.0863C4.89881 17.3575 5.30605 17.5053 5.72629 17.5031H17.2758C17.696 17.5053 18.1033 17.3575 18.4243 17.0863C18.7453 16.8151 18.9591 16.4383 19.0272 16.0236L20.2668 8.58068C20.8946 8.4391 21.4557 8.0883 21.8579 7.58584C22.2601 7.08338 22.4796 6.45911 22.4803 5.81549ZM19.647 5.10715C19.7871 5.10715 19.924 5.14869 20.0405 5.22653C20.157 5.30436 20.2478 5.41499 20.3014 5.54442C20.355 5.67385 20.369 5.81628 20.3417 5.95368C20.3144 6.09109 20.2469 6.2173 20.1478 6.31636C20.0488 6.41543 19.9226 6.48289 19.7852 6.51022C19.6477 6.53755 19.5053 6.52353 19.3759 6.46991C19.2465 6.4163 19.1358 6.32551 19.058 6.20903C18.9802 6.09254 18.9386 5.95559 18.9386 5.81549C18.9386 5.62763 19.0132 5.44746 19.1461 5.31462C19.2789 5.18178 19.4591 5.10715 19.647 5.10715ZM11.501 2.62796C11.6411 2.62796 11.7781 2.6695 11.8946 2.74734C12.0111 2.82517 12.1018 2.9358 12.1555 3.06523C12.2091 3.19466 12.2231 3.33709 12.1958 3.47449C12.1684 3.6119 12.101 3.73811 12.0019 3.83717C11.9029 3.93624 11.7766 4.0037 11.6392 4.03103C11.5018 4.05836 11.3594 4.04433 11.23 3.99072C11.1005 3.93711 10.9899 3.84632 10.9121 3.72983C10.8342 3.61335 10.7927 3.4764 10.7927 3.3363C10.7927 3.14844 10.8673 2.96827 11.0002 2.83543C11.133 2.70259 11.3132 2.62796 11.501 2.62796ZM3.35512 5.10715C3.49522 5.10715 3.63217 5.14869 3.74866 5.22653C3.86514 5.30436 3.95593 5.41499 4.00954 5.54442C4.06316 5.67385 4.07718 5.81628 4.04985 5.95368C4.02252 6.09109 3.95506 6.2173 3.856 6.31636C3.75693 6.41543 3.63072 6.48289 3.49331 6.51022C3.35591 6.53755 3.21349 6.52353 3.08405 6.46991C2.95462 6.4163 2.84399 6.32551 2.76616 6.20903C2.68833 6.09254 2.64678 5.95559 2.64678 5.81549C2.64678 5.62763 2.72141 5.44746 2.85425 5.31462C2.98709 5.18178 3.16726 5.10715 3.35512 5.10715ZM16.9756 15.3781H6.02645L5.06311 9.60334L7.13501 12.1525C7.23463 12.275 7.3603 12.3738 7.5029 12.4417C7.64549 12.5095 7.80142 12.5447 7.95934 12.5447C8.0076 12.5445 8.05581 12.5413 8.10366 12.535C8.28426 12.5102 8.45544 12.4393 8.60074 12.3292C8.74604 12.2191 8.86056 12.0735 8.93331 11.9063L11.4284 6.16966H11.501H11.5736L14.0688 11.9063C14.1415 12.0735 14.256 12.2191 14.4013 12.3292C14.5466 12.4393 14.7178 12.5102 14.8984 12.535C14.9463 12.5413 14.9945 12.5445 15.0427 12.5447C15.2007 12.5447 15.3566 12.5095 15.4992 12.4417C15.6418 12.3738 15.7675 12.275 15.8671 12.1525L17.939 9.60334L16.9756 15.3781Z" fill="#0057FF"/>
</svg>
