<svg width="22" height="22" viewBox="0 0 22 22" fill="none" xmlns="http://www.w3.org/2000/svg">
<path d="M21.545 0.455887C21.4405 0.351007 21.3163 0.267791 21.1795 0.21101C21.0428 0.154229 20.8962 0.125 20.7481 0.125C20.6001 0.125 20.4534 0.154229 20.3167 0.21101C20.18 0.267791 20.0558 0.351007 19.9512 0.455887L15.3059 5.10401L15.0678 4.86495C14.4343 4.23321 13.5761 3.87845 12.6814 3.87845C11.7867 3.87845 10.9285 4.23321 10.295 4.86495L8.37406 6.78307L8.045 6.45307C7.94035 6.34843 7.81612 6.26542 7.67939 6.20878C7.54266 6.15215 7.39612 6.123 7.24812 6.123C6.94924 6.123 6.66259 6.24173 6.45125 6.45307C6.3466 6.55772 6.26359 6.68196 6.20696 6.81868C6.15032 6.95541 6.12117 7.10196 6.12117 7.24995C6.12117 7.54884 6.2399 7.83548 6.45125 8.04682L6.78031 8.37682L4.86219 10.2978C4.2293 10.9307 3.87375 11.7891 3.87375 12.6842C3.87375 13.5792 4.2293 14.4376 4.86219 15.0706L5.10125 15.3087L0.453123 19.9559C0.241779 20.1672 0.123047 20.4539 0.123047 20.7528C0.123047 21.0516 0.241779 21.3383 0.453123 21.5496C0.664468 21.761 0.951112 21.8797 1.25 21.8797C1.54888 21.8797 1.83553 21.761 2.04687 21.5496L6.69406 16.9015L6.93219 17.1406C7.56584 17.7721 8.42398 18.1267 9.31859 18.1267C10.2132 18.1267 11.0713 17.7721 11.705 17.1406L13.6241 15.2206L13.9531 15.5506C14.1645 15.7619 14.4511 15.8807 14.75 15.8807C15.0489 15.8807 15.3355 15.7619 15.5469 15.5506C15.7582 15.3392 15.877 15.0526 15.877 14.7537C15.877 14.4548 15.7582 14.1682 15.5469 13.9568L15.2178 13.6268L17.1387 11.7059C17.7716 11.073 18.1272 10.2145 18.1272 9.31948C18.1272 8.42441 17.7716 7.566 17.1387 6.93307L16.8997 6.69495L21.5478 2.04776C21.6522 1.9431 21.735 1.81887 21.7914 1.6822C21.8477 1.54553 21.8766 1.39908 21.8764 1.25124C21.8761 1.1034 21.8467 0.957058 21.7898 0.820585C21.733 0.684112 21.6498 0.560184 21.545 0.455887ZM10.1122 15.5496C10.0077 15.6545 9.88348 15.7377 9.74673 15.7945C9.60999 15.8513 9.46338 15.8805 9.31531 15.8805C9.16725 15.8805 9.02064 15.8513 8.88389 15.7945C8.74714 15.7377 8.62295 15.6545 8.51844 15.5496L6.45312 13.4796C6.34824 13.3751 6.26503 13.2509 6.20825 13.1142C6.15146 12.9774 6.12224 12.8308 6.12224 12.6828C6.12224 12.5347 6.15146 12.3881 6.20825 12.2513C6.26503 12.1146 6.34824 11.9904 6.45312 11.8859L8.37406 9.97057L12.0303 13.6268L10.1122 15.5496ZM15.5497 10.1168L13.6241 12.0331L9.96781 8.37682L11.8887 6.45589C11.9933 6.35101 12.1175 6.26779 12.2542 6.21101C12.3909 6.15423 12.5376 6.125 12.6856 6.125C12.8337 6.125 12.9803 6.15423 13.117 6.21101C13.2538 6.26779 13.378 6.35101 13.4825 6.45589L15.5506 8.52401C15.6555 8.62853 15.7387 8.75272 15.7955 8.88947C15.8523 9.02621 15.8815 9.17282 15.8815 9.32089C15.8815 9.46895 15.8523 9.61556 15.7955 9.75231C15.7387 9.88905 15.6555 10.0132 15.5506 10.1178L15.5497 10.1168ZM6.99312 2.13026C6.86469 1.86408 6.84617 1.55805 6.94155 1.27832C7.03694 0.998584 7.23857 0.767622 7.50286 0.635351C7.76716 0.50308 8.07289 0.480125 8.35397 0.571447C8.63506 0.66277 8.86891 0.861035 9.005 1.12339L9.755 2.62339C9.82366 2.75575 9.86532 2.90044 9.87756 3.04904C9.8898 3.19765 9.87237 3.3472 9.8263 3.48901C9.78023 3.63083 9.70642 3.76206 9.60917 3.8751C9.51193 3.98813 9.39318 4.0807 9.25984 4.14744C9.1265 4.21417 8.98122 4.25373 8.83246 4.26382C8.68369 4.2739 8.5344 4.25432 8.39327 4.20619C8.25214 4.15807 8.12199 4.08237 8.01038 3.9835C7.89876 3.88463 7.80792 3.76456 7.74312 3.63026L6.99312 2.13026ZM0.618123 7.49839C0.751667 7.23162 0.985701 7.02882 1.26876 6.93458C1.55181 6.84035 1.8607 6.8624 2.1275 6.99589L3.6275 7.74589C3.76179 7.81068 3.88187 7.90153 3.98074 8.01314C4.07961 8.12475 4.15531 8.25491 4.20343 8.39604C4.25155 8.53717 4.27114 8.68645 4.26105 8.83522C4.25097 8.98399 4.21141 9.12926 4.14467 9.26261C4.07794 9.39595 3.98537 9.51469 3.87233 9.61194C3.7593 9.70918 3.62806 9.78299 3.48625 9.82906C3.34444 9.87514 3.19488 9.89256 3.04628 9.88032C2.89767 9.86808 2.75298 9.82642 2.62062 9.75776L1.12062 9.00776C0.853855 8.87422 0.651052 8.64018 0.556818 8.35713C0.462584 8.07408 0.484636 7.76518 0.618123 7.49839ZM21.38 14.5053C21.2465 14.772 21.0124 14.9748 20.7294 15.0691C20.4463 15.1633 20.1374 15.1412 19.8706 15.0078L18.3706 14.2578C18.1083 14.1217 17.91 13.8878 17.8187 13.6067C17.7274 13.3257 17.7503 13.0199 17.8826 12.7556C18.0149 12.4913 18.2458 12.2897 18.5256 12.1943C18.8053 12.0989 19.1113 12.1175 19.3775 12.2459L20.8775 12.9959C21.1443 13.1294 21.3471 13.3635 21.4413 13.6465C21.5355 13.9296 21.5135 14.2385 21.38 14.5053ZM15.005 19.8734C15.0737 20.0057 15.1153 20.1504 15.1276 20.299C15.1398 20.4476 15.1224 20.5972 15.0763 20.739C15.0302 20.8808 14.9564 21.0121 14.8592 21.1251C14.7619 21.2381 14.6432 21.3307 14.5098 21.3974C14.3765 21.4642 14.2312 21.5037 14.0825 21.5138C13.9337 21.5239 13.7844 21.5043 13.6433 21.4562C13.5021 21.4081 13.372 21.3324 13.2604 21.2335C13.1488 21.1346 13.0579 21.0146 12.9931 20.8803L12.2431 19.3803C12.1147 19.1141 12.0962 18.808 12.1916 18.5283C12.2869 18.2486 12.4886 18.0176 12.7529 17.8854C13.0172 17.7531 13.3229 17.7301 13.604 17.8214C13.8851 17.9128 14.1189 18.111 14.255 18.3734L15.005 19.8734Z" fill="#F5F4EF"/>
</svg>
