<svg width="22" height="22" viewBox="0 0 22 22" fill="none" xmlns="http://www.w3.org/2000/svg">
<path d="M21.5453 0.455887C21.4408 0.351007 21.3166 0.267791 21.1798 0.21101C21.0431 0.154229 20.8965 0.125 20.7484 0.125C20.6004 0.125 20.4538 0.154229 20.317 0.21101C20.1803 0.267791 20.0561 0.351007 19.9516 0.455887L15.3062 5.10401L15.0681 4.86495C14.4346 4.23321 13.5764 3.87845 12.6817 3.87845C11.787 3.87845 10.9288 4.23321 10.2953 4.86495L8.37437 6.78307L8.0453 6.45307C7.94066 6.34843 7.81642 6.26542 7.67969 6.20878C7.54297 6.15215 7.39642 6.123 7.24843 6.123C6.94954 6.123 6.6629 6.24173 6.45155 6.45307C6.34691 6.55772 6.2639 6.68196 6.20726 6.81868C6.15063 6.95541 6.12148 7.10196 6.12148 7.24995C6.12148 7.54884 6.24021 7.83548 6.45155 8.04682L6.78062 8.37682L4.86249 10.2978C4.2296 10.9307 3.87406 11.7891 3.87406 12.6842C3.87406 13.5792 4.2296 14.4376 4.86249 15.0706L5.10155 15.3087L0.453429 19.9559C0.242084 20.1672 0.123352 20.4539 0.123352 20.7528C0.123352 21.0516 0.242084 21.3383 0.453429 21.5496C0.664773 21.761 0.951417 21.8797 1.2503 21.8797C1.54919 21.8797 1.83583 21.761 2.04718 21.5496L6.69437 16.9015L6.93249 17.1406C7.56615 17.7721 8.42429 18.1267 9.3189 18.1267C10.2135 18.1267 11.0716 17.7721 11.7053 17.1406L13.6244 15.2206L13.9534 15.5506C14.1648 15.7619 14.4514 15.8807 14.7503 15.8807C15.0492 15.8807 15.3358 15.7619 15.5472 15.5506C15.7585 15.3392 15.8773 15.0526 15.8773 14.7537C15.8773 14.4548 15.7585 14.1682 15.5472 13.9568L15.2181 13.6268L17.1391 11.7059C17.7719 11.073 18.1275 10.2145 18.1275 9.31948C18.1275 8.42441 17.7719 7.566 17.1391 6.93307L16.9 6.69495L21.5481 2.04776C21.6525 1.9431 21.7353 1.81887 21.7917 1.6822C21.848 1.54553 21.8769 1.39908 21.8767 1.25124C21.8764 1.1034 21.847 0.957058 21.7901 0.820585C21.7333 0.684112 21.6501 0.560184 21.5453 0.455887ZM10.1125 15.5496C10.008 15.6545 9.88378 15.7377 9.74704 15.7945C9.61029 15.8513 9.46368 15.8805 9.31562 15.8805C9.16755 15.8805 9.02094 15.8513 8.8842 15.7945C8.74745 15.7377 8.62326 15.6545 8.51874 15.5496L6.45343 13.4796C6.34855 13.3751 6.26533 13.2509 6.20855 13.1142C6.15177 12.9774 6.12254 12.8308 6.12254 12.6828C6.12254 12.5347 6.15177 12.3881 6.20855 12.2513C6.26533 12.1146 6.34855 11.9904 6.45343 11.8859L8.37437 9.97057L12.0306 13.6268L10.1125 15.5496ZM15.55 10.1168L13.6244 12.0331L9.96812 8.37682L11.8891 6.45589C11.9936 6.35101 12.1178 6.26779 12.2545 6.21101C12.3913 6.15423 12.5379 6.125 12.6859 6.125C12.834 6.125 12.9806 6.15423 13.1173 6.21101C13.2541 6.26779 13.3783 6.35101 13.4828 6.45589L15.5509 8.52401C15.6558 8.62853 15.739 8.75272 15.7958 8.88947C15.8526 9.02621 15.8818 9.17282 15.8818 9.32089C15.8818 9.46895 15.8526 9.61556 15.7958 9.75231C15.739 9.88905 15.6558 10.0132 15.5509 10.1178L15.55 10.1168ZM6.99343 2.13026C6.865 1.86408 6.84647 1.55805 6.94186 1.27832C7.03724 0.998584 7.23887 0.767622 7.50317 0.635351C7.76746 0.50308 8.07319 0.480125 8.35428 0.571447C8.63536 0.66277 8.86922 0.861035 9.0053 1.12339L9.7553 2.62339C9.82396 2.75575 9.86562 2.90044 9.87786 3.04904C9.8901 3.19765 9.87268 3.3472 9.8266 3.48901C9.78053 3.63083 9.70673 3.76206 9.60948 3.8751C9.51223 3.98813 9.39349 4.0807 9.26015 4.14744C9.12681 4.21417 8.98153 4.25373 8.83276 4.26382C8.684 4.2739 8.53471 4.25432 8.39358 4.20619C8.25245 4.15807 8.1223 4.08237 8.01068 3.9835C7.89907 3.88463 7.80822 3.76456 7.74343 3.63026L6.99343 2.13026ZM0.618429 7.49839C0.751972 7.23162 0.986007 7.02882 1.26906 6.93458C1.55211 6.84035 1.86101 6.8624 2.1278 6.99589L3.6278 7.74589C3.7621 7.81068 3.88217 7.90153 3.98104 8.01314C4.07991 8.12475 4.15561 8.25491 4.20374 8.39604C4.25186 8.53717 4.27144 8.68645 4.26136 8.83522C4.25127 8.98399 4.21171 9.12926 4.14498 9.26261C4.07825 9.39595 3.98567 9.51469 3.87264 9.61194C3.7596 9.70918 3.62837 9.78299 3.48656 9.82906C3.34474 9.87514 3.19519 9.89256 3.04658 9.88032C2.89798 9.86808 2.75329 9.82642 2.62093 9.75776L1.12093 9.00776C0.85416 8.87422 0.651357 8.64018 0.557123 8.35713C0.462889 8.07408 0.484941 7.76518 0.618429 7.49839ZM21.3803 14.5053C21.2468 14.772 21.0127 14.9748 20.7297 15.0691C20.4466 15.1633 20.1377 15.1412 19.8709 15.0078L18.3709 14.2578C18.1086 14.1217 17.9103 13.8878 17.819 13.6067C17.7277 13.3257 17.7506 13.0199 17.8829 12.7556C18.0152 12.4913 18.2461 12.2897 18.5259 12.1943C18.8056 12.0989 19.1116 12.1175 19.3778 12.2459L20.8778 12.9959C21.1446 13.1294 21.3474 13.3635 21.4416 13.6465C21.5358 13.9296 21.5138 14.2385 21.3803 14.5053ZM15.0053 19.8734C15.074 20.0057 15.1156 20.1504 15.1279 20.299C15.1401 20.4476 15.1227 20.5972 15.0766 20.739C15.0305 20.8808 14.9567 21.0121 14.8595 21.1251C14.7622 21.2381 14.6435 21.3307 14.5101 21.3974C14.3768 21.4642 14.2315 21.5037 14.0828 21.5138C13.934 21.5239 13.7847 21.5043 13.6436 21.4562C13.5024 21.4081 13.3723 21.3324 13.2607 21.2335C13.1491 21.1346 13.0582 21.0146 12.9934 20.8803L12.2434 19.3803C12.115 19.1141 12.0965 18.808 12.1919 18.5283C12.2872 18.2486 12.4889 18.0176 12.7532 17.8854C13.0175 17.7531 13.3232 17.7301 13.6043 17.8214C13.8854 17.9128 14.1192 18.111 14.2553 18.3734L15.0053 19.8734Z" fill="#0057FF"/>
</svg>
