<svg width="60" height="60" viewBox="0 0 60 60" fill="none" xmlns="http://www.w3.org/2000/svg">
<g clip-path="url(#clip0_8246_4)">
<mask id="mask0_8246_4" style="mask-type:luminance" maskUnits="userSpaceOnUse" x="0" y="0" width="60" height="60">
<path d="M0 0.000179291H59.9998V60H0V0.000179291Z" fill="white"/>
<path fill-rule="evenodd" clip-rule="evenodd" d="M59.9998 0.000175476H0V60H59.9998V0.000175476ZM58.242 58.2422H1.75781V1.75799H58.242V58.2422Z" fill="white"/>
</mask>
<g mask="url(#mask0_8246_4)">
<path fill-rule="evenodd" clip-rule="evenodd" d="M43.5486 58.9552C43.7778 59.1204 44.0724 59.1653 44.3404 59.076L58.4029 54.3885C58.7618 54.2689 59.0039 53.933 59.0039 53.5547V32.3438C59.0039 32.0613 58.8681 31.796 58.6389 31.6308C58.4097 31.4656 58.115 31.4207 57.847 31.51L43.7846 36.1975C43.4257 36.3171 43.1836 36.653 43.1836 37.0313V58.2422C43.1836 58.5247 43.3194 58.79 43.5486 58.9552ZM44.9414 57.0228V37.6648L57.2461 33.5632V52.9212L44.9414 57.0228Z" fill="white"/>
<path fill-rule="evenodd" clip-rule="evenodd" d="M44.5764 58.9552C44.8056 58.79 44.9414 58.5247 44.9414 58.2422V37.0313C44.9414 36.653 44.6993 36.3171 44.3404 36.1975L30.2779 31.51C30.0099 31.4207 29.7153 31.4656 29.4861 31.6308C29.2569 31.796 29.1211 32.0613 29.1211 32.3438V53.5547C29.1211 53.933 29.3632 54.2689 29.7221 54.3885L43.7845 59.076C44.0525 59.1653 44.3472 59.1204 44.5764 58.9552ZM30.8789 52.9212V33.5632L43.1836 37.6648V57.0228L30.8789 52.9212Z" fill="white"/>
<path fill-rule="evenodd" clip-rule="evenodd" d="M43.7845 37.8651C43.9649 37.9252 44.16 37.9252 44.3404 37.8651L58.4029 33.1776C58.7617 33.0579 59.0038 32.7221 59.0038 32.3438C59.0038 31.9655 58.7617 31.6296 58.4029 31.51L44.3404 26.8225C44.16 26.7623 43.9649 26.7623 43.7845 26.8225L29.7221 31.51C29.3632 31.6296 29.1211 31.9655 29.1211 32.3438C29.1211 32.7221 29.3632 33.0579 29.7221 33.1776L43.7845 37.8651ZM32.7793 32.3438L44.0625 28.5827L55.3456 32.3438L44.0625 36.1048L32.7793 32.3438Z" fill="white"/>
<path fill-rule="evenodd" clip-rule="evenodd" d="M15.4236 58.9552C15.6528 59.1204 15.9474 59.1653 16.2154 59.076L30.2779 54.3885C30.6368 54.2689 30.8789 53.933 30.8789 53.5547V32.3438C30.8789 32.0613 30.7431 31.796 30.5139 31.6308C30.2847 31.4656 29.99 31.4207 29.722 31.51L15.6596 36.1975C15.3007 36.3171 15.0586 36.653 15.0586 37.0313V58.2422C15.0586 58.5247 15.1944 58.79 15.4236 58.9552ZM16.8164 57.0228V37.6648L29.1211 33.5632V52.9212L16.8164 57.0228Z" fill="white"/>
<path fill-rule="evenodd" clip-rule="evenodd" d="M16.4514 58.9552C16.6806 58.79 16.8164 58.5247 16.8164 58.2422V37.0313C16.8164 36.653 16.5743 36.3171 16.2154 36.1975L2.15293 31.51C1.88491 31.4207 1.59029 31.4656 1.36109 31.6308C1.1319 31.796 0.996094 32.0613 0.996094 32.3438V53.5547C0.996094 53.933 1.23817 54.2689 1.59707 54.3885L15.6595 59.076C15.9275 59.1653 16.2222 59.1204 16.4514 58.9552ZM2.75391 52.9212V33.5632L15.0586 37.6648V57.0228L2.75391 52.9212Z" fill="white"/>
<path fill-rule="evenodd" clip-rule="evenodd" d="M15.6595 37.8651C15.8399 37.9252 16.035 37.9252 16.2154 37.8651L30.2779 33.1776C30.6367 33.0579 30.8788 32.7221 30.8788 32.3438C30.8788 31.9655 30.6367 31.6296 30.2779 31.51L16.2154 26.8225C16.035 26.7623 15.8399 26.7623 15.6595 26.8225L1.59707 31.51C1.23817 31.6296 0.996094 31.9655 0.996094 32.3438C0.996094 32.7221 1.23817 33.0579 1.59707 33.1776L15.6595 37.8651ZM4.65435 32.3438L15.9375 28.5827L27.2206 32.3438L15.9375 36.1048L4.65435 32.3438Z" fill="white"/>
<path fill-rule="evenodd" clip-rule="evenodd" d="M29.4861 33.0567C29.7153 33.2219 30.0099 33.2669 30.2779 33.1775L44.3404 28.4901C44.6993 28.3704 44.9414 28.0346 44.9414 27.6563V6.44538C44.9414 6.16286 44.8056 5.89757 44.5764 5.73238C44.3472 5.56719 44.0525 5.52224 43.7845 5.61158L29.7221 10.2991C29.3632 10.4187 29.1211 10.7546 29.1211 11.1329V32.3437C29.1211 32.6263 29.2569 32.8916 29.4861 33.0567ZM30.8789 31.1243V11.7663L43.1836 7.6648V27.0228L30.8789 31.1243Z" fill="white"/>
<path fill-rule="evenodd" clip-rule="evenodd" d="M30.5139 33.0567C30.7431 32.8916 30.8789 32.6263 30.8789 32.3437V11.1329C30.8789 10.7546 30.6368 10.4187 30.2779 10.2991L16.2154 5.61158C15.9474 5.52224 15.6528 5.56719 15.4236 5.73238C15.1944 5.89757 15.0586 6.16286 15.0586 6.44538V27.6563C15.0586 28.0346 15.3007 28.3704 15.6596 28.4901L29.722 33.1775C29.99 33.2669 30.2847 33.2219 30.5139 33.0567ZM16.8164 27.0228V7.6648L29.1211 11.7663V31.1243L16.8164 27.0228Z" fill="white"/>
<path fill-rule="evenodd" clip-rule="evenodd" d="M29.722 11.9667C29.9024 12.0269 30.0975 12.0269 30.2779 11.9667L44.3404 7.27925C44.6992 7.15962 44.9413 6.82376 44.9413 6.44545C44.9413 6.06714 44.6992 5.73128 44.3404 5.61164L30.2779 0.924159C30.0975 0.864022 29.9024 0.864022 29.722 0.924159L15.6596 5.61164C15.3007 5.73128 15.0586 6.06714 15.0586 6.44545C15.0586 6.82376 15.3007 7.15962 15.6596 7.27925L29.722 11.9667ZM18.7168 6.44545L30 2.68441L41.2831 6.44545L30 10.2065L18.7168 6.44545Z" fill="white"/>
</g>
</g>
<defs>
<clipPath id="clip0_8246_4">
<rect width="60" height="60" fill="white"/>
</clipPath>
</defs>
</svg>
