<svg width="60" height="60" viewBox="0 0 60 60" fill="none" xmlns="http://www.w3.org/2000/svg">
<path d="M57.8621 13.447L50.0886 6.52057C49.4797 5.96733 48.5206 5.56763 47.6003 5.56763H12.4121C12.068 5.56763 11.7327 5.62939 11.4062 5.71763C11.3506 5.71763 11.2818 5.75292 11.265 5.75292C10.7233 5.95233 10.3871 6.10586 9.91503 6.51174C9.63621 6.76057 2.30827 13.2882 2.04444 13.5529C0.667974 14.8376 0.526798 16.9791 1.61209 18.4588C28.5609 55.0376 27.0909 53.1997 27.7474 53.6647C29.0903 54.7032 30.968 54.667 32.2474 53.6823C32.9533 53.1529 31.0774 55.5459 58.3827 18.4588C59.5986 16.8362 59.19 14.6241 57.8621 13.447ZM48.6327 7.62351C48.8833 7.78233 56.745 14.8129 56.865 14.9559H41.6444L48.6327 7.62351ZM46.4709 7.33233L39.518 14.6294L32.1415 7.33233H46.4709ZM37.3386 14.9559H22.6562L29.9974 7.6941L37.3386 14.9559ZM27.8533 7.33233L20.4768 14.6294L13.5239 7.33233H27.8533ZM3.31503 14.7706C3.48268 14.6206 11.1724 7.73998 11.3709 7.63233L18.3503 14.9559H3.13856C3.1915 14.8941 3.24444 14.8235 3.31503 14.7706ZM3.03268 17.4088C2.88268 17.2059 2.7768 16.9765 2.71503 16.7382H19.8062L26.8739 49.7735L3.03268 17.4088ZM30.7562 52.4559C30.2939 52.7329 29.6797 52.7206 29.2562 52.4559L21.6062 16.7382H38.3886L30.7562 52.4559ZM56.9709 17.4088H56.9621L33.1297 49.7735L40.1974 16.7382H57.2886C57.2268 16.9765 57.1209 17.2059 56.9709 17.4088Z" fill="white"/>
</svg>
