<svg width="110" height="96" viewBox="0 0 110 96" fill="none" xmlns="http://www.w3.org/2000/svg">
<path d="M45.8459 12.0566H44.196L43.9849 12.0438C42.6436 11.9622 41.4708 12.9395 41.3089 14.2735C41.1425 15.6482 41.2713 18.206 42.9961 20.3058C42.9961 20.3058 42.9961 18.8059 43.3711 18.506C43.5211 19.3309 44.496 20.3058 44.496 20.3058C44.496 20.3058 44.196 18.956 44.571 18.656C44.721 19.031 45.4709 20.7558 46.2958 21.1307C47.1207 21.5057 48.4706 15.8062 48.4706 15.8062" fill="black"/>
<path d="M45.8462 11.8355H44.3133C44.0764 11.8355 43.8416 11.807 43.6045 11.828C42.6463 11.9068 41.7977 12.4774 41.3633 13.3351C41.177 13.7334 41.0714 14.1646 41.0525 14.6039C40.9915 15.4613 41.0561 16.323 41.2441 17.1617C41.5096 18.3734 42.0553 19.506 42.8374 20.4688C42.9652 20.6255 43.2213 20.4913 43.2214 20.3097C43.2225 20.0619 43.2364 19.8143 43.2633 19.568C43.2811 19.385 43.3129 19.2037 43.3584 19.0256C43.3776 18.9504 43.4025 18.8768 43.4328 18.8053C43.4506 18.7509 43.4847 18.7033 43.5306 18.669L43.1545 18.5697C43.2453 19.0348 43.514 19.46 43.7959 19.8327C43.9618 20.0568 44.1427 20.2693 44.3374 20.4688C44.4105 20.5379 44.5203 20.5506 44.6072 20.5C44.6941 20.4494 44.7373 20.3476 44.7134 20.25C44.6682 20.045 44.6372 19.8372 44.6207 19.628C44.6028 19.4552 44.6021 19.2809 44.6187 19.1079C44.6266 19.0436 44.641 18.9802 44.6615 18.9186C44.6665 18.9002 44.675 18.8828 44.6864 18.8674C44.7211 18.8091 44.6763 18.8858 44.6944 18.8536C44.7047 18.8403 44.7168 18.8287 44.7305 18.819L44.3545 18.7197C44.6646 19.4919 45.0593 20.2923 45.6323 20.9039C45.832 21.117 46.1628 21.4483 46.4895 21.3623C46.6974 21.3075 46.8457 21.1192 46.9614 20.9507C47.32 20.4281 47.532 19.7886 47.737 19.1944C47.978 18.4957 48.1858 17.7856 48.3792 17.0725C48.4875 16.6731 48.5926 16.2726 48.688 15.87C48.7548 15.5884 48.321 15.4683 48.2541 15.7504C48.0263 16.7116 47.7615 17.667 47.4588 18.6072C47.2763 19.2277 47.0414 19.8315 46.7566 20.4122C46.7028 20.5171 46.643 20.6188 46.5775 20.7168C46.5624 20.739 46.5469 20.7607 46.531 20.7823C46.5123 20.8078 46.5577 20.754 46.5155 20.801C46.486 20.8337 46.4549 20.864 46.4246 20.8957C46.3846 20.9375 46.4372 20.89 46.4209 20.8998C46.4057 20.9079 46.391 20.917 46.3769 20.927C46.3398 20.9573 46.414 20.9157 46.3871 20.9232C46.327 20.9401 46.3871 20.9271 46.3872 20.9271C46.3435 20.9259 46.3837 20.9244 46.4052 20.9329C46.3854 20.9251 46.3373 20.907 46.4098 20.9404C46.3307 20.9041 46.2558 20.8592 46.1866 20.8064C45.7959 20.5075 45.5212 20.049 45.2848 19.6266C45.1678 19.4175 45.0594 19.2036 44.958 18.9864C44.9191 18.9032 44.8814 18.8193 44.8447 18.735C44.8392 18.7222 44.8337 18.7094 44.8282 18.6966C44.8022 18.6364 44.8446 18.7366 44.8217 18.6816C44.8105 18.6545 44.7993 18.6273 44.7883 18.6001C44.7652 18.5244 44.7045 18.466 44.628 18.4458C44.5514 18.4256 44.4698 18.4464 44.4123 18.5008C44.1287 18.7444 44.1434 19.2289 44.1661 19.5664C44.1839 19.8366 44.2217 20.105 44.2795 20.3696L44.6555 20.1507C44.4866 19.9796 44.3292 19.7976 44.1845 19.6056C43.9238 19.2631 43.6721 18.8787 43.5885 18.4502C43.5534 18.2706 43.3304 18.2506 43.2124 18.3509C42.9145 18.604 42.8676 19.1164 42.8238 19.4764C42.7898 19.7529 42.7723 20.0312 42.7716 20.3098L43.1556 20.1507C41.9624 18.6878 41.4169 16.776 41.4859 14.9031C41.4856 14.5405 41.5376 14.1797 41.6403 13.8318C41.9212 13.0141 42.6335 12.4205 43.4885 12.2918C43.7407 12.2696 43.9943 12.2676 44.2468 12.2856C44.7799 12.2881 45.3131 12.2856 45.8462 12.2856C46.1358 12.2856 46.1363 11.8356 45.8462 11.8356L45.8462 11.8355Z" fill="black"/>
<path d="M72.8457 55.5372L79.1892 41.343C80.2237 39.0284 82.6214 37.8417 84.9011 38.516C86.7111 39.0514 87.9166 40.9133 87.7728 42.9514L86.8848 55.5372H101.27C106.837 55.5372 110.86 61.3386 109.342 67.1761L104.452 85.9672C103.429 89.9014 100.133 92.6166 96.3809 92.6166H67.3057V55.5372L72.8457 55.5372Z" fill="#0057FF"/>
<path d="M73.0399 55.6573L75.512 50.1258L79.007 42.3054C79.4367 41.344 79.8549 40.4145 80.6687 39.6946C82.3967 38.1659 85.2467 38.1255 86.7064 40.0481C87.3285 40.8891 87.6269 41.9259 87.547 42.9689C87.5312 43.2157 87.5122 43.4622 87.4948 43.7089L87.2205 47.5962L86.6708 55.3879L86.6598 55.5438C86.661 55.6675 86.761 55.7675 86.8848 55.7688H99.3855C100.311 55.7688 101.266 55.7138 102.187 55.822C104.641 56.1106 106.785 57.6507 108.06 59.7354C109.395 61.9546 109.778 64.6179 109.124 67.1234C108.966 67.7388 108.804 68.3532 108.645 68.9681L107.515 73.3087L106.133 78.6204L104.912 83.3135C104.695 84.1471 104.478 84.9807 104.261 85.8143C103.735 87.8341 102.601 89.6827 100.893 90.9137C99.5267 91.8935 97.8843 92.4135 96.2031 92.3982H67.3056L67.5306 92.6232V56.106C67.5412 55.9395 67.5412 55.7724 67.5306 55.6059C67.5293 55.5852 67.5293 55.5644 67.5306 55.5438L67.3056 55.7688H72.8457C73.1352 55.7688 73.1357 55.3188 72.8457 55.3188H67.3056C67.1821 55.3206 67.0824 55.4203 67.0806 55.5438V91.1146C67.0806 91.5959 67.0662 92.0799 67.0806 92.5611C67.0813 92.5817 67.0806 92.6025 67.0806 92.6231C67.0824 92.7467 67.1821 92.8464 67.3056 92.8481H95.609C96.4902 92.8481 97.356 92.8372 98.2232 92.632C100.72 92.0411 102.805 90.245 103.942 87.9689C104.422 87.0099 104.679 85.9949 104.947 84.9669L105.965 81.053L107.338 75.7762L108.644 70.7565L109.462 67.6136C109.877 66.0166 110.02 64.4016 109.707 62.7686C109.243 60.3466 107.852 58.1019 105.8 56.713C104.34 55.7245 102.676 55.3188 100.931 55.3188H86.8848L87.1098 55.5438L87.6031 48.551L87.9102 44.1986C87.9871 43.1093 88.1104 42.0426 87.7201 40.985C87.3264 39.9179 86.5442 38.9847 85.4988 38.5091C84.4668 38.0532 83.305 37.9848 82.2267 38.3166C80.6445 38.8 79.542 40.0118 78.8832 41.4859L75.7131 48.5795L72.7035 55.3138L72.6514 55.4302C72.5343 55.6924 72.9219 55.9215 73.0399 55.6573Z" fill="black"/>
<rect x="51.1611" y="53.0078" width="19.6989" height="42.0602" rx="9.84945" fill="black"/>
<path d="M60.2043 95.2914C60.9753 95.2914 61.7554 95.3237 62.5248 95.2642C66.5587 94.9581 69.9274 92.0694 70.8452 88.1293C71.0802 87.1131 71.0856 86.098 71.0856 85.0661V62.333C71.0856 60.6031 70.7196 58.928 69.8482 57.4192C68.536 55.1592 66.3364 53.5528 63.7842 52.9906C62.7705 52.7731 61.7541 52.7813 60.7247 52.7813C59.6174 52.7813 58.5342 52.8622 57.469 53.1917C53.5949 54.3882 50.9485 57.9644 50.9368 62.0191C50.9362 62.1764 50.9367 62.3337 50.9367 62.491V85.3003C50.9367 85.5299 50.9367 85.7594 50.9367 85.989C50.9268 88.4531 51.8989 90.8197 53.638 92.5654C55.3772 94.3111 57.7401 95.2921 60.2043 95.2914C60.4938 95.2923 60.4942 94.8424 60.2043 94.8415C57.8515 94.8421 55.5961 93.9022 53.94 92.2309C52.284 90.5597 51.3647 88.2959 51.3867 85.9432C51.3864 85.185 51.3864 84.4269 51.3867 83.6687V63.786C51.3867 63.2074 51.3851 62.6287 51.3867 62.05C51.3954 59.5118 52.4888 57.0983 54.3912 55.418C55.3478 54.5772 56.4757 53.9544 57.6968 53.5928C58.7328 53.2869 59.7741 53.2312 60.8453 53.2312C61.8622 53.2312 62.8619 53.2312 63.8594 53.4686C67.7362 54.3908 70.5125 57.7989 70.6317 61.7822C70.6493 62.3891 70.6357 62.9981 70.6357 63.6053V85.8934C70.6521 87.8392 70.0369 89.7378 68.8823 91.3041C67.3189 93.3858 64.919 94.6745 62.3201 94.8277C61.617 94.8662 60.9081 94.8415 60.2043 94.8415C59.9147 94.8415 59.9143 95.2914 60.2043 95.2914Z" fill="black"/>
<path d="M47.7958 39.5771L31.084 42.007C31.2339 40.5379 32.6219 35.2315 32.4177 33.2674C32.3134 32.2498 32.1574 31.2383 31.9503 30.2367L44.4961 28.4781L49.2207 28.3281" fill="#F5F4EF"/>
<path d="M47.7366 39.3666L46.0709 39.6088L42.072 40.1903L37.2511 40.8912L33.0837 41.4971L31.7059 41.6975C31.4908 41.7288 31.2651 41.7441 31.0529 41.7924C31.0438 41.7945 31.0341 41.7952 31.0248 41.7965L31.3096 42.0135C31.3142 41.9694 31.3194 41.9253 31.325 41.8813C31.3303 41.8392 31.3252 41.8796 31.3242 41.8871C31.3259 41.8747 31.3276 41.8622 31.3294 41.8498C31.3342 41.8172 31.3389 41.7846 31.3438 41.752C31.3631 41.626 31.3846 41.5002 31.407 41.3746C31.4609 41.0727 31.5201 40.7718 31.5804 40.4711C31.7333 39.7081 31.8933 38.9465 32.0437 38.183C32.2043 37.3683 32.357 36.5516 32.4774 35.7299C32.5921 35.0492 32.6543 34.3606 32.6635 33.6703C32.6439 33.1636 32.5919 32.6588 32.5079 32.1588C32.4168 31.4967 32.3034 30.8382 32.1678 30.1832L32.0107 30.46L34.2337 30.1484L38.9667 29.485L43.306 28.8767L44.4173 28.7209C44.4535 28.7159 44.4897 28.7109 44.5259 28.7057C44.5904 28.6965 44.5116 28.7159 44.5004 28.7093C44.526 28.7244 44.6144 28.7057 44.6428 28.7048L44.9717 28.6944L49.1155 28.5628L49.2213 28.5595C49.5101 28.5503 49.5114 28.1003 49.2213 28.1095L45.4084 28.2307C45.0749 28.2268 44.7415 28.2405 44.4094 28.2716C44.1244 28.3111 43.8395 28.351 43.5546 28.3914L39.4671 28.9643L34.625 29.6431L32.8204 29.896C32.5255 29.9373 32.2247 29.9651 31.932 30.0205C31.9185 30.0231 31.9047 30.0244 31.8911 30.0263C31.7725 30.0609 31.7029 30.1835 31.7339 30.303C31.8533 30.877 31.9552 31.4542 32.0394 32.0347C32.1222 32.5248 32.1791 33.0189 32.2099 33.515C32.2196 34.1591 32.1721 34.8027 32.0681 35.4384C31.8455 37.0269 31.5011 38.5958 31.1836 40.1671C31.0601 40.778 30.9241 41.3929 30.8595 42.0136C30.8427 42.1752 31.016 42.2492 31.1443 42.2305L32.8101 41.9883L36.809 41.4069L41.6298 40.7059L45.7972 40.1L47.175 39.8996C47.3911 39.8682 47.6142 39.8497 47.828 39.8047C47.8372 39.8028 47.8468 39.802 47.8561 39.8006C47.9754 39.7669 48.0455 39.6436 48.0133 39.5239C47.9776 39.4061 47.8559 39.337 47.7365 39.3667L47.7366 39.3666Z" fill="black"/>
<path d="M31.0328 41.9919C31.7601 41.9162 32.2741 40.5671 32.4818 38.5312L28.793 38.5454C29.4313 40.7028 30.2619 42.072 31.0328 41.9919Z" fill="black"/>
<path d="M31.0325 42.2153C31.6067 42.1465 31.9311 41.6182 32.1378 41.1291C32.4837 40.3107 32.6156 39.4074 32.7066 38.5297C32.7055 38.4059 32.6054 38.3058 32.4816 38.3047L29.2506 38.3171L28.7927 38.3188C28.7228 38.3197 28.6572 38.3527 28.6148 38.4083C28.5725 38.464 28.5581 38.536 28.5758 38.6036C28.8478 39.5178 29.1714 40.4603 29.6973 41.2639C29.9851 41.7038 30.441 42.2675 31.0325 42.2153C31.3187 42.1899 31.3214 41.7398 31.0325 41.7653C30.8633 41.7762 30.697 41.7175 30.5721 41.6029C30.3553 41.4166 30.1715 41.1949 30.0287 40.9473C29.5587 40.1919 29.262 39.3321 29.0097 38.484L28.7927 38.7688L32.0237 38.7564L32.4816 38.7546L32.2566 38.5297C32.1748 39.3191 32.0504 40.1271 31.7608 40.8704C31.6769 41.1018 31.5571 41.3185 31.4059 41.5127C31.3511 41.5804 31.2868 41.6398 31.2148 41.6889C31.1945 41.7019 31.1736 41.7134 31.1524 41.7248C31.1043 41.7508 31.1624 41.7248 31.124 41.7383C31.0974 41.7476 30.9898 41.7704 31.0325 41.7653C30.9098 41.7689 30.8112 41.8675 30.8075 41.9902C30.8082 42.1142 30.9086 42.2145 31.0325 42.2153Z" fill="black"/>
<path d="M32.4179 33.2728C32.3136 32.2553 32.1576 31.2438 31.9505 30.2421L27.7175 30.7985L26.5132 30.9567L23.9095 12.2891L16.5479 13.4332L17.5789 32.2049C18.1415 36.1133 21.5787 39.0105 25.5245 39.1596L28.0838 39.0792L32.4817 38.5326C32.6316 37.0635 32.6221 35.2369 32.4179 33.2728Z" fill="#F5F4EF"/>
<path d="M32.6423 33.2666C32.5357 32.2291 32.377 31.1976 32.1668 30.1761C32.1399 30.0784 32.0511 30.0108 31.9499 30.0109L29.8192 30.2909L27.7161 30.5673L26.5126 30.7255L26.7295 30.8907L26.4698 29.0289L25.8465 24.5596L25.0969 19.185L24.4457 14.5157L24.2313 12.9789C24.1979 12.739 24.178 12.4921 24.1303 12.2545C24.1282 12.2442 24.1274 12.2334 24.1259 12.223C24.1078 12.0934 23.9557 12.0493 23.8491 12.0658L21.3555 12.4534L17.398 13.0684L16.4874 13.2099C16.3898 13.2368 16.3222 13.3256 16.3223 13.4269L16.3962 14.7725L16.5817 18.1495L16.8236 22.5542L17.0685 27.014L17.2627 30.5486C17.2925 31.0911 17.3091 31.6361 17.3522 32.1777C17.3832 32.4733 17.4387 32.7657 17.518 33.0521C17.6516 33.5771 17.8375 34.0873 18.073 34.5752C18.53 35.519 19.1617 36.3677 19.9346 37.0764C20.7201 37.7961 21.6295 38.3675 22.6188 38.763C23.1108 38.9608 23.6202 39.1122 24.1403 39.2152C24.6 39.3154 25.0685 39.3699 25.5389 39.3779C26.1366 39.375 26.7359 39.3403 27.3333 39.3215C27.6616 39.3111 27.9873 39.3098 28.313 39.2693L32.1474 38.7928L32.4811 38.7513C32.6034 38.7467 32.7014 38.6486 32.7061 38.5264C32.8627 36.7754 32.8413 35.0131 32.6423 33.2665C32.6389 33.1437 32.5401 33.0449 32.4173 33.0416C32.2934 33.0424 32.1931 33.1426 32.1923 33.2665C32.3914 35.0131 32.4128 36.7754 32.2562 38.5264L32.4811 38.3014L29.0986 38.7217C28.7536 38.7646 28.4042 38.8285 28.0569 38.8487C27.4553 38.8838 26.85 38.8867 26.2476 38.9056C26.0134 38.913 25.7786 38.9258 25.5442 38.9278C25.0989 38.9219 24.6554 38.8702 24.2207 38.7734C23.2049 38.5674 22.2361 38.1745 21.3637 37.6147C19.6058 36.496 18.36 34.7291 17.8966 32.6976C17.8509 32.52 17.8189 32.3392 17.801 32.1567C17.798 32.0869 17.7933 32.0172 17.7895 31.9474L17.7414 31.0729L17.5658 27.8757L17.3287 23.5591L17.083 19.0853L16.8814 15.4161L16.7769 13.5138L16.7722 13.427L16.607 13.6439L19.1006 13.2564L23.0581 12.6413L23.9687 12.4998L23.692 12.3427L23.9516 14.2045L24.575 18.6737L25.3246 24.0484L25.9758 28.7176L26.1901 30.2544C26.2236 30.4942 26.2432 30.7413 26.2912 30.9788C26.2933 30.9892 26.2941 30.9999 26.2956 31.0104C26.322 31.1083 26.4111 31.1761 26.5125 31.1755L28.2208 30.951L31.1272 30.569L31.9498 30.4609L31.7329 30.2958C31.9358 31.2777 32.0891 32.2693 32.1923 33.2666C32.1957 33.3895 32.2944 33.4882 32.4172 33.4916C32.5412 33.4908 32.6415 33.3905 32.6423 33.2666Z" fill="black"/>
<path d="M24.0702 13.4391L23.2511 6.75328L23.0318 4.22315C22.9987 3.84124 22.7597 3.50788 22.4087 3.3539C22.0576 3.19992 21.6505 3.24989 21.3471 3.48421C21.1899 3.60564 21.0705 3.76925 21.0027 3.95597L20.1324 6.35266L17.0002 5.96176C16.2874 5.87152 15.5687 6.07546 15.0096 6.52659C14.4505 6.97773 14.0993 7.63712 14.0369 8.35281L13.7629 11.4957C13.6761 12.4924 14.1597 13.4527 15.0124 13.9761C16.0269 14.599 16.6712 15.68 16.7365 16.8686L16.8245 18.47" fill="#F5F4EF"/>
<path d="M24.2951 13.4379L24.0148 11.1502L23.571 7.52786C23.4912 6.87632 23.4305 6.22683 23.3738 5.57257C23.3348 5.12252 23.3019 4.67144 23.2567 4.22197C23.2263 3.79177 22.98 3.40626 22.6025 3.19773C22.225 2.9892 21.7676 2.98603 21.3873 3.18931C20.8598 3.46956 20.7242 4.06395 20.5364 4.58133L19.9544 6.1842L19.9154 6.29166L20.1323 6.12649L17.3078 5.77398C17.1851 5.75865 17.0624 5.74141 16.9393 5.72866C16.4959 5.68362 16.0481 5.74531 15.6334 5.90859C14.8161 6.23017 14.1884 6.90475 13.9265 7.74314C13.7947 8.17333 13.7863 8.64526 13.7474 9.0913L13.5909 10.8863C13.5476 11.3829 13.4891 11.8658 13.5997 12.361C13.706 12.8236 13.9249 13.2528 14.2369 13.6105C14.5491 13.9712 14.9677 14.1711 15.3231 14.4773C16.0252 15.0816 16.4536 15.9436 16.5114 16.8681C16.5401 17.3478 16.5642 17.8278 16.5905 18.3076L16.5994 18.4688C16.6152 18.7568 17.0652 18.7586 17.0493 18.4688L16.9723 17.0663C16.9308 16.3102 16.757 15.5918 16.3345 14.9521C16.0733 14.558 15.7432 14.2142 15.3599 13.9373C15.1831 13.8088 14.9904 13.7053 14.8245 13.5619C14.3064 13.1189 13.9993 12.4777 13.9788 11.7963C13.978 11.628 13.9869 11.4598 14.0055 11.2924C14.0902 10.3203 14.1728 9.34787 14.2597 8.37588C14.3234 7.65279 14.7069 6.99599 15.3053 6.5851C15.836 6.23735 16.4771 6.09955 17.1038 6.19852L20.0497 6.56616L20.1324 6.57653C20.2333 6.57577 20.3217 6.50849 20.3493 6.41135L20.7894 5.19945C20.9355 4.79711 21.0588 4.37577 21.2318 3.98389C21.3858 3.6287 21.7666 3.42893 22.1463 3.50412C22.4934 3.57472 22.7579 3.85696 22.8059 4.20785C22.8616 4.62583 22.8788 5.05278 22.9152 5.47275C22.9708 6.11364 23.0261 6.75163 23.1043 7.38991L23.5226 10.8044C23.6284 11.6679 23.7324 12.5317 23.8399 13.3949C23.8417 13.4092 23.8434 13.4236 23.8452 13.4379C23.8489 13.5606 23.9475 13.6592 24.0702 13.6629C24.1941 13.6621 24.2944 13.5618 24.2951 13.4379L24.2951 13.4379Z" fill="black"/>
<path d="M16.6367 13.9664C16.6367 13.9664 19.2199 14.4765 19.8948 14.4426C20.5696 14.4086 21.2529 13.7523 20.5586 13.057C20.9899 12.9632 21.2939 12.1637 20.7753 11.4866C21.3544 11.3043 21.4306 10.7235 20.8841 9.9397C21.1059 9.78729 21.274 9.56879 21.3643 9.31532C21.4208 9.11558 21.3891 8.90124 21.2774 8.72633C21.1657 8.55141 20.9845 8.43262 20.7795 8.39989L17.7738 7.85931C17.217 7.76386 16.8331 7.24828 16.9012 6.6875" fill="#F5F4EF"/>
<path d="M16.5762 14.1815C17.1292 14.2906 17.6841 14.3901 18.2409 14.48C18.6403 14.5445 19.0412 14.606 19.444 14.6448C19.8327 14.6821 20.2144 14.6758 20.5604 14.4643C20.8131 14.323 20.994 14.0811 21.0581 13.7988C21.1182 13.4495 20.9536 13.1421 20.7169 12.8961L20.6177 13.2722C20.9448 13.1899 21.1601 12.8807 21.2352 12.5661C21.3266 12.148 21.2292 11.7109 20.9688 11.3713L20.8343 11.7018C21.1724 11.5889 21.4261 11.3474 21.4705 10.983C21.5213 10.5668 21.3051 10.1563 21.0777 9.82432L20.997 10.1321C21.2804 9.91529 21.5475 9.62587 21.6069 9.25949C21.6601 8.90531 21.5086 8.55148 21.2157 8.34543C20.9735 8.17011 20.655 8.14811 20.369 8.09666L17.962 7.66378C17.817 7.64669 17.6761 7.60481 17.5452 7.53998C17.3968 7.45643 17.2765 7.33063 17.1996 7.17857C17.1619 7.10377 17.1361 7.02354 17.1231 6.94078C17.1185 6.90903 17.1161 6.87701 17.1158 6.84494C17.1155 6.82986 17.1249 6.69288 17.1174 6.74548C17.1462 6.62623 17.0775 6.5051 16.9603 6.46873C16.8406 6.43661 16.7173 6.50662 16.6835 6.62587C16.5889 7.30538 17.0407 7.94079 17.7136 8.07449C17.945 8.12021 18.1782 8.15806 18.4104 8.19981C19.1611 8.33483 19.9123 8.46763 20.6627 8.60489C20.8458 8.62181 21.0106 8.72341 21.1079 8.87951C21.2899 9.20488 21.0238 9.54932 20.7699 9.74362C20.6645 9.80776 20.6288 9.94383 20.6892 10.0514C20.9207 10.3893 21.2985 11.0729 20.7147 11.2679C20.5906 11.3093 20.4886 11.4744 20.5803 11.5984C20.7673 11.8251 20.8504 12.12 20.8091 12.411C20.7751 12.5918 20.6745 12.7939 20.4981 12.8383C20.4217 12.8606 20.3626 12.9213 20.3423 12.9983C20.322 13.0752 20.3435 13.1571 20.3988 13.2143C20.5454 13.3667 20.683 13.5727 20.5964 13.7909C20.5114 13.963 20.3607 14.0936 20.1783 14.1533C19.9023 14.2571 19.5982 14.2127 19.3125 14.1811C18.6168 14.1041 17.9255 13.9778 17.2376 13.8506C17.0568 13.8171 16.8762 13.7832 16.6958 13.7477C16.413 13.6918 16.2919 14.1254 16.5762 14.1815L16.5762 14.1815Z" fill="black"/>
<path d="M20.0729 6.13313C19.9706 6.16851 19.8738 6.21807 19.7853 6.28035C19.5686 6.43015 19.3842 6.6219 19.2429 6.84427C19.1337 7.01801 19.0462 7.20449 18.9824 7.39953C18.9503 7.51923 19.0203 7.64254 19.1395 7.67629C19.259 7.70627 19.3809 7.63706 19.4163 7.51914C19.4303 7.47802 19.445 7.43717 19.4609 7.39677C19.4642 7.3884 19.4678 7.38012 19.471 7.37172C19.4829 7.34087 19.4554 7.40621 19.4689 7.37657C19.4773 7.35824 19.4852 7.33971 19.4937 7.32151C19.5265 7.25099 19.5632 7.18233 19.6036 7.11585C19.6215 7.08638 19.6402 7.05738 19.6597 7.02888C19.6677 7.01715 19.6759 7.00551 19.6842 6.99395C19.6892 6.98696 19.7273 6.93844 19.7036 6.96694C19.6792 6.99621 19.7136 6.95464 19.7191 6.94787C19.7286 6.93621 19.7383 6.92469 19.7481 6.91331C19.7682 6.88996 19.7889 6.86715 19.8102 6.84487C19.8463 6.80724 19.884 6.77135 19.9235 6.7372C19.9412 6.72195 19.9604 6.7081 19.9778 6.69254C19.9614 6.70718 19.9339 6.72576 19.9659 6.70204C19.9742 6.69582 19.9827 6.68968 19.9912 6.68361C20.0456 6.64472 20.1029 6.61016 20.1627 6.58028C20.1739 6.57477 20.1852 6.56968 20.1964 6.5644C20.2376 6.54501 20.1349 6.58779 20.171 6.57507C20.1782 6.57251 20.1852 6.56941 20.1925 6.567C20.2701 6.54567 20.3303 6.48457 20.3506 6.40675C20.3709 6.32892 20.3481 6.24619 20.2908 6.18975C20.2335 6.1333 20.1504 6.11172 20.0729 6.13313H20.0729Z" fill="black"/>
<path d="M20.8835 9.92876L17.6426 9.45312L20.8835 9.92876Z" fill="#F5F4EF"/>
<path d="M20.9434 9.70879L18.1115 9.29317L17.7025 9.23314C17.5832 9.20424 17.4621 9.27305 17.4258 9.39029C17.3937 9.50998 17.4637 9.63326 17.5829 9.66703L20.4148 10.0826L20.8237 10.1427C20.943 10.1716 21.0642 10.1028 21.1005 9.98554C21.1326 9.86584 21.0626 9.74256 20.9434 9.70879Z" fill="black"/>
<path d="M20.8424 11.4991L17.6016 11.0234L20.8424 11.4991Z" fill="#F5F4EF"/>
<path d="M20.9023 11.2791L18.0705 10.8635L17.6615 10.8035C17.5422 10.7746 17.421 10.8434 17.3847 10.9606C17.3526 11.0803 17.4226 11.2036 17.5419 11.2373L20.3737 11.653L20.7827 11.713C20.9019 11.7419 21.0231 11.6731 21.0594 11.5559C21.0915 11.4362 21.0215 11.3129 20.9023 11.2791H20.9023Z" fill="black"/>
<path d="M20.5202 12.9834L17.2793 12.5078L20.5202 12.9834Z" fill="#F5F4EF"/>
<path d="M20.5801 12.7635L17.7482 12.3479L17.3392 12.2878C17.22 12.2589 17.0988 12.3277 17.0625 12.445C17.0304 12.5647 17.1004 12.6879 17.2196 12.7217L20.0515 13.1373L20.4604 13.1973C20.5797 13.2263 20.7009 13.1574 20.7372 13.0402C20.7693 12.9205 20.6993 12.7972 20.5801 12.7635Z" fill="black"/>
<path d="M24.9043 1.32895L23.7028 2.29909L23.5324 2.43658C23.4449 2.52459 23.4449 2.66675 23.5324 2.75475C23.6217 2.83916 23.7613 2.83916 23.8506 2.75475L25.0521 1.78461L25.2224 1.64712C25.3099 1.55912 25.3099 1.41695 25.2224 1.32895C25.1332 1.24452 24.9935 1.24452 24.9043 1.32895H24.9043Z" fill="black"/>
<path d="M25.9196 3.56948L24.3959 3.81891L24.1796 3.85432C24.0603 3.88814 23.9904 4.01139 24.0224 4.13108C24.0579 4.24899 24.1798 4.3182 24.2992 4.28821L25.8229 4.03878L26.0392 4.00337C26.1584 3.96957 26.2284 3.84631 26.1963 3.72661C26.1609 3.60871 26.039 3.5395 25.9196 3.56948Z" fill="black"/>
<path d="M22.5138 0.224986L22.3341 1.75848L22.3086 1.97621C22.3093 2.10017 22.4096 2.20047 22.5336 2.20118C22.6566 2.19832 22.7557 2.09925 22.7586 1.97621L22.9383 0.442714L22.9638 0.224986C22.9631 0.101027 22.8628 0.000711139 22.7388 0C22.6157 0.00285929 22.5167 0.101933 22.5138 0.224986H22.5138Z" fill="black"/>
<path d="M16.5845 69.7781H20.872C21.1615 69.7781 21.162 69.3281 20.872 69.3281H16.5845C16.295 69.3281 16.2945 69.7781 16.5845 69.7781Z" fill="black"/>
<path d="M41.2199 81.0758L41.2159 88.1521L32.6758 86.0107V78.2031" fill="#F5F4EF"/>
<path d="M40.9953 81.0743L40.994 83.4662L40.9918 87.2775L40.9913 88.1507L41.2761 87.9338L38.3926 87.2108L33.7945 86.0578L32.736 85.7924L32.9011 86.0093V78.2017C32.9011 77.9122 32.4512 77.9117 32.4512 78.2017V86.0093C32.4524 86.1101 32.5195 86.1982 32.6163 86.2263L35.4998 86.9493L40.098 88.1022L41.1565 88.3677C41.2241 88.3852 41.2961 88.3708 41.3516 88.3284C41.4072 88.2861 41.4403 88.2206 41.4413 88.1507L41.4427 85.7588L41.4449 81.9476L41.4454 81.0743C41.4455 80.7848 40.9956 80.7844 40.9954 81.0743L40.9953 81.0743Z" fill="black"/>
<path d="M43.6795 50.0078L41.7337 50.0558C41.7337 50.0558 41.0591 52.2081 42.8902 53.1396C44.669 54.0446 43.6795 50.0078 43.6795 50.0078Z" fill="black"/>
<path d="M43.6786 49.7813L41.7328 49.8293C41.6323 49.8314 41.5446 49.8982 41.5158 49.9945C41.3917 50.4179 41.3539 50.8619 41.4048 51.3002C41.4807 52.1687 41.9988 52.9367 42.7756 53.3324C43.0191 53.4554 43.312 53.5527 43.582 53.4566C43.8175 53.3584 43.9951 53.1579 44.0641 52.9124C44.253 52.3834 44.1869 51.7524 44.1194 51.2072C44.0692 50.783 43.9945 50.362 43.8956 49.9465C43.8268 49.6654 43.3928 49.7844 43.4617 50.0661C43.5334 50.3594 43.588 50.6578 43.634 50.9561C43.6717 51.2004 43.7023 51.4547 43.7184 51.7351C43.7264 51.8744 43.7301 52.0139 43.727 52.1533C43.7255 52.2161 43.7228 52.2788 43.7181 52.3414C43.716 52.3699 43.7135 52.3983 43.7106 52.4266C43.7092 52.4406 43.7076 52.4545 43.706 52.4684C43.6996 52.5238 43.7109 52.4406 43.703 52.4901C43.686 52.6014 43.6586 52.7109 43.6212 52.8171C43.61 52.8486 43.6367 52.7921 43.6109 52.8404C43.5995 52.8616 43.5893 52.883 43.5769 52.9037C43.5663 52.9213 43.555 52.9381 43.5432 52.9549C43.5246 52.9813 43.5798 52.9141 43.5461 52.95C43.5379 52.9588 43.53 52.9679 43.5214 52.9765C43.5076 52.9901 43.455 53.0266 43.5077 52.9919C43.4922 53.0021 43.4752 53.011 43.4601 53.0217C43.4134 53.0549 43.487 53.0193 43.4421 53.0298C43.4206 53.0348 43.3995 53.0411 43.3778 53.0458C43.4431 53.0318 43.3698 53.0458 43.3518 53.0453C43.3262 53.0446 43.301 53.0439 43.2756 53.0413C43.3269 53.0466 43.263 53.0382 43.244 53.0335C43.2107 53.0254 43.1779 53.0163 43.1454 53.0053C42.9741 52.9384 42.8126 52.849 42.665 52.7393C42.5127 52.6292 42.377 52.4976 42.2622 52.3487C42.0569 52.0697 41.9222 51.7452 41.8694 51.4029C41.8443 51.2415 41.8333 51.0783 41.8367 50.915C41.8377 50.8376 41.8414 50.7602 41.8477 50.683C41.8505 50.6475 41.8539 50.6121 41.8578 50.5768C41.8593 50.5633 41.8609 50.5498 41.8625 50.5364C41.8684 50.4862 41.857 50.5719 41.8647 50.5192C41.8826 50.3822 41.9111 50.2467 41.9498 50.1141L41.7329 50.2793L43.6786 50.2313C43.9676 50.2242 43.9687 49.7742 43.6786 49.7813Z" fill="black"/>
<path d="M57.8589 47.6719C57.8589 47.6719 61.1997 48.3143 61.5852 50.2418C61.9707 52.1692 57.0879 52.6189 57.0879 52.6189" fill="black"/>
<path d="M57.7994 47.8918C58.3033 47.9942 58.7957 48.1465 59.2695 48.3465C60.0233 48.6574 60.8582 49.1295 61.2339 49.8964C61.2754 49.9821 61.309 50.0713 61.3345 50.1631C61.3497 50.2167 61.362 50.2709 61.3726 50.3256C61.3741 50.3335 61.3797 50.3701 61.3741 50.3282C61.3777 50.3552 61.3799 50.3826 61.3811 50.4098C61.3827 50.4429 61.3826 50.4761 61.3809 50.5092C61.3799 50.5287 61.3783 50.5481 61.3762 50.5675C61.3822 50.5125 61.3747 50.5753 61.3728 50.5838C61.3657 50.6149 61.3593 50.6457 61.3503 50.6764C61.3449 50.6947 61.3384 50.7125 61.3326 50.7306C61.3283 50.7426 61.3238 50.7544 61.3191 50.7662C61.3284 50.7448 61.3297 50.7415 61.323 50.7564C61.188 51.0225 60.9762 51.242 60.715 51.3864C60.0709 51.7929 59.3089 51.9976 58.5592 52.1597C58.2043 52.2364 57.8468 52.2996 57.4867 52.3493C57.4708 52.3515 57.4548 52.3537 57.4389 52.3559C57.3926 52.3623 57.487 52.3497 57.4384 52.3559C57.4087 52.3597 57.3791 52.3636 57.3494 52.3673C57.3034 52.3731 57.2575 52.3786 57.2115 52.3838C57.1705 52.3884 57.1294 52.393 57.0883 52.3968C56.9654 52.4001 56.8665 52.4989 56.8633 52.6218C56.8642 52.7457 56.9644 52.8459 57.0883 52.8468C57.5496 52.8013 58.0082 52.7317 58.4622 52.6385C59.2686 52.4778 60.1006 52.2607 60.819 51.8489C61.1442 51.6772 61.4234 51.4298 61.633 51.1276C61.8292 50.8121 61.8812 50.4277 61.776 50.0713C61.5265 49.1361 60.6658 48.5114 59.8367 48.1108C59.2281 47.812 58.5836 47.5925 57.919 47.4579C57.6361 47.4032 57.5149 47.8368 57.7994 47.8918L57.7994 47.8918Z" fill="black"/>
<path d="M46.2517 28.3594H55.2049C56.4842 28.3594 59.0492 29.0206 59.5983 30.8981C59.5983 30.8981 60.2206 41.8244 61.5856 50.0787C53.0287 52.2665 42.0967 51.6516 42.0967 51.6516L45.4218 33.2241" fill="#F5F4EF"/>
<path d="M46.252 28.588H53.8438C54.317 28.588 54.7907 28.5814 55.2638 28.5885C55.8358 28.6041 56.4022 28.7042 56.9448 28.8856C57.5808 29.0729 58.1679 29.3977 58.6643 29.837C58.8999 30.0539 59.0947 30.311 59.2398 30.5964C59.2723 30.661 59.3013 30.7274 59.3266 30.7952C59.3407 30.8333 59.3506 30.8737 59.3662 30.911C59.3847 30.9556 59.3719 30.8959 59.3737 30.9034C59.3748 30.914 59.3755 30.9247 59.3755 30.9354C59.3951 31.1083 59.3965 31.2852 59.4075 31.4588C59.4637 32.3517 59.5254 33.2442 59.5926 34.1364C59.6982 35.5525 59.8149 36.9677 59.9427 38.382C60.0983 40.1014 60.273 41.8189 60.4667 43.5346C60.6711 45.325 60.8999 47.113 61.1711 48.8946C61.2344 49.3108 61.3004 49.7267 61.3689 50.1422L61.526 49.8654C59.8246 50.291 58.1004 50.6194 56.3616 50.8491C54.6622 51.0813 52.9522 51.2378 51.2405 51.3434C49.7529 51.4352 48.2636 51.4887 46.7726 51.5039C45.6901 51.5162 44.6075 51.5091 43.525 51.4827C43.2019 51.4745 42.8789 51.464 42.556 51.4513C42.4097 51.4373 42.2628 51.4306 42.1158 51.4313C42.1095 51.4313 42.1032 51.4309 42.0969 51.4302L42.3139 51.715L42.646 49.8741L43.4384 45.4831L44.4015 40.1458L45.2295 35.5568C45.3642 34.8106 45.507 34.0654 45.6335 33.3178C45.6352 33.3077 45.6372 33.2976 45.639 33.2876C45.6901 33.0044 45.2565 32.883 45.2051 33.168L44.8729 35.0089L44.0806 39.3999L43.1175 44.7371L42.2894 49.3261C42.1548 50.0723 42.0119 50.8176 41.8854 51.5652C41.8837 51.5753 41.8818 51.5853 41.88 51.5954C41.863 51.663 41.8777 51.7346 41.9199 51.79C41.9621 51.8454 42.0272 51.8786 42.0969 51.8802C42.4807 51.9017 42.8651 51.9139 43.2493 51.9251C44.2691 51.9549 45.2891 51.9658 46.3096 51.958C47.7751 51.9487 49.2399 51.9043 50.7039 51.8247C52.4056 51.7308 54.1051 51.5863 55.7961 51.3731C57.5537 51.1602 59.2985 50.8529 61.0231 50.4526C61.231 50.4033 61.4385 50.3522 61.6456 50.2993C61.7633 50.2636 61.8324 50.1419 61.8027 50.0226C61.5109 48.2554 61.2687 46.4803 61.0538 44.7023C60.8415 42.9466 60.6534 41.1883 60.4894 39.4273C60.346 37.9143 60.216 36.4002 60.0994 34.8849C60.0203 33.8623 59.9472 32.8393 59.8802 31.8159C59.8638 31.564 59.848 31.3121 59.8328 31.0602C59.8083 30.7783 59.7192 30.5058 59.5725 30.2639C58.9053 29.0711 57.4722 28.4612 56.1844 28.2341C55.6126 28.1513 55.0346 28.1191 54.4572 28.1381H46.252C45.9624 28.1381 45.9619 28.588 46.252 28.588V28.588Z" fill="black"/>
<path d="M35.7578 85.5656L36.8991 86.5073C37.7322 87.1945 38.9423 87.1703 39.7471 86.4501H41.2203L41.2072 94.0368H24.7285C24.7285 94.0368 24.4476 89.358 30.5997 88.8642C31.7487 88.7678 32.628 87.8002 32.6144 86.6473L32.6138 86.5884C32.6101 86.2244 32.7546 85.8746 33.014 85.6193C33.2735 85.364 33.6257 85.2252 33.9896 85.2348L34.9395 85.2596C35.2388 85.2674 35.5269 85.3751 35.7578 85.5656Z" fill="#F5F4EF"/>
<path d="M35.5993 85.7307L36.6162 86.5697C36.8206 86.7504 37.0487 86.9023 37.2942 87.0213C38.1684 87.4169 39.1939 87.2575 39.9068 86.6152L39.7477 86.6811H41.2208L40.9958 86.4561L40.9914 89.0331L40.9844 93.1051L40.9827 94.0428L41.2077 93.8178H25.3952C25.1856 93.8178 24.9672 93.8001 24.7582 93.8178C24.7486 93.8186 24.7387 93.8178 24.7291 93.8178L24.9541 94.0428C24.95 93.9518 24.9511 93.8606 24.9571 93.7697C24.9626 93.664 24.973 93.5588 24.9853 93.4537C24.9858 93.44 24.9877 93.4263 24.9908 93.413C24.996 93.3798 25.0009 93.3465 25.0064 93.3133C25.0184 93.2418 25.0319 93.1705 25.047 93.0995C25.0805 92.9418 25.1216 92.7858 25.1702 92.6318C25.1965 92.5485 25.225 92.4659 25.2557 92.3841C25.2722 92.34 25.2897 92.2962 25.3072 92.2525C25.3108 92.2436 25.3145 92.2348 25.3182 92.226C25.3313 92.1943 25.3043 92.2581 25.318 92.2264C25.3283 92.2025 25.3388 92.1786 25.3494 92.1549C25.5189 91.7777 25.7376 91.4246 25.9998 91.1049C26.7442 90.2168 27.7879 89.6725 28.9024 89.3773C29.2785 89.2781 29.6605 89.2032 30.0462 89.1529C30.4597 89.0986 30.8821 89.0993 31.2757 88.9461C32.0159 88.66 32.5719 88.0334 32.768 87.2645C32.8167 87.0644 32.8409 86.8591 32.8399 86.6532C32.8331 86.4802 32.8621 86.3077 32.9253 86.1465C33.0659 85.8204 33.3514 85.5793 33.6964 85.4952C33.9224 85.4591 34.1523 85.4526 34.38 85.4759C34.5892 85.4813 34.8021 85.4757 35.0107 85.4944C35.2256 85.5147 35.4301 85.5968 35.5994 85.7307C35.6888 85.8147 35.8281 85.8147 35.9175 85.7307C36.0046 85.6425 36.0046 85.5007 35.9175 85.4125C35.6194 85.1731 35.2492 85.0414 34.8669 85.0386L34.1079 85.0188C33.8012 85.0003 33.4949 85.0623 33.2195 85.1987C32.8588 85.392 32.5873 85.7179 32.4622 86.1075C32.3416 86.4817 32.418 86.8792 32.3032 87.2574C32.1894 87.6243 31.9728 87.9508 31.679 88.1982C31.395 88.4368 31.0487 88.5891 30.6809 88.6372C30.2422 88.6938 29.8043 88.7259 29.3688 88.81C28.1051 89.0539 26.8586 89.5734 25.9422 90.5006C25.3342 91.1199 24.8973 91.8864 24.6742 92.7251C24.5498 93.1464 24.4922 93.5846 24.5033 94.0238C24.5037 94.0301 24.5038 94.0365 24.5041 94.0428C24.5064 94.1661 24.6058 94.2655 24.7291 94.2678H39.1853C39.8485 94.2678 40.5157 94.2888 41.1787 94.2678C41.1884 94.2675 41.1981 94.2678 41.2078 94.2678C41.3313 94.266 41.431 94.1663 41.4328 94.0427L41.4372 91.4657L41.4442 87.3937L41.4458 86.4561C41.4441 86.3326 41.3444 86.2328 41.2208 86.2311H39.8158C39.7932 86.2311 39.7702 86.2296 39.7477 86.2311C39.5949 86.2414 39.451 86.4154 39.3239 86.4937C38.8129 86.8068 38.1878 86.8722 37.6231 86.6717C37.2726 86.5481 37.0038 86.3088 36.7231 86.0773L35.9174 85.4126C35.8281 85.3283 35.6886 85.3283 35.5993 85.4126C35.5123 85.5008 35.5123 85.6425 35.5993 85.7307Z" fill="black"/>
<path d="M42.8405 63.9167C42.6932 70.3985 42.1516 82.8381 42.1516 82.8381L31.408 82.9065L30.2575 58.5936C30.1772 56.4591 30.969 54.3838 32.4507 52.8453C33.9324 51.3068 35.9765 50.4375 38.1125 50.4375H62.8752L63.553 53.9862C64.0065 56.3601 63.3878 58.813 61.8628 60.6879C60.3377 62.5628 58.0622 63.668 55.6457 63.7075L42.8405 63.9167Z" fill="black"/>
<path d="M42.6157 63.9076C42.5828 65.3544 42.5388 66.8009 42.4913 68.2472C42.438 69.8742 42.3804 71.5011 42.3185 73.1278C42.261 74.6615 42.2012 76.1951 42.1392 77.7287C42.0921 78.8955 42.0441 80.0622 41.9949 81.2289C41.9798 81.5879 41.9646 81.947 41.9492 82.306C41.9315 82.4726 41.9243 82.6401 41.9276 82.8075C41.9278 82.8147 41.9275 82.8218 41.9267 82.8289L42.1517 82.6039L38.4971 82.6272L32.7233 82.664L31.4081 82.6724L31.633 82.8973L31.5935 82.0621L31.4881 79.8355L31.3357 76.6137L31.1549 72.7933L30.9646 68.7706L30.7827 64.9273L30.6296 61.6924L30.5234 59.4462C30.5098 59.1591 30.4942 58.872 30.4826 58.5848C30.3381 54.9035 32.8433 51.6442 36.4379 50.8371C37.122 50.6987 37.8193 50.6371 38.517 50.6533H62.8754L62.6584 50.4882L63.1284 52.9483C63.1959 53.3018 63.2634 53.6553 63.3309 54.0088C63.4564 54.6645 63.5005 55.3331 63.4625 55.9996C63.2718 59.0436 61.3643 61.7132 58.5463 62.8798C57.574 63.2677 56.5375 63.4699 55.4907 63.4759L53.7379 63.5045L50.7454 63.5534L47.3545 63.6088L44.4516 63.6563L42.9108 63.6814L42.8407 63.6826C42.5515 63.6873 42.5506 64.1373 42.8407 64.1325L43.9487 64.1144L46.6485 64.0703L50.0569 64.0146L53.2381 63.9626L55.3075 63.9288C56.1712 63.9314 57.0314 63.8182 57.8651 63.5923C61.7108 62.4774 64.2347 58.8026 63.8946 54.8129C63.8507 54.3855 63.7851 53.9606 63.6981 53.5398L63.137 50.602L63.0924 50.3686C63.0649 50.2713 62.9765 50.204 62.8754 50.2034H39.1622C38.8174 50.2034 38.4726 50.2028 38.1278 50.2034C34.6197 50.1968 31.5073 52.4522 30.4212 55.788C30.1132 56.76 29.9849 57.7801 30.0428 58.7982L30.1176 60.3793L30.2501 63.1776L30.4199 66.7677L30.6087 70.7575L30.7974 74.7457L30.9677 78.3441L31.0991 81.121L31.1735 82.6939L31.1832 82.8974C31.1853 83.0207 31.2848 83.1202 31.4081 83.1223L35.0628 83.0991L40.8365 83.0623L42.1518 83.0539C42.275 83.0515 42.3744 82.9522 42.3767 82.8289C42.3954 82.4006 42.4137 81.9723 42.4317 81.5439C42.4783 80.4414 42.524 79.3389 42.5687 78.2363C42.6297 76.7332 42.6888 75.23 42.746 73.7268C42.8078 72.0967 42.8664 70.4666 42.9218 68.8363C42.9715 67.3529 43.0157 65.8693 43.0544 64.3856C43.0583 64.2262 43.0621 64.0669 43.0657 63.9075C43.0723 63.6179 42.6223 63.618 42.6157 63.9076Z" fill="black"/>
<path d="M41.2073 94.0334H24.7285C24.7285 94.0334 24.7178 93.3787 25.0895 92.4129L27.4465 92.3392L28.5651 91.9173C29.4639 91.6177 30.4363 91.6218 31.3325 91.9291C32.1136 92.1969 32.9552 92.2353 33.7574 92.0396L34.6459 91.8229C35.241 91.6777 35.8601 91.6608 36.4623 91.7732L37.7215 92.0082C38.6533 92.1821 39.6165 92.0447 40.4626 91.6172L41.2203 91.2344L41.2073 94.0334Z" fill="#F5F4EF"/>
<path d="M41.2068 93.8127H25.3943C25.1846 93.8127 24.9663 93.7951 24.7572 93.8127C24.7477 93.8136 24.7377 93.8127 24.7281 93.8127L24.9531 94.0377C24.9464 93.5134 25.1201 92.9665 25.306 92.4771L25.0891 92.6423L27.3094 92.5729C27.596 92.5639 27.8518 92.43 28.1184 92.3295C28.6662 92.1229 29.1987 91.946 29.7936 91.9271C30.243 91.9126 30.6918 91.9717 31.1222 92.102C31.5546 92.2474 32.0025 92.3417 32.4568 92.3831C33.1063 92.4247 33.7199 92.2846 34.3439 92.1324C34.5515 92.0817 34.7588 92.0262 34.9693 91.9885C35.4344 91.9064 35.9104 91.9069 36.3755 91.9898C36.7509 92.0568 37.1253 92.1296 37.5002 92.1995C38.1882 92.3427 38.8989 92.337 39.5845 92.1829C40.1536 92.046 40.6624 91.7722 41.1803 91.5105L41.3335 91.4331L40.995 91.2388L40.9836 93.6834L40.9819 94.0378C40.9806 94.3273 41.4305 94.3277 41.4319 94.0378L41.4433 91.5932L41.4449 91.2388C41.4434 91.1589 41.4 91.0856 41.3307 91.0458C41.2613 91.006 41.1762 91.0055 41.1064 91.0446C40.7509 91.2242 40.3977 91.4275 40.0263 91.5728C39.3001 91.8567 38.509 91.9314 37.7426 91.7885C37.3502 91.7158 36.9581 91.6417 36.5657 91.5689C35.8847 91.4415 35.1843 91.4618 34.5118 91.6284C34.029 91.7462 33.5404 91.8951 33.0431 91.9309C32.583 91.9648 32.1204 91.9215 31.6745 91.8027C31.4695 91.7477 31.271 91.6717 31.0652 91.6189C30.8434 91.5629 30.6178 91.523 30.3902 91.4996C29.6935 91.4278 28.9896 91.52 28.335 91.7689L27.6763 92.0173C27.5963 92.0475 27.5145 92.0748 27.4358 92.108C27.4199 92.1124 27.4044 92.1183 27.3896 92.1255C27.3901 92.1174 27.4748 92.1235 27.4298 92.1192C27.3032 92.1154 27.1766 92.1194 27.0505 92.1311L26.368 92.1524L25.1625 92.1901L25.0891 92.1924C24.9888 92.1953 24.9016 92.2617 24.8721 92.3575C24.6736 92.8801 24.4959 93.4712 24.5031 94.0378C24.505 94.1613 24.6047 94.2609 24.7281 94.2628H39.1844C39.8476 94.2628 40.5147 94.2839 41.1777 94.2628C41.1874 94.2625 41.1971 94.2628 41.2068 94.2628C41.4963 94.2627 41.4968 93.8127 41.2068 93.8127Z" fill="black"/>
<path d="M31.8531 88.42C31.8761 88.4321 31.8982 88.4464 31.9199 88.4608C31.9447 88.4772 31.9678 88.4962 31.9925 88.5125C31.9818 88.5054 31.9448 88.4746 31.9729 88.4975C31.9797 88.503 31.9865 88.5084 31.9933 88.514C32.0103 88.528 32.027 88.5423 32.0433 88.557C32.0763 88.5866 32.1079 88.6175 32.1382 88.6498C32.1554 88.6682 32.1722 88.6871 32.1885 88.7063C32.1963 88.7155 32.2038 88.725 32.2116 88.7343C32.2344 88.7614 32.1819 88.6935 32.2107 88.733C32.2447 88.7789 32.276 88.8268 32.3046 88.8763C32.3196 88.9026 32.3337 88.9294 32.347 88.9567C32.3532 88.9697 32.3591 88.9828 32.3651 88.9959C32.3809 89.0297 32.3499 88.9547 32.3678 89.0032C32.3944 89.0736 32.4155 89.1459 32.4307 89.2196C32.4345 89.2385 32.4372 89.2575 32.4408 89.2764C32.4457 89.3019 32.438 89.2595 32.4387 89.2582C32.4357 89.2639 32.4418 89.2855 32.4425 89.2922C32.4471 89.3394 32.4491 89.3867 32.4494 89.4341C32.4503 89.5577 32.5507 89.6574 32.6744 89.6574C32.798 89.6574 32.8984 89.5577 32.8993 89.4341C32.8915 88.894 32.6201 88.3919 32.1724 88.0897C32.1429 88.0684 32.112 88.049 32.0801 88.0315C32.0107 87.9903 31.9245 87.9895 31.8542 88.0293C31.784 88.0691 31.7405 88.1436 31.7402 88.2243C31.74 88.3051 31.783 88.3798 31.853 88.42L31.8531 88.42Z" fill="black"/>
<path d="M30.7659 89.0052C30.7889 89.0173 30.811 89.0316 30.8327 89.046C30.8575 89.0624 30.8806 89.0814 30.9053 89.0977C30.8946 89.0906 30.8576 89.0598 30.8857 89.0827C30.8925 89.0882 30.8993 89.0936 30.9061 89.0992C30.9231 89.1132 30.9398 89.1275 30.9561 89.1422C30.9891 89.1718 31.0207 89.2027 31.051 89.2351C31.0682 89.2534 31.085 89.2723 31.1013 89.2915C31.1091 89.3007 31.1167 89.3102 31.1244 89.3195C31.1472 89.3466 31.0947 89.2787 31.1235 89.3182C31.1575 89.3642 31.1888 89.412 31.2174 89.4615C31.2324 89.4878 31.2465 89.5146 31.2598 89.5419C31.2661 89.5549 31.2719 89.568 31.278 89.5811C31.2937 89.6149 31.2627 89.5399 31.2806 89.5884C31.3072 89.6588 31.3283 89.7312 31.3435 89.8048C31.3473 89.8237 31.35 89.8427 31.3536 89.8616C31.3585 89.8871 31.3508 89.8447 31.3515 89.8435C31.3485 89.8492 31.3546 89.8707 31.3553 89.8774C31.36 89.9246 31.3619 89.9719 31.3622 90.0193C31.3631 90.1429 31.4635 90.2427 31.5872 90.2427C31.7108 90.2427 31.8113 90.1429 31.8121 90.0193C31.8044 89.4792 31.5329 88.9771 31.0852 88.6749C31.0557 88.6536 31.0248 88.6342 30.9929 88.6167C30.8856 88.554 30.7478 88.5902 30.6851 88.6974C30.6224 88.8047 30.6585 88.9425 30.7658 89.0053L30.7659 89.0052Z" fill="black"/>
<path d="M29.2896 89.2559C29.3127 89.2681 29.3347 89.2823 29.3564 89.2967C29.3812 89.3131 29.4043 89.3321 29.429 89.3484C29.4183 89.3413 29.3814 89.3105 29.4094 89.3334C29.4162 89.339 29.4231 89.3444 29.4298 89.3499C29.4468 89.3639 29.4635 89.3783 29.4799 89.393C29.5128 89.4225 29.5444 89.4535 29.5747 89.4858C29.5919 89.5042 29.6087 89.523 29.625 89.5422C29.6328 89.5514 29.6404 89.5609 29.6481 89.5702C29.6709 89.5973 29.6184 89.5294 29.6473 89.5689C29.6812 89.6149 29.7126 89.6627 29.7411 89.7122C29.7561 89.7385 29.7703 89.7653 29.7835 89.7926C29.7898 89.8056 29.7956 89.8187 29.8017 89.8318C29.8174 89.8656 29.7864 89.7906 29.8043 89.8391C29.8309 89.9095 29.852 89.9819 29.8673 90.0555C29.871 90.0744 29.8738 90.0935 29.8773 90.1123C29.8822 90.1378 29.8745 90.0954 29.8752 90.0942C29.8722 90.0999 29.8783 90.1214 29.879 90.1282C29.8837 90.1753 29.8856 90.2226 29.8859 90.27C29.8868 90.3936 29.9872 90.4934 30.1109 90.4934C30.2345 90.4934 30.335 90.3936 30.3359 90.27C30.3281 89.7299 30.0566 89.2278 29.6089 88.9256C29.5794 88.9044 29.5486 88.8849 29.5166 88.8675C29.4472 88.8262 29.361 88.8254 29.2907 88.8652C29.2205 88.9051 29.177 88.9795 29.1768 89.0602C29.1765 89.141 29.2195 89.2157 29.2895 89.256L29.2896 89.2559Z" fill="black"/>
<rect x="30.54" y="79.8203" width="12.5217" height="3.38822" rx="1.69411" fill="#F5F4EF"/>
<path d="M42.2409 82.9837H33.2092C32.5962 82.9837 31.9822 82.9944 31.3694 82.9837C31.072 82.9844 30.8181 82.7689 30.7705 82.4753C30.754 82.2768 30.7523 82.0773 30.7652 81.8786V80.9418C30.7652 80.7166 30.7384 80.4815 30.88 80.2883C31.0697 80.0293 31.3498 80.0455 31.6286 80.0455H42.1744C42.2915 80.0388 42.4084 80.0616 42.5145 80.1118C42.7798 80.2516 42.8369 80.5037 42.8369 80.7763C42.8369 81.3061 42.841 81.8361 42.8369 82.3659C42.8403 82.527 42.7793 82.6828 42.6674 82.7988C42.5555 82.9147 42.402 82.9813 42.2409 82.9837C41.9519 82.9906 41.9508 83.4406 42.2409 83.4337C42.748 83.4286 43.18 83.0642 43.2705 82.5653C43.2934 82.3416 43.2989 82.1164 43.2869 81.8918V80.9197C43.2869 80.6428 43.2927 80.3762 43.1503 80.1243C42.96 79.7977 42.6108 79.5965 42.2328 79.5956C42.1706 79.5945 42.1084 79.5956 42.0462 79.5956H33.5064C32.8016 79.5956 32.0966 79.5915 31.3917 79.5956C31.1239 79.5924 30.8643 79.688 30.6624 79.8641C30.397 80.098 30.3153 80.4213 30.3153 80.7605C30.3153 81.2994 30.3068 81.8391 30.3153 82.3779C30.3169 82.8315 30.6057 83.2343 31.0348 83.3814C31.1655 83.4209 31.3018 83.4385 31.4382 83.4337H42.241C42.5305 83.4337 42.5309 82.9837 42.2409 82.9837Z" fill="black"/>
<path d="M43.485 62.5469H40.5806C40.2911 62.5469 40.2906 62.9968 40.5806 62.9968H43.485C43.7746 62.9968 43.7751 62.5469 43.485 62.5469Z" fill="black"/>
<path d="M46.6072 57.3195H43.996C43.1183 57.3195 42.239 57.3032 41.3614 57.3203C39.5434 57.3664 37.9383 58.5187 37.3132 60.2265C37.0836 60.8606 37.0607 61.5076 37.0432 62.169L36.9833 64.4318L36.8938 67.8176L36.7915 71.6846L36.6934 75.3912L36.6166 78.2957L36.578 79.7565L36.5763 79.8209C36.5686 80.1106 37.0186 80.1104 37.0262 79.8209L37.0527 78.8213L37.121 76.2411L37.2141 72.7218L37.3161 68.863L37.4099 65.316L37.4797 62.6801C37.4892 62.319 37.4974 61.9579 37.5083 61.5969C37.5634 59.9433 38.6382 58.4971 40.2057 57.9676C40.6834 57.823 41.1812 57.7561 41.6801 57.7695H46.6072C46.8967 57.7695 46.8972 57.3196 46.6072 57.3196L46.6072 57.3195Z" fill="black"/>
<path d="M20.7455 74.8185L17.6177 81.1661L10.9004 75.4742L14.3474 68.4688" fill="#F5F4EF"/>
<path d="M20.5514 74.6988L19.4941 76.8444L17.8095 80.2631L17.4235 81.0464L17.7769 81.0009L15.5089 79.0792L11.8921 76.0146L11.0595 75.3091L11.0947 75.5817L12.2619 73.2096L14.1193 69.4347L14.5417 68.5762C14.6691 68.3173 14.2812 68.089 14.1532 68.3491L12.986 70.7212L11.1286 74.4961L10.7062 75.3546C10.6565 75.4433 10.6708 75.5541 10.7414 75.6272L13.0094 77.5489L16.6261 80.6135L17.4587 81.319C17.5085 81.3673 17.5776 81.3902 17.6464 81.3813C17.7152 81.3725 17.7762 81.3328 17.8121 81.2735L18.8693 79.1279L20.554 75.7092L20.9399 74.9258C21.0675 74.667 20.6796 74.4387 20.5514 74.6987L20.5514 74.6988Z" fill="black"/>
<path d="M30.3059 60.3956C27.3121 66.1465 21.3342 77.0689 21.3342 77.0689L11.6641 72.3871L21.3658 50.0641C22.2361 48.1134 23.8628 46.6009 25.8715 45.8746C27.8802 45.1483 30.098 45.2708 32.0146 46.2138L54.2333 57.1464L64.4392 54.207C63.3512 60.6547 59.4935 65.4952 52.9598 65.7556L46.603 65.9079C44.5507 65.9897 42.5059 65.6131 40.6174 64.8055L30.3059 60.3956Z" fill="black"/>
<path d="M30.1116 60.2796C28.6935 63.0029 27.2387 65.7073 25.7808 68.4095C24.4978 70.7875 23.2091 73.1624 21.9146 75.5342C21.6565 76.0073 21.3983 76.4802 21.1398 76.9529L21.4476 76.8722L18.1751 75.2878L12.9815 72.7733L11.7775 72.1904L11.8582 72.4982L13.5348 68.6405L17.1292 60.37L20.4951 52.6251C21.2348 50.9232 21.8547 49.118 23.2148 47.7928C24.7562 46.3034 26.8481 45.523 28.9884 45.6389C30.1329 45.7032 31.1956 46.0586 32.215 46.5601L37.5704 49.1952L45.9839 53.335L52.7843 56.6811C53.2175 56.8942 53.6474 57.1406 54.0937 57.3254C54.2614 57.3948 54.3909 57.3327 54.5573 57.2847L55.8687 56.907L63.9121 54.5904L64.4989 54.4214L64.2222 54.1447C63.6256 57.6802 62.0822 61.2668 59.1209 63.4479C57.6736 64.5011 55.9873 65.1781 54.2135 65.4179C53.2203 65.5581 52.2099 65.5461 51.2092 65.5701L47.3611 65.6623C47.0758 65.6692 46.7904 65.675 46.5052 65.6841C45.1933 65.7266 43.8822 65.5801 42.6122 65.249C41.6276 64.9917 40.7047 64.5976 39.7736 64.1994L36.5159 62.8061L30.5359 60.2487L30.4194 60.1988C30.1561 60.0862 29.9266 60.4737 30.1923 60.5874L35.5177 62.8649C37.3443 63.646 39.1565 64.4877 41.01 65.204C42.8946 65.9324 44.8533 66.1724 46.8618 66.1242L50.4356 66.0385C51.3629 66.0163 52.2949 66.0199 53.221 65.9651C55.0709 65.8555 56.8945 65.3565 58.4917 64.405C61.654 62.5211 63.5328 59.1446 64.3745 55.6457C64.4844 55.1887 64.5783 54.7282 64.6561 54.2643C64.6757 54.1865 64.653 54.1041 64.5963 54.0473C64.5395 53.9906 64.4571 53.9679 64.3793 53.9875L60.9226 54.9831L55.4401 56.5621L54.1734 56.9269L54.3468 56.9496L51.5899 55.5931L45.263 52.48L38.1355 48.9729L33.0418 46.4666C32.7408 46.3185 32.4403 46.1694 32.1389 46.0224C30.1391 45.03 27.818 44.9087 25.7257 45.6872C23.6333 46.4656 21.956 48.0746 21.0912 50.1327L19.3621 54.1111L16.3311 61.0854L13.2959 68.0692L11.5521 72.0815L11.4697 72.2711C11.4094 72.3787 11.4451 72.5147 11.5504 72.5789L14.8229 74.1633L20.0164 76.6778L21.2205 77.2607C21.3281 77.3209 21.4641 77.2852 21.5283 77.18C22.2621 75.8392 22.9936 74.4971 23.7228 73.1538C25.2175 70.4034 26.7041 67.6485 28.1824 64.8891C28.9613 63.4317 29.7339 61.9708 30.5002 60.5066C30.6337 60.2502 30.2455 60.0224 30.1116 60.2796Z" fill="black"/>
<path d="M12.3345 73.0604C11.495 72.6474 11.1493 71.6319 11.5624 70.7924C11.9755 69.9529 12.9909 69.6072 13.8304 70.0203L22.0255 74.0527C22.865 74.4657 23.2107 75.4812 22.7976 76.3207C22.3846 77.1602 21.3691 77.5059 20.5296 77.0928L12.3345 73.0604Z" fill="#F5F4EF"/>
<path d="M21.4267 77.2832L19.9447 76.554L16.6619 74.9387L13.3228 73.2958C12.7728 73.0251 12.2172 72.7636 11.672 72.4835C11.3994 72.3575 11.2599 72.0511 11.3438 71.7628C11.4134 71.5793 11.4977 71.4017 11.596 71.2318L12.0096 70.3912C12.1086 70.1899 12.1898 69.9614 12.398 69.8479C12.6824 69.693 12.9222 69.8228 13.1734 69.9463L14.1035 70.404L17.2602 71.9573L20.6752 73.6376L22.6358 74.6023C22.7483 74.6492 22.8477 74.7229 22.9252 74.8169C23.099 75.0509 23.0469 75.3052 22.9294 75.5438C22.6956 76.0193 22.4652 76.4965 22.2276 76.9702C22.0927 77.2776 21.7343 77.4177 21.4267 77.2832C21.3189 77.2243 21.1839 77.2597 21.1189 77.3639C21.0571 77.4713 21.0931 77.6084 21.1996 77.6717C21.6608 77.8997 22.219 77.7642 22.5244 77.3503C22.6408 77.1663 22.7415 76.9728 22.8255 76.7719L23.2547 75.8997C23.3758 75.6535 23.5078 75.4133 23.4914 75.1276C23.471 74.7502 23.2517 74.412 22.9154 74.2395C22.8601 74.2112 22.8037 74.1846 22.7479 74.1571L21.8387 73.7098L18.6085 72.1204L15.0853 70.3869C14.4529 70.0757 13.8221 69.7608 13.1879 69.4532C12.9497 69.3287 12.6742 69.2957 12.4134 69.3606C12.0921 69.4569 11.8307 69.692 11.7011 70.0014C11.4631 70.485 11.2179 70.9657 10.987 71.4527C10.8581 71.713 10.8407 72.0146 10.9387 72.288C11.0367 72.5615 11.2417 72.7833 11.5066 72.9024L12.2414 73.264L15.305 74.7714L18.8951 76.5378L21.0925 77.6191L21.1995 77.6718C21.4585 77.7991 21.6868 77.4112 21.4267 77.2832Z" fill="black"/>
<path d="M39.673 56.4087L37.5047 55.6448L33.3539 54.1824C32.487 53.877 31.6202 53.5716 30.7533 53.2662C29.963 52.9885 29.1228 52.8426 28.2878 52.9663C27.3396 53.1154 26.4969 53.6544 25.9641 54.4529C25.6377 54.9279 25.4173 55.4926 25.1738 56.0132L23.8359 58.8741L22.0195 62.7583L20.1306 66.7976L18.5783 70.1171L17.7707 71.8441L17.7344 71.9217C17.6124 72.1825 18.0002 72.4112 18.1229 72.1488L18.6792 70.9591L20.0782 67.9677L21.9083 64.054L23.7718 60.0692L25.2708 56.8637C25.512 56.3481 25.7531 55.8325 25.9942 55.3169C26.2646 54.7397 26.6425 54.2106 27.1817 53.8568C27.9999 53.3198 29.0071 53.2764 29.9384 53.494C30.2987 53.5864 30.6537 53.6985 31.0017 53.8298L32.3805 54.3156L36.4636 55.7541L39.403 56.7897L39.5534 56.8427C39.827 56.9391 39.9447 56.5045 39.673 56.4088L39.673 56.4087Z" fill="black"/>
<path d="M13.8608 76.4345L14.4691 77.7832C14.9131 78.7676 16.0097 79.2801 17.0498 78.9893L18.3715 79.6397L15.0104 86.4411L0.224609 79.1659C0.224609 79.1659 2.0383 74.8435 7.77697 77.1171C8.85031 77.5376 10.0662 77.0575 10.5627 76.0172L10.588 75.9643C10.7454 75.636 11.0295 75.3858 11.3751 75.2712C11.7206 75.1567 12.0979 75.1876 12.4202 75.3569L13.2616 75.7985C13.5267 75.9377 13.7376 76.1615 13.8608 76.4345Z" fill="#F5F4EF"/>
<path d="M13.6671 76.5537L14.2166 77.772C14.5129 78.4288 15.004 78.9392 15.6968 79.1757C16.1537 79.3289 16.646 79.3415 17.1102 79.212L16.9368 79.1893L18.2586 79.8397L18.1779 79.5319L17.0362 81.8422L15.2322 85.4927L14.8167 86.3333L15.1246 86.2526L13.6491 85.5266L10.1199 83.7901L5.8525 81.6904L2.15343 79.8703L0.936469 79.2715C0.748773 79.1791 0.560364 79.0653 0.364823 78.9902C0.355907 78.9868 0.347347 78.9816 0.338742 78.9774L0.442134 79.2315C0.394902 79.3438 0.439231 79.241 0.454172 79.2103C0.485576 79.1456 0.519583 79.0822 0.555007 79.0197C0.610034 78.9226 0.668728 78.8276 0.73109 78.7349C0.768392 78.6792 0.806834 78.6243 0.846417 78.5702C0.866231 78.543 0.886426 78.5162 0.906689 78.4894C0.940639 78.4446 0.890389 78.5098 0.915756 78.4778C0.92943 78.4605 0.943058 78.4433 0.956871 78.4262C1.4456 77.8067 2.0874 77.3254 2.81894 77.0297C3.96813 76.5749 5.2317 76.6178 6.41475 76.9152C6.82617 77.0199 7.23077 77.1497 7.62627 77.304C7.98741 77.4544 8.37854 77.519 8.76886 77.4925C9.53715 77.4261 10.2299 77.0033 10.6401 76.3504C10.7348 76.1981 10.796 76.026 10.9025 75.8811C11.2097 75.4727 11.7541 75.3235 12.2266 75.5182C12.4032 75.5923 12.5713 75.6954 12.7406 75.7843C12.9346 75.8731 13.1219 75.9759 13.301 76.0919C13.46 76.2125 13.586 76.3714 13.6671 76.5538C13.7904 76.8155 14.1785 76.5874 14.0556 76.3267C13.7845 75.7515 13.2135 75.5249 12.6854 75.2477C12.4518 75.1116 12.1932 75.0239 11.925 74.9898C11.5488 74.9583 11.1741 75.0647 10.8707 75.2892C10.712 75.4063 10.5763 75.5518 10.4707 75.7184C10.3706 75.8769 10.3034 76.0518 10.1965 76.2072C9.77097 76.817 9.03907 77.1361 8.30266 77.0331C7.88143 76.9711 7.48505 76.7638 7.0809 76.6364C5.78405 76.2274 4.35549 76.0665 3.03757 76.4766C2.17326 76.7468 1.3985 77.2466 0.795925 77.9226C0.488425 78.2554 0.232932 78.6328 0.0380814 79.0419C0.0277134 79.065 0.0180827 79.0885 0.00824465 79.1119C-0.0191514 79.2103 0.0233504 79.3147 0.111637 79.366L1.58708 80.092L5.11634 81.8284L9.38376 83.9282L13.0828 85.7482C13.6788 86.0415 14.2714 86.3434 14.8714 86.6283C14.8801 86.6325 14.8888 86.6369 14.8975 86.6411C15.005 86.7019 15.1414 86.6662 15.2053 86.5604L16.347 84.2501L18.151 80.5996L18.5664 79.759C18.6273 79.6514 18.5915 79.515 18.4857 79.4512L17.6591 79.0444C17.5107 78.9714 17.3629 78.897 17.2139 78.8254C17.1644 78.7946 17.1084 78.7756 17.0504 78.7701C16.9163 78.7701 16.7795 78.8319 16.6439 78.8434C16.0586 78.8945 15.4808 78.6835 15.0661 78.2674C14.7942 77.9924 14.6516 77.6478 14.4958 77.3024L14.0557 76.3267C13.9924 76.2201 13.8553 76.1841 13.7479 76.246C13.6431 76.3106 13.6076 76.446 13.6671 76.5537Z" fill="black"/>
<path d="M15.0104 86.4449L0.224609 79.1696C0.224609 79.1696 0.503935 78.5775 1.26387 77.875L3.41126 78.8495L4.60128 78.9647C5.54002 79.0927 6.41066 79.5257 7.07914 80.1971C7.66178 80.7823 8.39992 81.1882 9.20614 81.3668L10.0989 81.5646C10.697 81.6971 11.26 81.9553 11.7507 82.322L12.7768 83.0888C13.5361 83.6563 14.461 83.9582 15.4089 83.9482L16.2578 83.9392L15.0104 86.4449Z" fill="#F5F4EF"/>
<path d="M15.1249 86.2543L13.6495 85.5284L10.1203 83.7918L5.85286 81.6921L2.15379 79.872L0.93683 79.2732C0.749054 79.1808 0.560702 79.0673 0.365196 78.9919C0.356268 78.9885 0.347709 78.9833 0.339115 78.9791L0.419824 79.2869C0.647621 78.8086 1.04201 78.394 1.42391 78.0378L1.15128 78.073L3.21609 79.0101C3.30834 79.0525 3.40722 79.0787 3.50838 79.0876L4.18878 79.1534C4.77268 79.1899 5.34381 79.3402 5.86999 79.5959C6.23765 79.7828 6.57517 80.0239 6.87129 80.3109C7.16884 80.6095 7.50231 80.8698 7.86406 81.0861C8.41488 81.4049 9.008 81.5567 9.6216 81.6926C9.82539 81.7378 10.0312 81.7783 10.2328 81.8327C10.6683 81.9509 11.0814 82.1395 11.4559 82.3912C11.8148 82.6315 12.1537 82.9053 12.4996 83.1638C13.0294 83.5779 13.6385 83.8789 14.2892 84.0482C14.8802 84.1913 15.4735 84.1762 16.0754 84.1699L16.2589 84.1679L16.0646 83.8294L14.9751 86.0178L14.8172 86.335C14.6885 86.5935 15.0765 86.8216 15.2057 86.5621L16.2952 84.3737L16.4531 84.0565C16.4921 83.9867 16.4917 83.9015 16.4519 83.8322C16.4121 83.7629 16.3388 83.7195 16.2589 83.718C15.9785 83.7209 15.6982 83.725 15.4178 83.7269C14.7806 83.7345 14.1503 83.5942 13.5764 83.317C12.9399 83.0051 12.3954 82.5174 11.8254 82.102C11.3188 81.7367 10.7428 81.4793 10.1328 81.3455C9.84472 81.2811 9.5561 81.219 9.26816 81.1539C8.6408 81.0162 8.05428 80.7338 7.55534 80.3293C7.31361 80.1304 7.10418 79.8972 6.85871 79.7022C6.60394 79.498 6.32797 79.3218 6.03555 79.1765C5.53268 78.9308 4.98937 78.7785 4.43208 78.727L3.41232 78.6283L3.52587 78.659L1.37854 77.6845C1.28953 77.6365 1.17982 77.6506 1.10591 77.7197C0.698723 78.0994 0.274258 78.55 0.0314621 79.0598C-0.0291913 79.1674 0.00654381 79.3037 0.112171 79.3676L1.58763 80.0936L5.1167 81.8301L9.38412 83.9299L13.0832 85.75C13.6792 86.0432 14.2718 86.3451 14.8718 86.63C14.8805 86.6342 14.8892 86.6386 14.8979 86.6429C15.1567 86.7703 15.385 86.3823 15.1249 86.2543Z" fill="black"/>
<path d="M9.0904 77.2664C9.11366 77.2996 9.13473 77.3343 9.15347 77.3702C9.16382 77.3894 9.17372 77.4087 9.18319 77.4283C9.18871 77.4398 9.21696 77.5051 9.20333 77.4711C9.18908 77.4355 9.20474 77.475 9.20779 77.4828C9.21317 77.4964 9.21833 77.5102 9.2233 77.524C9.23396 77.5536 9.2437 77.5835 9.25252 77.6137C9.27 77.6752 9.28395 77.7376 9.2943 77.8007C9.30332 77.8532 9.29186 77.7658 9.2958 77.8154C9.29733 77.8347 9.29926 77.8539 9.30041 77.8733C9.30271 77.9134 9.30332 77.9537 9.30207 77.9939C9.30152 78.0113 9.30063 78.0286 9.29939 78.046C9.29887 78.0532 9.29326 78.1135 9.29587 78.0905C9.29896 78.0633 9.29101 78.1204 9.29011 78.1256C9.28613 78.1478 9.28159 78.1699 9.27647 78.1919C9.25699 78.276 9.2287 78.3578 9.19206 78.436C9.1515 78.5054 9.15104 78.5912 9.19086 78.661C9.23068 78.7308 9.30473 78.7741 9.38512 78.7746C9.46551 78.775 9.54002 78.7325 9.58059 78.6631C9.75533 78.3105 9.79612 77.9064 9.69537 77.526C9.65264 77.3522 9.57936 77.1874 9.47895 77.0393C9.41442 76.9345 9.27882 76.8989 9.17113 76.9586C9.06503 77.0222 9.02918 77.1589 9.09042 77.2664H9.0904Z" fill="black"/>
<path d="M7.85603 77.3055C7.87929 77.3387 7.90036 77.3733 7.9191 77.4093C7.92944 77.4284 7.93935 77.4478 7.94882 77.4674C7.95434 77.4788 7.98258 77.5442 7.96896 77.5101C7.95471 77.4746 7.97036 77.514 7.97341 77.5218C7.97879 77.5355 7.98396 77.5492 7.98893 77.5631C7.99958 77.5926 8.00931 77.6225 8.01815 77.6527C8.03562 77.7142 8.04957 77.7767 8.05993 77.8398C8.06895 77.8922 8.05749 77.8048 8.06143 77.8544C8.06296 77.8738 8.06488 77.893 8.06604 77.9124C8.06839 77.9525 8.06894 77.9927 8.06769 78.033C8.06715 78.0503 8.06625 78.0677 8.06501 78.085C8.06449 78.0923 8.05888 78.1525 8.0615 78.1295C8.06458 78.1024 8.05663 78.1595 8.05574 78.1647C8.05177 78.1869 8.04722 78.209 8.0421 78.2309C8.02261 78.315 7.99432 78.3969 7.95769 78.4751C7.89598 78.5823 7.93237 78.7192 8.03915 78.7816C8.14594 78.844 8.28308 78.8085 8.34621 78.7022C8.52097 78.3495 8.56176 77.9455 8.461 77.565C8.41827 77.3913 8.34499 77.2265 8.24457 77.0784C8.18004 76.9735 8.04444 76.938 7.93676 76.9977C7.83065 77.0613 7.7948 77.198 7.85605 77.3055H7.85603Z" fill="black"/>
<path d="M6.79378 77.1332C6.81901 77.1692 6.84186 77.2068 6.86218 77.2458C6.8734 77.2665 6.88416 77.2875 6.89444 77.3088C6.89926 77.3187 6.90396 77.3287 6.90856 77.3387C6.9116 77.3454 6.93197 77.3917 6.91724 77.3573C6.90271 77.3234 6.92018 77.365 6.923 77.3723C6.92881 77.3871 6.93442 77.4021 6.93982 77.417C6.95134 77.4491 6.9619 77.4815 6.97151 77.5143C6.99057 77.581 7.0057 77.6487 7.01682 77.7171C7.02576 77.7701 7.01518 77.6881 7.01912 77.7381C7.02078 77.7591 7.0229 77.7799 7.02413 77.8009C7.02668 77.8444 7.02728 77.888 7.02593 77.9317C7.02535 77.9505 7.02437 77.9694 7.02301 77.9882C7.02236 77.9974 7.01702 78.0541 7.01887 78.039C7.02156 78.0168 7.01318 78.0744 7.01224 78.0796C7.00794 78.1037 7.003 78.1276 6.99745 78.1514C6.97608 78.2443 6.94475 78.3346 6.904 78.4207C6.8447 78.5285 6.88018 78.6638 6.98472 78.7285C7.09216 78.7901 7.22914 78.7542 7.29254 78.6478C7.47962 78.2699 7.52319 77.8369 7.41516 77.4293C7.36918 77.2425 7.29036 77.0653 7.18236 76.9061C7.11742 76.8018 6.98231 76.7663 6.87455 76.8254C6.76807 76.8887 6.73213 77.0258 6.79384 77.1332H6.79378Z" fill="black"/>
<path d="M58.8088 35.3421L58.422 45.0742C59.4083 45.0455 60.3954 45.0669 61.3795 45.1386C63.2797 45.2741 68.0879 47.4828 69.4584 47.8717L69.1571 35.199C69.0186 31.4038 66.9913 28.585 63.6768 28.3281L55.1719 28.3398" fill="#F5F4EF"/>
<path d="M58.5843 35.3415L58.4527 38.6517L58.2448 43.8826L58.1975 45.0735C58.1986 45.1973 58.2987 45.2974 58.4225 45.2985C58.9819 45.2815 59.5414 45.2815 60.1011 45.2983C60.5796 45.3123 61.1179 45.3221 61.5679 45.3816C62.1864 45.4834 62.7948 45.6389 63.3862 45.8465C64.8556 46.322 66.2859 46.9108 67.7225 47.4754C68.2745 47.6923 68.8281 47.9247 69.3991 48.088C69.4668 48.1058 69.5388 48.0914 69.5945 48.049C69.6501 48.0067 69.6831 47.941 69.6839 47.871L69.6518 46.5197L69.5755 43.3106L69.4851 39.5105L69.4109 36.3865C69.3984 35.8623 69.3994 35.3354 69.3618 34.8122C69.2387 33.0988 68.7144 31.369 67.5806 30.0477C67.0777 29.4582 66.457 28.9804 65.7584 28.6451C65.1057 28.3252 64.395 28.1407 63.6691 28.1025C62.9862 28.0817 62.2991 28.1044 61.616 28.1053L57.8871 28.1104L55.303 28.114L55.1724 28.1142C54.8829 28.1146 54.8824 28.5645 55.1724 28.5641L57.0119 28.5616L60.6891 28.5566L63.4423 28.5528C64.5461 28.5636 65.6155 28.938 66.4849 29.6182C67.7685 30.6216 68.4823 32.1661 68.7755 33.7387C68.8928 34.4655 68.9513 35.2007 68.9503 35.9369L69.0167 38.7335L69.1054 42.4663L69.187 45.8963L69.2318 47.7821L69.2339 47.871L69.5187 47.6541C69.0228 47.5123 68.5412 47.3148 68.0613 47.1274C67.3651 46.8555 66.6716 46.5769 65.9746 46.3069C65.2342 46.0201 64.4905 45.7401 63.7371 45.4887C63.1133 45.2661 62.4732 45.0923 61.8225 44.9687C61.3427 44.9009 60.8591 44.8638 60.3746 44.8576C59.7242 44.8326 59.0734 44.8296 58.4224 44.8486L58.6474 45.0735L58.779 41.7633L58.9869 36.5324L59.0342 35.3415C59.0457 35.0519 58.5957 35.0524 58.5842 35.3415L58.5843 35.3415Z" fill="black"/>
<path d="M69.4321 47.9181C69.4823 47.2144 68.2868 46.4998 66.3876 45.9609L65.7822 49.4677C67.9388 49.2232 69.3789 48.6638 69.4321 47.9181Z" fill="black"/>
<path d="M69.6569 47.9162C69.6862 47.3789 69.2051 46.9742 68.7986 46.71C68.0894 46.2492 67.2546 45.9727 66.4472 45.7422C66.3275 45.7101 66.2042 45.7801 66.1705 45.8993L65.6404 48.97L65.5651 49.4061C65.5431 49.5333 65.6232 49.7091 65.782 49.6909C66.7154 49.5836 67.6719 49.4322 68.5411 49.0599C69.0349 48.8485 69.6053 48.508 69.6569 47.9162C69.682 47.6278 69.2319 47.6295 69.2069 47.9162C69.2043 47.9425 69.2048 47.9413 69.2083 47.9125C69.2062 47.9249 69.2038 47.9372 69.2009 47.9494C69.1956 47.9676 69.1907 47.986 69.1856 48.0043C69.1816 48.0164 69.1773 48.0285 69.1726 48.0404C69.1827 48.0166 69.1824 48.0165 69.1714 48.0403C69.1622 48.0581 69.1528 48.0758 69.1426 48.0931C69.0941 48.1718 69.0326 48.2417 68.9608 48.2998C68.7532 48.4656 68.5202 48.5969 68.2708 48.6884C67.4808 49.0013 66.6222 49.1444 65.7821 49.2409L65.999 49.5257L66.5291 46.455L66.6044 46.0189L66.3276 46.1761C67.0686 46.3877 67.8206 46.6371 68.4815 47.0418C68.6968 47.1647 68.8902 47.3226 69.0536 47.509C69.0793 47.5419 69.1031 47.5762 69.125 47.6117C69.1367 47.6312 69.1474 47.6513 69.1581 47.6713C69.1594 47.6736 69.1862 47.7365 69.1709 47.6971C69.1857 47.7359 69.1972 47.7759 69.2053 47.8166C69.2161 47.8695 69.2057 47.7876 69.2073 47.8366C69.2083 47.8633 69.2084 47.8895 69.2069 47.9162C69.1911 48.2056 69.6412 48.2047 69.6569 47.9162Z" fill="black"/>
<path d="M61.3804 45.1392C60.3963 45.0676 59.4092 45.0461 58.4229 45.0748L58.2413 49.1895L58.1896 50.3601L40.7888 50.0546L38.8233 47.8666C37.7416 46.6624 36.1991 45.9746 34.5804 45.9746H31.4531L34.9711 49.7513C35.7349 50.5712 36.1768 51.6395 36.2154 52.7595C36.2639 54.1644 37.0661 55.434 38.3142 56.0808C39.3434 56.6143 40.4601 56.9586 41.6111 57.0972L57.8767 59.057C61.6839 59.1782 65.0129 56.3988 65.8165 52.6754L66.1693 50.2306L66.3879 45.9609C64.7502 45.5212 63.0727 45.2459 61.3804 45.1392Z" fill="#F5F4EF"/>
<path d="M61.3802 44.92C60.396 44.8491 59.409 44.8277 58.4227 44.8556C58.2995 44.8582 58.2003 44.9574 58.1977 45.0806C58.1371 46.4526 58.0766 47.8245 58.0161 49.1965C57.9989 49.5863 57.9817 49.9761 57.9644 50.3659L58.1894 50.1409L56.4594 50.1105L52.3045 50.0376L47.2776 49.9493L42.9313 49.873L41.4986 49.8479C41.2723 49.8304 41.0451 49.8264 40.8184 49.8359C40.8085 49.8363 40.7985 49.8362 40.7886 49.8354L40.9477 49.9013L39.8376 48.6655C39.4256 48.2068 39.0285 47.7151 38.571 47.3001C37.6321 46.4513 36.4484 45.9219 35.1898 45.788C34.5867 45.7235 33.9669 45.7553 33.3615 45.7553H31.4529C31.3631 45.7578 31.2832 45.8128 31.2488 45.8958C31.2144 45.9787 31.2321 46.0742 31.2938 46.1394L34.1704 49.2275C34.6418 49.7335 35.1339 50.2165 35.4662 50.8316C35.6433 51.1609 35.7778 51.5113 35.8664 51.8745C35.9402 52.2276 35.9851 52.5861 36.0008 52.9465C36.0547 53.6385 36.2819 54.3059 36.6614 54.887C37.5068 56.1676 39.0235 56.7821 40.4646 57.1256C40.9603 57.2359 41.462 57.3178 41.9671 57.3709L45.4731 57.7933L50.8668 58.4432L55.7864 59.0359L57.3285 59.2217C57.5595 59.2573 57.7923 59.2804 58.0259 59.291C60.6537 59.3234 63.1303 57.9675 64.6524 55.8498C65.0392 55.3082 65.3608 54.723 65.6106 54.1061C65.8121 53.6461 65.9575 53.1635 66.0437 52.6687L66.366 50.4353C66.4322 49.9771 66.4314 49.5078 66.4551 49.046L66.5874 46.4607L66.6127 45.9666C66.6119 45.8657 66.5446 45.7774 66.4476 45.7497C64.7908 45.3029 63.093 45.0249 61.3803 44.9199C61.0914 44.899 61.0927 45.3491 61.3803 45.3699C63.0527 45.4735 64.7104 45.7461 66.328 46.1835L66.1628 45.9666L65.9544 50.0373C65.9442 50.1011 65.9409 50.1658 65.9445 50.2303C65.9488 50.253 65.9586 50.1375 65.9491 50.1987C65.9416 50.2464 65.9352 50.2943 65.9283 50.342L65.761 51.5016C65.7103 51.8527 65.6627 52.2045 65.6089 52.5551C65.521 53.0474 65.376 53.5278 65.1767 53.9865C64.2084 56.3508 62.0793 58.1786 59.5688 58.6955C58.9528 58.8355 58.3184 58.876 57.6897 58.8153L56.5403 58.6768L52.071 58.1383L46.6602 57.4864L42.5192 56.9874C42.2313 56.9527 41.9434 56.9181 41.6555 56.8834C40.481 56.7411 39.2709 56.3944 38.246 55.792C37.3668 55.2749 36.7427 54.4152 36.5233 53.4192C36.4688 53.0902 36.433 52.7584 36.416 52.4253C36.2927 51.2913 35.7869 50.303 35.0156 49.4751L31.8996 46.1299L31.6121 45.8212L31.453 46.2053H34.2324C34.8161 46.1895 35.3993 46.2495 35.9674 46.3838C36.9165 46.6335 37.7816 47.1324 38.4729 47.8289C39.157 48.519 39.7818 49.2758 40.431 49.9985C40.5579 50.1397 40.6487 50.28 40.8502 50.2865C41.0122 50.2916 41.1745 50.2922 41.3365 50.295L43.4944 50.3329L46.7234 50.3896L50.4121 50.4543L53.9496 50.5165L56.7244 50.5652C57.1919 50.5734 57.6602 50.5908 58.1278 50.5898C58.1483 50.5898 58.1689 50.5905 58.1894 50.5909C58.3127 50.5887 58.4122 50.4893 58.4144 50.3659L58.6123 45.8801L58.6476 45.0806L58.4226 45.3056C59.4089 45.2777 60.396 45.2992 61.3802 45.37C61.6692 45.3902 61.6679 44.9402 61.3802 44.92Z" fill="black"/>
<path d="M52.3653 33.5303C49.9544 33.5303 48 31.5758 48 29.165V28.3438H56.7306V29.165C56.7306 30.3227 56.2707 31.433 55.452 32.2517C54.6334 33.0704 53.5231 33.5303 52.3653 33.5303Z" fill="#F5F4EF"/>
<path d="M52.3647 33.3037C50.1488 33.3037 48.3256 31.5591 48.2282 29.3453C48.2145 29.0116 48.2244 28.6761 48.2244 28.3422L47.9994 28.5671H56.73L56.505 28.3422C56.505 28.6155 56.5062 28.8888 56.505 29.1621C56.504 29.6936 56.4027 30.2202 56.2063 30.7142C55.5747 32.2809 54.0539 33.306 52.3647 33.3037C52.0753 33.305 52.0747 33.755 52.3647 33.7536C54.7902 33.7537 56.7971 31.8665 56.946 29.4456C56.9694 29.0792 56.955 28.709 56.955 28.3422C56.9532 28.2186 56.8535 28.1189 56.73 28.1172H47.9994C47.8759 28.1189 47.7762 28.2186 47.7744 28.3422C47.7744 28.6428 47.7696 28.9439 47.7752 29.2445C47.8196 31.7475 49.8613 33.7535 52.3647 33.7536C52.6543 33.7537 52.6548 33.3037 52.3647 33.3037Z" fill="black"/>
<path d="M55.2917 29.1725L55.2129 23.2578L50.1832 25.1549L50 29.0365" fill="#F5F4EF"/>
<path d="M55.5165 29.1705L55.4898 27.1736L55.4473 23.989L55.4376 23.2558C55.4369 23.1858 55.4039 23.12 55.3482 23.0776C55.2926 23.0352 55.2204 23.0209 55.1528 23.0388L53.4596 23.6774L50.7444 24.7015L50.1231 24.9359C50.0275 24.9657 49.9612 25.0527 49.9579 25.1528L49.7978 28.5467L49.7747 29.0344C49.7611 29.3238 50.2111 29.3231 50.2247 29.0344L50.3848 25.6405L50.4078 25.1528L50.2427 25.3698L51.9359 24.7311L54.651 23.7071L55.2724 23.4727L54.9876 23.2558L55.0142 25.2527L55.0567 28.4372L55.0665 29.1705C55.0704 29.4598 55.5203 29.4606 55.5165 29.1705Z" fill="black"/>
<path d="M55.2419 25.2955C58.1463 23.0826 57.2764 20.8231 57.4459 19.1897C57.5444 18.2412 56.3077 16.1719 56.3077 16.1719L46.6758 16.4506C46.6758 16.4506 42.6906 27.1825 51.992 25.6745" fill="#F5F4EF"/>
<path d="M55.3553 25.496C56.1202 24.9092 56.8111 24.2005 57.2157 23.3136C57.5093 22.6417 57.6628 21.9171 57.6669 21.1839C57.6815 20.5775 57.619 19.9698 57.657 19.364C57.6817 19.0724 57.6596 18.7788 57.5915 18.4942C57.4962 18.1414 57.3719 17.7972 57.2197 17.465C57.0099 16.9836 56.7702 16.5159 56.5018 16.0646C56.4614 15.9956 56.3875 15.9532 56.3076 15.9531L53.0492 16.0475L47.8604 16.1976L46.6757 16.2319C46.5754 16.2347 46.4881 16.3012 46.4587 16.3971C46.3282 16.7489 46.2236 17.1119 46.126 17.4739C45.8963 18.314 45.7378 19.1719 45.6522 20.0387C45.5591 21.0208 45.5751 22.0388 45.8411 22.9947C46.1087 23.9566 46.6615 24.8196 47.5162 25.3577C48.6483 26.0705 50.0788 26.1329 51.3716 25.9906C51.599 25.9655 51.8258 25.934 52.0516 25.8977C52.1709 25.8639 52.2409 25.7407 52.2088 25.621C52.1733 25.503 52.0514 25.4338 51.932 25.4638C51.1704 25.5971 50.3949 25.6321 49.6244 25.5681C49.3292 25.5397 49.037 25.4857 48.7511 25.4069C48.4977 25.3398 48.2522 25.2457 48.0189 25.1261C47.9063 25.0684 47.7969 25.0048 47.691 24.9356C47.5989 24.8769 47.5106 24.8123 47.4268 24.7422C47.249 24.594 47.0867 24.4282 46.9422 24.2474C46.9315 24.2354 46.9217 24.2226 46.9127 24.2092C46.8974 24.1886 46.8823 24.168 46.8673 24.1472C46.8339 24.1003 46.8016 24.0527 46.7704 24.0043C46.708 23.9075 46.6502 23.8081 46.5969 23.7058C46.5702 23.6547 46.5446 23.603 46.52 23.5507C46.5091 23.5275 46.4984 23.5041 46.4879 23.4806C46.4816 23.4666 46.4466 23.3842 46.4647 23.4279C46.42 23.3202 46.3795 23.2109 46.3432 23.1001C46.2707 22.8781 46.2127 22.6517 46.1693 22.4223C46.1255 22.2021 46.0956 21.9794 46.0798 21.7555C46.0424 21.2703 46.0426 20.7829 46.0804 20.2977C46.0974 20.0639 46.1219 19.8307 46.1517 19.5982C46.1534 19.5853 46.1551 19.5724 46.1568 19.5596C46.1619 19.5211 46.1492 19.6142 46.1578 19.5522C46.1614 19.5267 46.165 19.5012 46.1686 19.4757C46.1767 19.4189 46.1852 19.3622 46.1941 19.3055C46.2113 19.1946 46.2299 19.0839 46.2497 18.9733C46.3205 18.5782 46.4061 18.186 46.5064 17.7969C46.58 17.51 46.6611 17.2252 46.7497 16.9424C46.7923 16.8075 46.853 16.6718 46.8862 16.5344C46.888 16.5284 46.8901 16.5225 46.8926 16.5167L46.6757 16.6819L49.934 16.5876L55.1228 16.4374L56.3076 16.4031L56.1133 16.2917C56.3243 16.6453 56.5149 17.0128 56.6911 17.3848C56.838 17.6886 56.9654 18.0015 57.0726 18.3215C57.1742 18.5859 57.2257 18.8668 57.2245 19.15C57.156 20.3657 57.3624 21.6108 56.9479 22.7851C56.613 23.7339 55.9157 24.5033 55.1282 25.1075C55.0242 25.1727 54.9889 25.3075 55.0475 25.4153C55.1107 25.5219 55.2479 25.5579 55.3553 25.4961L55.3553 25.496Z" fill="black"/>
<path d="M46.339 18.7677C46.9336 18.5233 47.8676 18.5655 48.0791 19.2916C48.1814 19.6427 48.037 20.0258 47.8698 20.3343C47.7529 20.5482 47.6111 20.7474 47.4472 20.9278C47.357 21.0279 47.2281 21.1179 47.1943 21.2524C47.175 21.3304 47.1694 21.4112 47.1776 21.4912C47.2273 21.9767 47.7695 22.0212 48.155 21.9918C48.4419 21.9699 48.4443 21.5197 48.155 21.5418C48.0028 21.5534 47.7872 21.5683 47.6683 21.5083C47.6278 21.4879 47.6568 21.5045 47.6334 21.4834C47.6663 21.5132 47.6131 21.4321 47.6291 21.4746C47.6208 21.4308 47.6227 21.3857 47.6347 21.3429L47.5768 21.4421C47.881 21.1524 48.1329 20.8124 48.3217 20.4371C48.4799 20.1416 48.5629 19.8117 48.5633 19.4766C48.5444 19.1177 48.3829 18.7812 48.1149 18.5418C47.8095 18.2752 47.4362 18.1911 47.0384 18.1956C46.7592 18.191 46.4816 18.2378 46.2194 18.3338C46.1021 18.37 46.0333 18.4913 46.0623 18.6106C46.0959 18.7299 46.2193 18.7999 46.339 18.7677Z" fill="black"/>
<path d="M48.3858 23.2386L49.1549 23.0464L49.263 23.0193L48.9782 22.8024C48.9782 22.8136 48.9778 22.8247 48.977 22.8359C48.9729 22.8947 48.9868 22.7922 48.9782 22.8297C48.9718 22.8569 48.963 22.8826 48.9551 22.9093C48.9749 22.8413 48.9673 22.8814 48.9566 22.9013C48.9504 22.9129 48.9436 22.9243 48.9363 22.9353C48.9061 22.981 48.9666 22.9018 48.9422 22.9292C48.9357 22.9365 48.9294 22.9439 48.9227 22.9511C48.9137 22.9604 48.9044 22.9694 48.8946 22.978C48.8538 23.0139 48.9329 22.9526 48.9022 22.9728C48.8807 22.9869 48.8584 23 48.8356 23.0119C48.8027 23.0291 48.8963 22.9894 48.8448 23.0077C48.8327 23.0121 48.8204 23.0159 48.808 23.0192C48.7954 23.0225 48.7828 23.0248 48.7702 23.0275C48.7314 23.0355 48.8347 23.0232 48.7866 23.0248C48.762 23.0256 48.7381 23.0257 48.7135 23.0244C48.6754 23.0222 48.7795 23.0366 48.7244 23.0252C48.7113 23.0225 48.6984 23.0192 48.6856 23.0153C48.6652 23.0091 48.6275 22.9862 48.6915 23.0203C48.6793 23.0137 48.6664 23.0085 48.6542 23.0017C48.6417 22.9948 48.63 22.9867 48.6178 22.9792C48.5837 22.9579 48.6621 23.0174 48.624 22.984C48.5777 22.9436 48.5314 22.9031 48.4852 22.8627C48.3973 22.7748 48.2549 22.7748 48.167 22.8627C48.0791 22.9505 48.0791 23.093 48.167 23.1808C48.2868 23.3119 48.4397 23.4084 48.6096 23.46C48.8657 23.5131 49.1298 23.4159 49.2902 23.2093C49.3799 23.0927 49.4284 22.9496 49.4281 22.8024C49.4271 22.7325 49.3941 22.667 49.3385 22.6247C49.2829 22.5823 49.211 22.5679 49.1433 22.5854L48.3743 22.7777L48.2662 22.8047C48.1882 22.8257 48.1275 22.8868 48.107 22.9649C48.0865 23.043 48.1094 23.1261 48.167 23.1827C48.2246 23.2392 48.3081 23.2606 48.3858 23.2386H48.3858Z" fill="black"/>
<path d="M55.3705 18.9926C55.2328 18.9469 55.085 18.9407 54.944 18.9747C54.616 19.0388 54.362 19.3015 54.1952 19.5762C54.0365 19.8533 53.9199 20.1524 53.8489 20.4637C53.8276 20.5412 53.8492 20.6242 53.9056 20.6815C53.962 20.7387 54.0447 20.7615 54.1225 20.7413C54.2003 20.721 54.2614 20.6608 54.2828 20.5833C54.3178 20.4417 54.3603 20.3022 54.4103 20.1651C54.4213 20.1352 54.4331 20.1056 54.4448 20.0759C54.4669 20.0202 54.4319 20.1039 54.4469 20.0707C54.453 20.0573 54.4587 20.0437 54.4648 20.0302C54.4876 19.98 54.5121 19.9307 54.5384 19.8821C54.562 19.8387 54.5872 19.7961 54.6142 19.7547C54.6267 19.7356 54.6396 19.7168 54.6528 19.6982C54.6579 19.6911 54.6632 19.6841 54.6683 19.677C54.6939 19.6411 54.6336 19.7185 54.6682 19.6773C54.716 19.62 54.7682 19.5666 54.8245 19.5175C54.8692 19.4786 54.7962 19.5365 54.8215 19.5194C54.8344 19.5107 54.8469 19.5013 54.8599 19.4928C54.8853 19.4761 54.9117 19.4609 54.9389 19.4473C54.9503 19.4429 54.9613 19.4377 54.972 19.4317C54.9145 19.4721 54.9355 19.4465 54.9614 19.4371C54.9851 19.4284 55.0093 19.4211 55.0338 19.4151C55.0539 19.4102 55.0757 19.4089 55.0954 19.4032C55.02 19.425 55.0459 19.4086 55.0722 19.407C55.0828 19.4063 55.0934 19.4054 55.104 19.405C55.1385 19.4038 55.1719 19.4082 55.2061 19.4097C55.1966 19.4093 55.1311 19.3969 55.1705 19.4053C55.1776 19.4069 55.1848 19.408 55.1919 19.4095C55.2023 19.4118 55.2128 19.4143 55.2231 19.4173C55.2325 19.4198 55.2417 19.4229 55.2508 19.4265C55.3705 19.4592 55.4942 19.389 55.5275 19.2693C55.5566 19.15 55.4878 19.0287 55.3704 18.9926L55.3705 18.9926Z" fill="black"/>
<path d="M44.2461 12.0234L53.408 12.1931C54.5916 12.2153 55.7034 12.7647 56.4401 13.6913C56.7948 13.213 57.4735 12.437 58.1567 12.4141C57.803 12.8168 57.3149 14.0138 57.148 14.4387C57.1657 14.4392 57.1845 14.44 57.2043 14.4411C57.4055 14.2212 57.8799 13.8609 58.6991 14.098C58.4149 14.169 58.175 14.4013 57.9924 14.6455C58.6222 14.9469 59.3437 15.6756 59.529 17.4174C59.6128 18.2051 59.3717 19.1746 59.0132 20.1172C58.2329 22.1454 56.9327 23.9327 55.2431 25.2995L55.2415 25.3009L54.9928 22.1198C55.447 21.7648 56.0992 20.4085 56.0992 19.6304C56.0992 18.4548 55.4681 18.1781 54.647 18.1781C54.348 18.1781 54.0377 18.3844 53.7637 18.7013C53.1258 19.4969 53.3743 21.0133 53.3744 21.0134C53.0089 20.0997 52.8211 19.1248 52.8211 18.1407V16.2879C52.8211 16.2879 50.4885 17.5755 47.7729 17.2099C47.7729 17.2099 47.3461 17.084 46.3712 17.009C46.2572 17.2275 46.157 17.4529 46.0712 17.6839C46.0712 17.6839 45.1713 17.234 45.1713 16.184C44.6463 16.334 44.5713 16.634 44.5713 16.634C44.1227 16.2445 43.9463 15.6269 44.1214 15.0591" fill="black"/>
<path d="M44.2457 12.2497L45.4374 12.2717L48.1674 12.3223L51.1799 12.3781L53.1743 12.415C53.3794 12.4188 53.584 12.4206 53.788 12.4447C54.5672 12.5406 55.2965 12.8789 55.8729 13.4118C56.0193 13.5483 56.1556 13.6953 56.2806 13.8516C56.3809 13.9761 56.557 13.9093 56.634 13.8061C56.83 13.5385 57.0535 13.2921 57.3008 13.071C57.5375 12.863 57.8313 12.6578 58.1563 12.6403L57.9972 12.2562C57.7473 12.5768 57.5423 12.9299 57.3876 13.3058C57.2237 13.6587 57.0732 14.018 56.9307 14.3801C56.9128 14.4478 56.9271 14.5199 56.9695 14.5755C57.0119 14.6312 57.0777 14.6642 57.1476 14.6649C57.3025 14.6705 57.3657 14.587 57.4713 14.4963C57.549 14.4313 57.6355 14.3775 57.7282 14.3365C58.0203 14.2247 58.3421 14.2175 58.6389 14.3162V13.8823C58.2789 13.9831 58.018 14.2438 57.7977 14.5332C57.7353 14.6406 57.7714 14.7781 57.8784 14.841C58.3065 15.0553 58.6529 15.4035 58.8648 15.8328C59.2287 16.5516 59.379 17.3597 59.2979 18.1613C59.2015 19.0974 58.8495 20.026 58.4491 20.8714C57.6623 22.5304 56.5114 23.9906 55.0819 25.1431L55.466 25.3022L55.2485 22.5204L55.2173 22.1211L55.1514 22.2802C55.3667 22.0867 55.5452 21.8559 55.6784 21.599C55.8594 21.2844 56.0098 20.9533 56.1276 20.6101C56.3441 19.9842 56.446 19.2209 56.099 18.6191C55.8029 18.1055 55.1724 17.9214 54.6091 17.9555C54.1984 17.9803 53.8309 18.2596 53.5823 18.5716C53.3731 18.85 53.2338 19.1746 53.176 19.5181C53.0789 20.0318 53.0725 20.5586 53.1569 21.0745L53.5908 20.9549C53.2327 20.0553 53.0477 19.0961 53.0456 18.1278C53.0451 17.6851 53.0451 17.2423 53.0456 16.7996V16.2893C53.0443 16.2093 53.0009 16.1359 52.9315 16.096C52.8621 16.0562 52.7769 16.0558 52.7071 16.095C52.2062 16.3583 51.677 16.5637 51.1297 16.7071C50.5854 16.8646 50.0273 16.9697 49.463 17.0211C49.139 17.0495 48.8135 17.0581 48.4884 17.0468C48.2607 17.0456 48.0333 17.0259 47.8088 16.9879C47.3347 16.8869 46.8542 16.8193 46.3707 16.7854C46.2904 16.7841 46.2159 16.8269 46.1764 16.8968C46.0526 17.1322 45.9448 17.3756 45.8538 17.6255L46.1843 17.491C46.1415 17.4686 46.1002 17.4436 46.0606 17.4159C46.0387 17.4011 46.0172 17.3858 45.996 17.3701C45.9689 17.35 46.0221 17.3909 45.9937 17.3684C45.9824 17.3595 45.9711 17.3504 45.9601 17.3411C45.9034 17.2936 45.8494 17.2431 45.7983 17.1897C45.5408 16.9187 45.3967 16.5593 45.3958 16.1854C45.3949 16.1155 45.3619 16.0499 45.3063 16.0076C45.2506 15.9652 45.1786 15.9508 45.111 15.9685C44.8143 16.0582 44.4421 16.2457 44.3539 16.5756L44.7299 16.4763C44.34 16.1434 44.1858 15.6102 44.3378 15.1204C44.4194 14.842 43.9853 14.7231 43.9039 15.0008C43.7214 15.6237 43.8912 16.3737 44.4118 16.7946C44.4691 16.8494 44.5509 16.8705 44.6276 16.8502C44.7043 16.8299 44.765 16.7713 44.7878 16.6953C44.8008 16.6468 44.768 16.7242 44.785 16.6998C44.795 16.6855 44.8024 16.6685 44.8117 16.6536C44.839 16.6101 44.8014 16.6605 44.833 16.6258C44.9427 16.5165 45.0802 16.4393 45.2306 16.4025L44.9458 16.1855C44.9538 16.8658 45.336 17.5658 45.9572 17.8796C46.0178 17.9134 46.0904 17.9178 46.1547 17.8917C46.2189 17.8655 46.2678 17.8117 46.2877 17.7452C46.366 17.5321 46.4586 17.3246 46.5649 17.124L46.3707 17.2354C46.8057 17.2638 47.2381 17.324 47.6644 17.4156C48.1853 17.5349 48.7671 17.519 49.2974 17.4838C50.3446 17.4111 51.3726 17.1663 52.3401 16.7592C52.5428 16.6779 52.7411 16.5859 52.9342 16.4836L52.5956 16.2893C52.5956 17.2957 52.5391 18.324 52.6852 19.3222C52.7742 19.9226 52.9325 20.5107 53.1569 21.0746C53.1933 21.1902 53.3147 21.2562 53.4315 21.224C53.5483 21.1918 53.6187 21.0729 53.5908 20.955C53.59 20.95 53.5892 20.945 53.5885 20.94C53.5801 20.8828 53.5927 20.9787 53.589 20.945C53.582 20.8815 53.5744 20.8181 53.569 20.7545C53.5531 20.5668 53.5478 20.3785 53.5532 20.1902C53.5664 19.7427 53.6356 19.2247 53.9223 18.8618C54.083 18.6585 54.3387 18.4288 54.6091 18.4056C54.8112 18.3916 55.0141 18.4138 55.2084 18.4712C55.5851 18.5804 55.7843 18.8749 55.8492 19.2678C55.9326 19.7728 55.7895 20.2692 55.6024 20.7347C55.4376 21.1443 55.2184 21.615 54.8858 21.9175C54.8036 21.9804 54.7606 22.0818 54.7723 22.1846L54.7948 22.4725L54.8727 23.4698L55.016 25.3023C55.0191 25.3918 55.0741 25.4712 55.1568 25.5055C55.2395 25.5397 55.3346 25.5225 55.4001 25.4614C56.816 24.3189 57.9649 22.8803 58.7661 21.2468C59.2013 20.3594 59.5737 19.4004 59.7154 18.4181C59.8397 17.5325 59.7142 16.6298 59.353 15.8117C59.1101 15.2259 58.6684 14.7446 58.1055 14.4525L58.1862 14.7603C58.3241 14.5544 58.5248 14.3986 58.7585 14.3162C58.8539 14.2871 58.9191 14.199 58.9191 14.0993C58.9191 13.9995 58.8539 13.9115 58.7585 13.8823C58.1491 13.7138 57.4892 13.805 57.0448 14.2833L57.2039 14.2174C57.1851 14.2163 57.1664 14.2155 57.1476 14.215L57.3646 14.4998C57.4928 14.1737 57.6285 13.8506 57.7762 13.5329C57.9259 13.2107 58.093 12.8335 58.3154 12.5744C58.433 12.4373 58.3652 12.1791 58.1563 12.1903C57.3343 12.2346 56.7026 12.966 56.2455 13.579L56.5988 13.5335C55.7936 12.5493 54.5916 11.9753 53.3201 11.9678L51.5929 11.9358L48.6254 11.8808L45.7534 11.8276C45.2599 11.8185 44.7608 11.7867 44.2672 11.8001C44.26 11.8003 44.2528 11.7999 44.2457 11.7997C43.956 11.7943 43.956 12.2443 44.2457 12.2497V12.2497Z" fill="black"/>
<path d="M53.5994 21.0062C53.5961 20.8834 53.4973 20.7845 53.3744 20.7812L53.3146 20.7893C53.277 20.7997 53.2428 20.8196 53.2153 20.8472L53.1801 20.8927C53.16 20.9271 53.1494 20.9663 53.1494 21.0062C53.1527 21.1291 53.2515 21.228 53.3744 21.2312L53.4342 21.2232C53.4717 21.2128 53.506 21.1929 53.5335 21.1653L53.5687 21.1198C53.5888 21.0853 53.5994 21.0461 53.5994 21.0062C53.5961 20.8834 53.4973 20.7845 53.3744 20.7813L53.3146 20.7893C53.277 20.7997 53.2428 20.8196 53.2153 20.8472L53.1801 20.8927C53.16 20.9271 53.1494 20.9663 53.1494 21.0062C53.1527 21.1291 53.2515 21.228 53.3744 21.2312L53.4342 21.2232C53.4717 21.2128 53.506 21.1929 53.5335 21.1653L53.5687 21.1198C53.5888 21.0853 53.5994 21.0461 53.5994 21.0062Z" fill="black"/>
<path d="M40.1328 49.3281L42.0326 51.6478L40.1328 49.3281Z" fill="#F5F4EF"/>
<path d="M39.9741 49.485L41.6352 51.5133L41.8738 51.8047C41.962 51.8917 42.1038 51.8917 42.192 51.8047C42.2771 51.7157 42.2771 51.5755 42.192 51.4865L40.5308 49.4582L40.2922 49.1668C40.204 49.0798 40.0622 49.0798 39.974 49.1668C39.8889 49.2558 39.8889 49.396 39.974 49.485H39.9741Z" fill="black"/>
<path d="M26.4043 58.6328L30.2769 60.3617L26.4043 58.6328Z" fill="#F5F4EF"/>
<path d="M26.2906 58.823L29.6765 60.3346L30.1632 60.5519C30.271 60.6105 30.4059 60.5751 30.471 60.4712C30.5329 60.3637 30.4969 60.2266 30.3903 60.1633L27.0044 58.6518L26.5177 58.4345C26.4099 58.3759 26.2751 58.4112 26.2099 58.5152C26.1481 58.6226 26.1841 58.7598 26.2906 58.823Z" fill="black"/>
<path d="M61.011 95.0724H52.2432C49.8889 95.0724 47.9805 93.1639 47.9805 90.8097V68.631C47.9805 66.2768 49.8889 64.3683 52.2432 64.3683H61.8803C62.8733 64.3683 63.6783 63.5633 63.6783 62.5703" fill="black"/>
<path d="M61.0113 94.8538H52.3183C51.8092 94.8585 51.3035 94.772 50.8249 94.5985C49.3386 94.0331 48.3182 92.6532 48.213 91.0665C48.196 90.7728 48.2057 90.476 48.2057 90.1821V68.7594C48.1726 67.6511 48.5965 66.5779 49.3779 65.7913C50.1594 65.0047 51.2298 64.5738 52.3383 64.5997H60.8469C61.4646 64.5997 62.147 64.6732 62.7236 64.4148C63.4401 64.0827 63.8999 63.3663 63.9035 62.5767C63.9035 62.2872 63.4536 62.2867 63.4536 62.5767C63.4473 63.3623 62.8681 64.0256 62.0904 64.1377C61.9084 64.1537 61.7255 64.1577 61.5429 64.1497H52.8002C52.6194 64.1497 52.4386 64.1491 52.2578 64.1497C51.5783 64.1505 50.9074 64.3026 50.294 64.595C48.8213 65.314 47.8526 66.7732 47.7618 68.4096C47.7464 68.7018 47.7558 68.9967 47.7558 69.2892V90.7244C47.7437 91.8196 48.1232 92.8831 48.8258 93.7233C49.6992 94.7385 50.9759 95.3168 52.315 95.3038H61.0113C61.3008 95.3038 61.3013 94.8538 61.0113 94.8538Z" fill="black"/>
<ellipse cx="62.5538" cy="85.252" rx="3.33015" ry="3.33016" fill="black"/>
<path d="M65.6587 85.2551C65.6519 86.9159 64.3341 88.2745 62.6744 88.3319C61.0147 88.3894 59.6061 87.1251 59.4846 85.4688C59.363 83.8126 60.5718 82.3562 62.2221 82.1707C63.8725 81.9851 65.3745 83.1368 65.6237 84.7787C65.6476 84.9364 65.6593 85.0957 65.6587 85.2551C65.6604 85.5446 66.1104 85.5452 66.1086 85.2551C66.1116 83.3442 64.6062 81.7714 62.6969 81.6907C60.7877 81.6101 59.155 83.0504 58.9968 84.9547C58.8386 86.8591 60.2113 88.549 62.1077 88.7845C64.0041 89.02 65.7484 87.7171 66.0607 85.8318C66.091 85.641 66.107 85.4483 66.1086 85.2551C66.1104 84.9655 65.6604 84.9652 65.6587 85.2551Z" fill="#0057FF"/>
<circle cx="50.4403" cy="19.5975" r="1.24456" fill="#F5F4EF" stroke="black" stroke-width="0.37777"/>
<circle cx="47.1639" cy="19.5975" r="1.24456" fill="#F5F4EF" stroke="black" stroke-width="0.37777"/>
<path d="M51.873 19.6986L52.9993 19.2891" stroke="black" stroke-width="0.37777" stroke-linecap="round"/>
<path d="M48.4951 19.898C48.5975 19.7274 48.8637 19.4885 49.1095 19.898" stroke="black" stroke-width="0.37777" stroke-linecap="round"/>
</svg>
