<svg width="25" height="25" viewBox="0 0 25 25" fill="none" xmlns="http://www.w3.org/2000/svg">
<path d="M15.5 9.79688H21.4549C23.3134 9.79688 24.5221 11.7527 23.691 13.4149L19.316 22.1649C18.8925 23.0119 18.0268 23.5469 17.0799 23.5469H12.0578C11.8534 23.5469 11.6497 23.5218 11.4514 23.4722L6.75 22.2969M15.5 9.79688V3.54687C15.5 2.16616 14.3807 1.04688 13 1.04688H12.8807C12.2562 1.04688 11.75 1.55309 11.75 2.17753C11.75 3.07041 11.4857 3.94332 10.9904 4.68624L6.75 11.0469V22.2969M15.5 9.79688H13M6.75 22.2969H4.25C2.86929 22.2969 1.75 21.1776 1.75 19.7969V12.2969C1.75 10.9162 2.86929 9.79688 4.25 9.79688H7.375" stroke="black" stroke-width="2" stroke-linecap="round" stroke-linejoin="round"/>
</svg>
