<svg width="24" height="20" viewBox="0 0 24 20" fill="none" xmlns="http://www.w3.org/2000/svg">
<path d="M22.3829 11.6763C22.0589 11.428 21.6821 11.2577 21.2817 11.1784C20.8813 11.099 20.4681 11.1128 20.0739 11.2188L16.6867 11.9931C16.6867 11.9537 16.6867 11.9144 16.6867 11.875C16.6867 11.0794 16.3706 10.3163 15.808 9.75368C15.2454 9.19107 14.4823 8.875 13.6867 8.875H8.99355C8.55028 8.87379 8.11116 8.9605 7.70162 9.13011C7.29208 9.29972 6.92024 9.54886 6.60761 9.86312L4.59293 11.875H2.43668C1.9394 11.875 1.46248 12.0725 1.11085 12.4242C0.75922 12.7758 0.561676 13.2527 0.561676 13.75L0.561676 17.5C0.561676 17.9973 0.75922 18.4742 1.11085 18.8258C1.46248 19.1775 1.9394 19.375 2.43668 19.375H11.8117C11.9037 19.375 11.9953 19.3637 12.0845 19.3412L18.0845 17.8412C18.1419 17.8272 18.198 17.8084 18.2523 17.785L21.8917 16.2344C21.9132 16.2259 21.9339 16.2166 21.9545 16.2062C22.3615 16.0026 22.71 15.6988 22.9672 15.3233C23.2244 14.9479 23.3819 14.5131 23.4247 14.06C23.4676 13.607 23.3944 13.1504 23.2122 12.7334C23.0299 12.3164 22.7446 11.9526 22.3829 11.6763ZM3.93668 17.125H2.81168V14.125H3.93668V17.125ZM20.9692 14.1822L17.4526 15.6822L11.6729 17.125H6.18668V13.4688L8.19855 11.4569C8.30255 11.3517 8.42635 11.2683 8.56281 11.2113C8.69928 11.1544 8.84568 11.125 8.99355 11.125H13.6867C13.8856 11.125 14.0764 11.204 14.217 11.3447C14.3577 11.4853 14.4367 11.6761 14.4367 11.875C14.4367 12.0739 14.3577 12.2647 14.217 12.4053C14.0764 12.546 13.8856 12.625 13.6867 12.625H11.0617C10.7633 12.625 10.4772 12.7435 10.2662 12.9545C10.0552 13.1655 9.93668 13.4516 9.93668 13.75C9.93668 14.0484 10.0552 14.3345 10.2662 14.5455C10.4772 14.7565 10.7633 14.875 11.0617 14.875H14.0617C14.1465 14.875 14.2311 14.8656 14.3139 14.8469L20.5951 13.4022L20.6392 13.3909C20.7032 13.3735 20.7704 13.3711 20.8355 13.3838C20.9007 13.3965 20.962 13.4241 21.0148 13.4644C21.0675 13.5046 21.1103 13.5565 21.1398 13.6159C21.1693 13.6754 21.1847 13.7408 21.1848 13.8072C21.1853 13.8832 21.1655 13.9579 21.1277 14.0238C21.0898 14.0897 21.0351 14.1444 20.9692 14.1822ZM15.9367 8.125C16.0991 8.12481 16.2613 8.11416 16.4223 8.09313C16.7567 8.68576 17.246 9.17625 17.8378 9.51203C18.4296 9.84782 19.1016 10.0163 19.7819 9.99928C20.4621 9.98231 21.1249 9.78057 21.6993 9.41569C22.2736 9.0508 22.7378 8.53652 23.0422 7.92795C23.3466 7.31938 23.4797 6.63946 23.4272 5.96104C23.3746 5.28262 23.1385 4.63128 22.7441 4.0768C22.3497 3.52232 21.8119 3.08561 21.1882 2.81346C20.5646 2.5413 19.8786 2.44396 19.2039 2.53187C18.8796 1.95731 18.4095 1.47846 17.841 1.14367C17.2725 0.808883 16.6257 0.630008 15.9659 0.625104C15.3062 0.620199 14.6568 0.789439 14.0834 1.11574C13.51 1.44204 13.0328 1.91384 12.7 2.48353C12.3673 3.05321 12.1907 3.70061 12.1881 4.36036C12.1855 5.02012 12.3571 5.66887 12.6854 6.24114C13.0137 6.8134 13.4872 7.28892 14.058 7.61969C14.6289 7.95045 15.2769 8.12475 15.9367 8.125ZM19.6867 4.75C19.9833 4.75 20.2734 4.83797 20.52 5.0028C20.7667 5.16762 20.959 5.40189 21.0725 5.67597C21.186 5.95006 21.2157 6.25166 21.1579 6.54263C21.1 6.83361 20.9571 7.10088 20.7473 7.31066C20.5376 7.52044 20.2703 7.6633 19.9793 7.72118C19.6883 7.77906 19.3867 7.74935 19.1126 7.63582C18.8386 7.52229 18.6043 7.33003 18.4395 7.08335C18.2746 6.83668 18.1867 6.54667 18.1867 6.25C18.1867 5.85217 18.3447 5.47064 18.626 5.18934C18.9073 4.90804 19.2889 4.75 19.6867 4.75ZM15.9367 2.875C16.1732 2.8749 16.4064 2.93073 16.6172 3.03794C16.8281 3.14514 17.0105 3.30069 17.1498 3.49187C16.4725 4.11263 16.0474 4.96091 15.9554 5.875H15.9367C15.5389 5.875 15.1573 5.71696 14.876 5.43566C14.5947 5.15436 14.4367 4.77282 14.4367 4.375C14.4367 3.97717 14.5947 3.59564 14.876 3.31434C15.1573 3.03304 15.5389 2.875 15.9367 2.875Z" fill="#0057FF"/>
</svg>
